<svg xmlns="http://www.w3.org/2000/svg" xmlns:xlink="http://www.w3.org/1999/xlink" width="295" height="221.231" viewBox="0 0 295 221.231">
  <defs>
    <clipPath id="clip-path">
      <rect id="Rectángulo_414980" data-name="Rectángulo 414980" width="295" height="209" transform="translate(1019.701 5104)" fill="#fff" stroke="#707070" stroke-width="1"/>
    </clipPath>
    <clipPath id="clip-path-2">
      <path id="Trazado_1027637" data-name="Trazado 1027637" d="M6161.3,1038.573c-.336,2.734-.719,5.206-1.153,7.182-.628,2.861-1.361,4.684-2.206,4.765a15.054,15.054,0,0,1-3.691-.317,72.931,72.931,0,0,0-9.26-.649,515.551,515.551,0,0,0-54.832,1.568c-3.11.255-6.741.335-8.749-2.053a8.72,8.72,0,0,1-1.375-2.629,13.54,13.54,0,0,1-.4-1.34c-.227-.888-.45-1.992-.669-3.249-1.415-8.138-3.957-42.932-3.693-43.806.039-.128-.987-11.023-.887-11.143.511-.6,11.436-8.194,12.24-16.43.152-1.572.287-3.152.333-4.73l19.142-6.165,19.038,1.606a240.357,240.357,0,0,1,19.916,4l3.831,1.235a161.958,161.958,0,0,0,.685,21.289c.879,8.87,10.834-15.891,15.822-14.7,1.106.265-1.217,14.593-2.416,30.253C6161.868,1017.631,6161.958,1033.2,6161.3,1038.573Z" transform="translate(-6074.37 -959.576)"/>
    </clipPath>
  </defs>
  <g id="Grupo_1174233" data-name="Grupo 1174233" transform="translate(-1019.701 -5104)">
    <g id="Enmascarar_grupo_1098794" data-name="Enmascarar grupo 1098794" clip-path="url(#clip-path)">
      <g id="Grupo_1174231" data-name="Grupo 1174231" transform="translate(1031.435 5113.648)">
        <path id="Trazado_1027584" data-name="Trazado 1027584" d="M5337.309,799.2c-.258-.709,1.312-.474,1.131.258s-1.113.932-1.866.976c-22.068,1.3-43.265-9.318-60.654-22.968-15.283-12-28.818-26.943-35.923-45.028s-7.037-39.619,3.251-56.1c6.9-11.062,17.8-19.2,24.619-30.318,6.3-10.278,8.783-22.586,15.432-32.641,6.876-10.4,17.774-17.623,29.372-22.2s23.98-6.726,36.267-8.83c23.526-4.027,47.9-7.946,71.011-1.984,15.451,3.986,29.487,12.215,42.447,21.525,13.226,9.5,25.88,20.62,33.251,35.141,7.474,14.723,8.911,31.721,9.183,48.23.254,15.478-.479,31.352-6.362,45.671-7.954,19.357-24.666,34-43.044,44.01s-38.615,15.993-58.4,22.822c-17.37,6-36.759,12.652-53.466,5Z" transform="translate(-5235.041 -548.179)" fill="#f5f7ff"/>
        <path id="Trazado_1027585" data-name="Trazado 1027585" d="M6730.807,1077.651q-.61-1.686-1.322-3.3c-7.307-16.583-21.528-26.073-35.536-36.5a162.294,162.294,0,0,0-17.461-10.8c-3.38-1.9-7.149-4.361-11.006-5.159-5.62-1.162-9.816-.911-13.726,3.866a38.777,38.777,0,0,0,2.028,18.632,5.593,5.593,0,0,0,2.522,3.4,15.369,15.369,0,0,0,3.228.664c6.1,1.368,5.885,8.991,8.671,13.248a17.66,17.66,0,0,0,4.93,4.476l11.666,8.159a37.279,37.279,0,0,1,7.506,6.3c4.64,5.55,5.449,14.345.984,20.037-2.347,2.992-5.82,4.914-8.309,7.79-2.076,2.4-3.755,6.795-1.572,9.646.974,1.272,2.834,2.343,3.987,3.583l5.357,5.766c1.994,2.146,5.564,7.925,8.67,8.551,3.787.762,11.81-7.093,14.39-9.518,5.521-5.191,11.127-10.535,14.5-17.115C6735.273,1099.708,6734.465,1087.768,6730.807,1077.651Z" transform="translate(-6482.66 -939.277)" fill="#01899b"/>
        <path id="Trazado_1027586" data-name="Trazado 1027586" d="M6815,1831.67a71.591,71.591,0,0,0-9.984,8.762c-2.848,3.228-6.022,8.023-5.14,12.548a10.383,10.383,0,0,0,1.222,3.025,46.048,46.048,0,0,0,2.713,4.189c1.149,1.618,2.423,3.279,4.25,4.053a6.175,6.175,0,0,0,6.6-1.4,4.285,4.285,0,0,0,1.373-3.553c-.274-1.735-.907-2.308.584-3.368,1.417-1.008,2.746-2.133,4.186-3.115.717-.489,7.72-5.095,8.159-4.573Z" transform="translate(-6613.317 -1653.094)" fill="#ffa882"/>
        <g id="Grupo_1174181" data-name="Grupo 1174181" transform="translate(187.751 194.743)">
          <path id="Trazado_1027587" data-name="Trazado 1027587" d="M6813.665,1967.4c-.079-.052-.215,0-.4.158a3.563,3.563,0,0,0-.609.758,12.572,12.572,0,0,0-1.669,5.9,3.572,3.572,0,0,0,.123.965c.078.231.167.348.261.345s.186-.124.271-.324a8.179,8.179,0,0,0,.3-.85c.224-.717.52-1.714.828-2.82s.586-2.107.771-2.836a8.183,8.183,0,0,0,.187-.883C6813.758,1967.6,6813.744,1967.45,6813.665,1967.4Z" transform="translate(-6810.984 -1967.38)" fill="#d68376"/>
        </g>
        <g id="Grupo_1174182" data-name="Grupo 1174182" transform="translate(189.766 198.861)">
          <path id="Trazado_1027588" data-name="Trazado 1027588" d="M6831.146,2001.966c-.147-.11-.578.167-1.1.772a6.432,6.432,0,0,0-.4.514c-.138.189-.269.4-.405.626a10.163,10.163,0,0,0-1.2,3.188c-.046.259-.088.505-.109.738a6.294,6.294,0,0,0-.04.649c-.01.8.131,1.29.314,1.305s.392-.435.637-1.142c.12-.354.26-.771.415-1.232s.333-.96.527-1.481.4-1.011.583-1.461l.5-1.2C6831.153,2002.552,6831.3,2002.08,6831.146,2001.966Z" transform="translate(-6827.892 -2001.942)" fill="#d68376"/>
        </g>
        <g id="Grupo_1174183" data-name="Grupo 1174183" transform="translate(192.977 202.123)">
          <path id="Trazado_1027589" data-name="Trazado 1027589" d="M6857.862,2029.341c-.157-.1-.565.219-1.048.865a8.839,8.839,0,0,0-.741,1.2,11.433,11.433,0,0,0-1.095,3.264,8.9,8.9,0,0,0-.132,1.4c0,.807.131,1.306.314,1.322s.4-.442.639-1.166c.12-.363.256-.792.4-1.266s.315-.991.495-1.533.364-1.052.529-1.52.319-.892.442-1.254C6857.912,2029.932,6858.025,2029.442,6857.862,2029.341Z" transform="translate(-6854.846 -2029.323)" fill="#d68376"/>
        </g>
        <g id="Grupo_1174184" data-name="Grupo 1174184" transform="translate(197.596 203.661)">
          <path id="Trazado_1027590" data-name="Trazado 1027590" d="M6893.715,2046.314c.159.1.491-.1.9-.493s.906-.952,1.468-1.483a8.891,8.891,0,0,1,1.55-1.172c.433-.264.762-.423.758-.618,0-.093-.1-.182-.274-.245a1.8,1.8,0,0,0-.769-.06,3.329,3.329,0,0,0-1.082.323,4.544,4.544,0,0,0-1.12.778,5.625,5.625,0,0,0-.843,1.012,5.5,5.5,0,0,0-.488.922C6893.6,2045.825,6893.56,2046.21,6893.715,2046.314Z" transform="translate(-6893.622 -2042.228)" fill="#d68376"/>
        </g>
        <g id="Grupo_1174189" data-name="Grupo 1174189" transform="translate(49.928 2.817)">
          <path id="Trazado_1027591" data-name="Trazado 1027591" d="M5687.56,357.9c-1.816,2.848-6.6,10.825-8.292,13.754a4.009,4.009,0,0,1-.118-1.611,2.24,2.24,0,0,0-.274-1.273.811.811,0,0,0-1.142-.245,1.967,1.967,0,0,0-3.37-1.66,2.112,2.112,0,0,0-2.731-1.29,5.559,5.559,0,0,0-2.549,2.182c-2.477,3.308-3.966,6.9-5.725,10.574-.69,1.441-9.446,20.822-9.231,20.934a97.864,97.864,0,0,0,14.957,6.394c.169.056,18.287-40.15,19.71-43.587.688-1.661,2.386-5.133,1.925-5.427C5689.429,355.82,5688,357.205,5687.56,357.9Z" transform="translate(-5654.123 -356.39)" fill="#ffa882"/>
          <g id="Grupo_1174185" data-name="Grupo 1174185" transform="translate(16.001 18.133)">
            <path id="Trazado_1027592" data-name="Trazado 1027592" d="M5796.746,514.283c.011-.076-.259-.184-.746-.345s-1.193-.375-2.043-.682a15.248,15.248,0,0,1-2.827-1.3,4.474,4.474,0,0,1-1.269-1.11,1.758,1.758,0,0,1-.312-.7l-.018-.091,0-.093-.005-.093,0-.047c0-.012,0,0,0,0v0c0,.009,0,.01,0,.009h0a1.588,1.588,0,0,1,.744-.153,4.241,4.241,0,0,1,.882.113c.6.133,1.191.34,1.771.529.291.095.58.187.874.265.146.038.3.077.443.1s.289.055.431.072a10.235,10.235,0,0,0,1.556.083c.464-.005.87-.017,1.223-.007s.655.029.9.062c.5.059.782.112.812.036.014-.035-.04-.094-.158-.174a1.55,1.55,0,0,0-.226-.131,3.044,3.044,0,0,0-.326-.143,5.127,5.127,0,0,0-.941-.257c-.373-.07-.8-.113-1.253-.157a12.287,12.287,0,0,1-1.435-.2c-.125-.024-.25-.058-.377-.09s-.249-.07-.379-.112c-.258-.085-.53-.187-.812-.294a16.413,16.413,0,0,0-1.863-.621,5.058,5.058,0,0,0-1.113-.158,2.617,2.617,0,0,0-1.267.275,1.144,1.144,0,0,0-.406.3.719.719,0,0,0-.12.218.79.79,0,0,0-.03.121c-.006.043-.008.092-.012.138l-.01.131,0,.082.009.165c0,.055.006.11.012.164l.03.161a2.77,2.77,0,0,0,.515,1.123,5.194,5.194,0,0,0,1.618,1.343,12.551,12.551,0,0,0,3.119,1.177,13.444,13.444,0,0,0,2.184.36C5796.441,514.389,5796.735,514.356,5796.746,514.283Z" transform="translate(-5788.433 -508.593)" fill="#d68376"/>
          </g>
          <g id="Grupo_1174186" data-name="Grupo 1174186" transform="translate(20.466 11.184)">
            <path id="Trazado_1027593" data-name="Trazado 1027593" d="M5825.974,457.484c.143.049.507-.592.981-1.667.237-.538.5-1.184.779-1.907a7.071,7.071,0,0,1,.992-2.069,1.846,1.846,0,0,1,.378-.332,1.273,1.273,0,0,1,.2-.106c.034-.015.068-.026.1-.038a.725.725,0,0,1,.087-.022.5.5,0,0,1,.265.011.132.132,0,0,1,.038.023.337.337,0,0,1,.053.118c.019.061.038.153.056.241s.036.174.051.259c.032.171.057.338.08.5.044.325.07.631.087.912.061,1.125-.017,1.85.14,1.887.071.017.188-.142.312-.46a5.753,5.753,0,0,0,.319-1.4,7.611,7.611,0,0,0,.044-1c0-.181-.013-.368-.03-.56-.008-.1-.019-.194-.032-.292s-.023-.2-.05-.322a1.374,1.374,0,0,0-.163-.425,1.134,1.134,0,0,0-.4-.385,1.466,1.466,0,0,0-.94-.158,2.425,2.425,0,0,0-1.419.832,4.149,4.149,0,0,0-.738,1.284c-.161.425-.271.81-.386,1.18-.226.741-.415,1.413-.559,1.983C5825.938,456.706,5825.831,457.435,5825.974,457.484Z" transform="translate(-5825.911 -450.27)" fill="#d68376"/>
          </g>
          <g id="Grupo_1174187" data-name="Grupo 1174187" transform="translate(17.191 9.096)">
            <path id="Trazado_1027594" data-name="Trazado 1027594" d="M5798.543,441.459c.312.049.893-2.679,2.365-5.718.182-.377.366-.761.548-1.075a2.513,2.513,0,0,1,.6-.742,1.214,1.214,0,0,1,.683-.275.912.912,0,0,1,.317.047,1.175,1.175,0,0,1,.149.061,1.6,1.6,0,0,1,.14.087,2.086,2.086,0,0,1,.455.456,5.256,5.256,0,0,1,.295.449c.154.263.249.423.325.409s.119-.2.078-.543a2.544,2.544,0,0,0-.164-.609,2.279,2.279,0,0,0-.481-.743,2.13,2.13,0,0,0-.2-.18,1.889,1.889,0,0,0-.25-.155,1.69,1.69,0,0,0-.613-.182,2.047,2.047,0,0,0-1.308.355,3.253,3.253,0,0,0-.939,1.008,12.058,12.058,0,0,0-.621,1.161,16.159,16.159,0,0,0-1.382,4.3C5798.358,440.715,5798.4,441.437,5798.543,441.459Z" transform="translate(-5798.419 -432.738)" fill="#d68376"/>
          </g>
          <g id="Grupo_1174188" data-name="Grupo 1174188" transform="translate(14.168 8.18)">
            <path id="Trazado_1027595" data-name="Trazado 1027595" d="M5775.289,434.529c-.03-.076-.232-.042-.5-.17a1.153,1.153,0,0,1-.405-.321,1.607,1.607,0,0,1-.282-.631,3.45,3.45,0,0,1-.07-.437c-.009-.078-.013-.162-.018-.246s-.013-.17-.012-.257a7.25,7.25,0,0,1,.059-1.118,13.683,13.683,0,0,1,.617-2.553q.111-.339.227-.67c.078-.22.154-.443.23-.646a3.63,3.63,0,0,1,.521-1.017,1.454,1.454,0,0,1,.335-.312,1.37,1.37,0,0,1,.393-.179,1.528,1.528,0,0,1,.8-.009,1.576,1.576,0,0,1,.609.329,2.057,2.057,0,0,1,.371.428c.177.271.241.466.322.46s.156-.218.073-.618a1.831,1.831,0,0,0-.31-.675,2.006,2.006,0,0,0-.794-.646,2.237,2.237,0,0,0-1.948.082,2.31,2.31,0,0,0-.607.478,4.2,4.2,0,0,0-.761,1.29c-.092.225-.172.443-.257.67s-.164.459-.242.7a11.15,11.15,0,0,0-.581,2.8,6.623,6.623,0,0,0,.042,1.279c.009.1.029.2.046.293s.033.189.056.282a3.551,3.551,0,0,0,.168.537,2,2,0,0,0,.6.833,1.361,1.361,0,0,0,.729.289.828.828,0,0,0,.479-.1C5775.272,434.621,5775.3,434.561,5775.289,434.529Z" transform="translate(-5773.046 -425.055)" fill="#d68376"/>
          </g>
        </g>
        <path id="Trazado_1027596" data-name="Trazado 1027596" d="M6151.744,333.85a4.435,4.435,0,0,0,.655-.019c.657-.071,1.382-.388,2.042-.522a26.615,26.615,0,0,1,5.125-.561c4.148-.027,8.446,1.188,10.928,4.743,1.81,2.594,2.644,5.979,3.438,8.991a132.546,132.546,0,0,1,2.79,14.017c1.5,9.952,1,20.537,6.491,29.421,2.289,3.7,5.5,6.915,6.884,11.041a25.726,25.726,0,0,1,1.042,6.481,27.516,27.516,0,0,1-.117,6.458,10.337,10.337,0,0,1-2.78,5.729,24.426,24.426,0,0,1-2.8,2.113c-.966.7-1.688,1.642-2.6,2.347a11.517,11.517,0,0,1-7.858,2.061c-3.068-.323-5.93-1.91-9.015-1.99-2.743-.071-5.353,1.054-7.941,1.965a54.249,54.249,0,0,1-15.519,3.017c-5.073.231-10.449-.353-14.576-3.312-1.565-1.122-2.9-2.552-4.525-3.583-3.541-2.247-8.632-2.84-10.333-6.673-1.425-3.213.437-6.831,1.979-9.99,4.873-9.985,7.125-21.365,7.682-32.4.5-9.851,1.595-19.921,5.555-29.056,3.684-8.5,10.846-11.924,19.944-10.882C6149.4,333.381,6150.594,333.8,6151.744,333.85Z" transform="translate(-6008.021 -332.746)" fill="#613c49"/>
        <path id="Trazado_1027597" data-name="Trazado 1027597" d="M6058.475,1773.957c-1.733.07-37.638.1-54.032.1l-4.422-72.508-1.857-.777-6.637,73.285-55.176-.284c1.983-14.747,4.415-34.911,6.175-44.608,3.5-19.315,7.38-38.54,11.287-57.778,1.713-8.434,7.645-22.883,18.021-23.666,9.285-.7,11.27.615,20.58.649,10.554.038,21.108.061,31.661-.044,1.245-.013,2.212,1.4,2.635.079-10.689.742-1.471.706-1.353,1.574.292,2.165,5.822,2.156,7.4,2.56,4.128,1.057,5.591,4.007,7.132,8.008,2.465,6.4,3.231,13.118,4.2,19.8,1.039,7.143,1.9,14.311,2.826,21.474,1.938,15.035,3.916,30.1,6.542,45.036C6053.873,1749.189,6057.771,1773.957,6058.475,1773.957Z" transform="translate(-5852.8 -1490.879)" fill="#6968b5"/>
        <path id="Trazado_1027598" data-name="Trazado 1027598" d="M6157.688,1038.573c-.337,2.734-.72,5.206-1.153,7.182-.628,2.861-1.361,4.684-2.207,4.765a15.054,15.054,0,0,1-3.691-.317,72.931,72.931,0,0,0-9.26-.649,515.551,515.551,0,0,0-54.832,1.568c-3.11.255-6.741.335-8.749-2.053a8.708,8.708,0,0,1-1.375-2.629,13.4,13.4,0,0,1-.4-1.34c-.227-.888-.45-1.992-.669-3.249-1.414-8.138-1.837-10.405-2.479-14.578-1.424-9.268-1.566-13.758-2.586-21.862-.133-1.057,1.109-6.491,1.372-7.366a1.085,1.085,0,0,1,.214-.371,17.694,17.694,0,0,1,2.227-1.555c6.771-5.709,8.109-17.41,8.913-25.647.153-1.572.287-3.152.333-4.73l19.143-6.165,19.037,1.606a240.357,240.357,0,0,1,19.916,4l13.928,2.812s-10.687,7.295-9.535,18.91c.879,8.87,15.852-19.023,15.945-13.9C6161.836,976.332,6159.069,1027.335,6157.688,1038.573Z" transform="translate(-5970.768 -884.898)" fill="#01899b"/>
        <path id="Trazado_1027599" data-name="Trazado 1027599" d="M6322.751,790.767s-4.276,16.572-18.5,15.637-17.095-16.632-17.095-16.632,6.139-2.85,7.542-5.5a22.519,22.519,0,0,0,1.3-5.408c.639-4.042,1.108-8.933,1.238-10.365.024-.266.038-.413.038-.413l17.767-4.739s-.378,2.481-.63,5.874c-.081,1.038-.145,2.159-.184,3.323-.2,5.794.255,12.583,3.152,14.793C6322.751,791.443,6322.751,790.767,6322.751,790.767Z" transform="translate(-6161.81 -712.048)" fill="#ffa882"/>
        <path id="Trazado_1027600" data-name="Trazado 1027600" d="M6379.749,806.067c-.08,1.038-.144,2.159-.184,3.323a17.791,17.791,0,0,1-4.191,2.617,43.17,43.17,0,0,1-10.905,3.246c-.251.045-1.7.253-3.131.458.639-4.042,1.107-8.933,1.238-10.365q6.686-.08,13.372-.165a6.559,6.559,0,0,1,3.158.487A4.735,4.735,0,0,1,6379.749,806.067Z" transform="translate(-6227.155 -748.893)" fill="#bf675a"/>
        <path id="Trazado_1027601" data-name="Trazado 1027601" d="M6274.122,435.823a87.581,87.581,0,0,0-.149,20.893c.477,3.491,1.541,6.495,4.173,8.962,4.79,4.488,10.486,5.9,16.9,5.131,9.342-1.121,14.572-6.352,15.507-21.112s.245-18.982-5.547-21.415-15.378-7.108-15.378-7.108l-14.2,9.034Z" transform="translate(-6149.701 -410.639)" fill="#ffa882"/>
        <ellipse id="Elipse_12194" data-name="Elipse 12194" cx="3.581" cy="1.868" rx="3.581" ry="1.868" transform="translate(149.954 42.244)" fill="#de7869"/>
        <ellipse id="Elipse_12195" data-name="Elipse 12195" cx="3.642" cy="1.868" rx="3.642" ry="1.868" transform="translate(127.349 42.244)" fill="#de7869"/>
        <path id="Trazado_1027602" data-name="Trazado 1027602" d="M6235.164,410.808c-7.567,4.727-8.381,2.844-11.407,5.78-4.1,3.982-5.374,7.378-5.457,13.1a45.384,45.384,0,0,1,5.613-18.919,33.721,33.721,0,0,1,14.139-13.578,7.221,7.221,0,0,1,3.348-.936c.934.032,3.855.575,3.758,1.738a14.366,14.366,0,0,1-2.613,6.485A30.374,30.374,0,0,1,6235.164,410.808Z" transform="translate(-6101.158 -388.683)" fill="#613c49"/>
        <ellipse id="Elipse_12196" data-name="Elipse 12196" cx="1.463" cy="2.293" rx="1.463" ry="2.293" transform="translate(129.443 35.632)" fill="#4a3439"/>
        <ellipse id="Elipse_12197" data-name="Elipse 12197" cx="1.463" cy="2.293" rx="1.463" ry="2.293" transform="translate(152.304 35.632)" fill="#4a3439"/>
        <g id="Grupo_1174197" data-name="Grupo 1174197" transform="translate(100.728 169.22)">
          <g id="Grupo_1174196" data-name="Grupo 1174196">
            <g id="Grupo_1174190" data-name="Grupo 1174190" transform="translate(42.142)">
              <path id="Trazado_1027603" data-name="Trazado 1027603" d="M6442.433,1791.624c-.014-.108-.612-.137-1.686-.095-.537.021-1.194.059-1.955.114l-1.22.094-.329.027c-.106.009-.252.022-.26.019h-.219c0-.083,0-.168,0-.256q-.038-.4-.076-.815c-.058-.567-.108-1.159-.156-1.775-.11-1.229-.2-2.552-.3-3.947-.172-2.793-.3-5.883-.322-9.136-.136-12.533,1.474-22.629.985-22.708-.21-.037-.882,2.445-1.517,6.548a102.958,102.958,0,0,0-1.114,16.173c.025,3.293.2,6.423.466,9.241.145,1.408.287,2.74.461,3.976.08.619.165,1.213.259,1.781q.07.435.136.85.1.683.2,1.332l1.178-.18.411-.067.325-.057,1.2-.217c.75-.139,1.4-.268,1.92-.383C6441.876,1791.911,6442.448,1791.732,6442.433,1791.624Z" transform="translate(-6434.264 -1753.144)" fill="#43438c"/>
            </g>
            <g id="Grupo_1174191" data-name="Grupo 1174191" transform="translate(0.922 0.447)">
              <path id="Trazado_1027604" data-name="Trazado 1027604" d="M6107.91,1756.9c-.107-.039-.34.292-.679.917s-.779,1.544-1.349,2.651a31.147,31.147,0,0,1-2.191,3.717,15.453,15.453,0,0,1-3.567,3.68,43.978,43.978,0,0,1-4.547,2.734l-3.863,2.148c-2.2,1.237-3.534,2.063-3.437,2.272s1.6-.249,3.948-1.226c1.171-.489,2.548-1.111,4.054-1.849a32.45,32.45,0,0,0,4.816-2.75,13.972,13.972,0,0,0,2.2-1.981,16.431,16.431,0,0,0,1.653-2.185,22.3,22.3,0,0,0,2-4.09,22.643,22.643,0,0,0,.883-2.9C6107.988,1757.34,6108.016,1756.936,6107.91,1756.9Z" transform="translate(-6088.271 -1756.894)" fill="#43438c"/>
            </g>
            <g id="Grupo_1174192" data-name="Grupo 1174192" transform="translate(0 3.833)">
              <path id="Trazado_1027605" data-name="Trazado 1027605" d="M6080.535,1805.3c.06.2,1.894-.072,4.749-.988a38.714,38.714,0,0,0,4.9-1.962,34.091,34.091,0,0,0,5.567-3.358,27.793,27.793,0,0,0,4.732-4.5,22.525,22.525,0,0,0,2.9-4.477,15.887,15.887,0,0,0,1.229-3.368c.185-.827.2-1.3.1-1.331-.25-.074-.83,1.673-2.345,4.139a28.032,28.032,0,0,1-3.031,4.049,32.064,32.064,0,0,1-4.569,4.172,49.7,49.7,0,0,1-9.891,5.549C6082.179,1804.4,6080.464,1805.071,6080.535,1805.3Z" transform="translate(-6080.533 -1785.314)" fill="#43438c"/>
            </g>
            <g id="Grupo_1174193" data-name="Grupo 1174193" transform="translate(68.621 0.872)">
              <path id="Trazado_1027606" data-name="Trazado 1027606" d="M6656.584,1760.467c.107-.039.34.292.678.917s.779,1.544,1.349,2.651a31.288,31.288,0,0,0,2.191,3.717,15.474,15.474,0,0,0,3.568,3.68,43.974,43.974,0,0,0,4.546,2.734l3.864,2.148c2.2,1.237,3.533,2.063,3.438,2.272s-1.605-.249-3.948-1.226c-1.17-.489-2.548-1.111-4.054-1.849a32.433,32.433,0,0,1-4.817-2.75,14,14,0,0,1-2.2-1.981,16.5,16.5,0,0,1-1.654-2.185,22.262,22.262,0,0,1-2-4.09,22.746,22.746,0,0,1-.883-2.9C6656.506,1760.91,6656.478,1760.5,6656.584,1760.467Z" transform="translate(-6656.521 -1760.464)" fill="#43438c"/>
            </g>
            <g id="Grupo_1174194" data-name="Grupo 1174194" transform="translate(65.576 1.97)">
              <path id="Trazado_1027607" data-name="Trazado 1027607" d="M6652.5,1792.587c-.086.2-1.87-.313-4.585-1.586a38.787,38.787,0,0,1-4.607-2.571,34.065,34.065,0,0,1-5.092-4.041,27.777,27.777,0,0,1-4.12-5.069,22.528,22.528,0,0,1-2.306-4.811,15.917,15.917,0,0,1-.79-3.5c-.077-.844-.031-1.316.075-1.332.258-.042.61,1.765,1.8,4.4a28.049,28.049,0,0,0,2.49,4.4,32.083,32.083,0,0,0,4,4.722,49.64,49.64,0,0,0,9.1,6.766C6650.985,1791.483,6652.6,1792.367,6652.5,1792.587Z" transform="translate(-6630.963 -1769.68)" fill="#43438c"/>
            </g>
            <g id="Grupo_1174195" data-name="Grupo 1174195" transform="translate(86.468 18.06)">
              <path id="Trazado_1027608" data-name="Trazado 1027608" d="M6819.955,1998.741c-.37-2.474-.905-6.052-1.566-10.474-.637-4.425-1.371-9.7-2.141-15.559s-1.586-12.312-2.462-19.083-1.747-13.22-2.617-19.076c-.221-1.463-.428-2.891-.649-4.277s-.435-2.729-.641-4.03c-.417-2.583-.733-5.009-1.021-7.226s-.551-4.226-.812-5.988-.518-3.275-.752-4.508a17.7,17.7,0,0,0-.944-3.784,26.755,26.755,0,0,0,.418,3.867c.153,1.24.334,2.756.52,4.521s.385,3.779.61,6,.489,4.669.861,7.287q.278,1.952.573,4.033c.2,1.385.388,2.815.591,4.278.8,5.857,1.631,12.3,2.508,19.074s1.727,13.22,2.569,19.079,1.674,11.126,2.434,15.54,1.466,7.969,2,10.417S6820.331,2001.214,6819.955,1998.741Z" transform="translate(-6806.324 -1904.738)" fill="#43438c"/>
            </g>
          </g>
        </g>
        <g id="Grupo_1174199" data-name="Grupo 1174199" transform="translate(27.988 91.193)">
          <circle id="Elipse_12198" data-name="Elipse 12198" cx="1.973" cy="1.973" r="1.973" transform="translate(6.738 30.725) rotate(-7.741)" fill="#e6a6b5"/>
          <g id="Grupo_1174198" data-name="Grupo 1174198">
            <path id="Trazado_1027609" data-name="Trazado 1027609" d="M5478.292,1126.608c.188.044.4-.059.633-.343a4.018,4.018,0,0,0,.6-1.3c.167-.562.3-1.233.443-1.964s.3-1.516.511-2.345a17.9,17.9,0,0,1,.871-2.6,19.5,19.5,0,0,1,1.422-2.784l.473-.79q.268-.45.532-.938c.175-.325.347-.665.511-1.02q.123-.266.241-.544c.08-.207.159-.415.239-.625a11.8,11.8,0,0,0,.544-5.41,11.641,11.641,0,0,0-1.353-4.138,8.256,8.256,0,0,0-1.431-1.922,6.158,6.158,0,0,0-1.106-.87,5.355,5.355,0,0,0-1.4-.606,6.578,6.578,0,0,0-2.532-.157,7.588,7.588,0,0,0-2.128.612,9.593,9.593,0,0,0-5.361,7.278,5.94,5.94,0,0,0,.144,2.209,3.867,3.867,0,0,0,.735,1.488,2.258,2.258,0,0,0,.426.417,1.286,1.286,0,0,0,.386.221.542.542,0,0,0,.537-.018c.256-.193.246-.661.305-1.267a5.69,5.69,0,0,1,.679-2.222,7.828,7.828,0,0,1,.925-1.345,8.325,8.325,0,0,1,1.388-1.286,5.568,5.568,0,0,1,1.685-.847,2.007,2.007,0,0,1,1.3.018.142.142,0,0,1,.018.043c.014.021.061.067.118.139a3.736,3.736,0,0,1,.441.72,7.187,7.187,0,0,1,.675,2.256,7.453,7.453,0,0,1-.206,2.984l-.106.34-.145.4q-.151.4-.325.8c-.116.267-.238.535-.365.8l-.2.418-.222.486a17.848,17.848,0,0,0-1.291,3.83,15.008,15.008,0,0,0-.36,3.511,15.5,15.5,0,0,0,.3,2.8,16.626,16.626,0,0,0,.508,1.923,7.661,7.661,0,0,0,.459,1.15C5477.944,1126.376,5478.105,1126.564,5478.292,1126.608Z" transform="translate(-5469.962 -1098.2)" fill="#e6a6b5"/>
          </g>
        </g>
        <path id="Trazado_1027610" data-name="Trazado 1027610" d="M5431.112,671.346c.776,1.466.785,3.271.644,5.649a68.006,68.006,0,0,1-8.722,29.427c-.5.88-.951,2.157-.136,2.757a2.069,2.069,0,0,0,.877.3c18.683,3.4,38.467-2.7,56.4-7.544,5.081-1.4,3.146,7.72,6.472,13.891,3.141,5.827,11.85,8.463,6.644,15.812-6.446,9.1-7.338,1.657-7.174,8.124-3.119,3.093-.272,5.295-2.787,3.6-29.672,17.077-112.766,25.358-102.164-30.314,5.414-18.411,19.948-32.49,29.083-49.08,3.333-4.276,5.322-2.7,9.143.461,2.5,2.069,5.862,2.786,8.707,4.235A6.507,6.507,0,0,1,5431.112,671.346Z" transform="translate(-5362.943 -622.209)" fill="#01899b"/>
        <path id="Trazado_1027611" data-name="Trazado 1027611" d="M6392.853,723.245a20.561,20.561,0,0,0,7.761-.25,10.437,10.437,0,0,1-.719,2.766,3.275,3.275,0,0,1-1.452,1.979,2.514,2.514,0,0,1-1.006.228,4.288,4.288,0,0,1-3.216-1.38,5.617,5.617,0,0,1-1.428-3.244Z" transform="translate(-6254.862 -676.502)" fill="#fff"/>
        <g id="Grupo_1174200" data-name="Grupo 1174200" transform="translate(140.086 35.858)">
          <path id="Trazado_1027612" data-name="Trazado 1027612" d="M6413.84,641.636c-.056-.084-.353.016-.839.181-.122.041-.256.085-.4.13a2.857,2.857,0,0,1-.439.112.69.69,0,0,1-.187,0,.344.344,0,0,1-.073-.017.251.251,0,0,1-.046-.026.073.073,0,0,1-.027-.027.09.09,0,0,1-.012-.025.065.065,0,0,1,0-.047.073.073,0,0,1,.012-.016l.007-.006s.017-.025.027-.04c.023-.033.057-.081.086-.128l.094-.144c.062-.1.129-.194.188-.3l.177-.314a8.813,8.813,0,0,0,.608-1.4,9.076,9.076,0,0,0,.467-2.3,8.092,8.092,0,0,0-.084-1.909c-.019-.134-.045-.261-.074-.38s-.053-.231-.082-.335a5.338,5.338,0,0,0-.183-.521c-.127-.278-.229-.419-.3-.4-.152.039-.076.684-.1,1.693a12.206,12.206,0,0,1-.635,3.822,10.9,10.9,0,0,1-.519,1.271l-.145.291c-.047.1-.1.186-.151.278l-.075.136c-.024.045-.049.087-.082.145-.017.03-.029.052-.052.1a1.333,1.333,0,0,0-.06.136.952.952,0,0,0-.059.282.871.871,0,0,0,.176.563.963.963,0,0,0,.2.2,1.044,1.044,0,0,0,.479.2,1.161,1.161,0,0,0,.221.009,1.42,1.42,0,0,0,.372-.072,2.786,2.786,0,0,0,.52-.246c.144-.083.272-.167.384-.246C6413.7,641.972,6413.894,641.715,6413.84,641.636Z" transform="translate(-6410.891 -633.73)" fill="#bf675a"/>
        </g>
        <g id="Grupo_1174204" data-name="Grupo 1174204" transform="translate(126.037 26.363)">
          <g id="Grupo_1174203" data-name="Grupo 1174203">
            <g id="Grupo_1174201" data-name="Grupo 1174201" transform="translate(0 0.283)">
              <path id="Trazado_1027613" data-name="Trazado 1027613" d="M6303.456,557.321c0-.286-.6-.555-1.6-.738a11.991,11.991,0,0,0-1.771-.178,13.407,13.407,0,0,0-2.212.126,10.568,10.568,0,0,0-2.2.57,7.811,7.811,0,0,0-.914.43c-.137.079-.271.15-.395.231s-.238.167-.347.247a3.92,3.92,0,0,0-.547.484,2.808,2.808,0,0,0-.2.224q-.085.115-.146.216c-.164.271-.2.468-.115.581s.3.132.581.081c.071-.013.146-.03.226-.051s.171-.036.264-.06c.186-.045.381-.114.609-.166q.168-.044.346-.1c.12-.033.248-.059.376-.093.254-.074.539-.124.827-.2.588-.12,1.238-.238,1.936-.343s1.379-.183,2-.27,1.2-.17,1.685-.266C6302.838,557.86,6303.454,557.609,6303.456,557.321Z" transform="translate(-6292.966 -556.401)" fill="#613c49"/>
            </g>
            <g id="Grupo_1174202" data-name="Grupo 1174202" transform="translate(22.054)">
              <path id="Trazado_1027614" data-name="Trazado 1027614" d="M6488.811,557.781c.1-.106.067-.311-.083-.6q-.056-.109-.135-.234c-.054-.081-.119-.161-.19-.249a4.5,4.5,0,0,0-.522-.553q-.157-.141-.334-.291c-.119-.1-.251-.187-.386-.283a7.894,7.894,0,0,0-.908-.548,9.057,9.057,0,0,0-4.717-.974,7.935,7.935,0,0,0-1.051.144c-.162.035-.319.063-.467.107s-.289.09-.422.135a4.472,4.472,0,0,0-.7.3c-.1.052-.191.1-.272.153s-.154.109-.217.161c-.253.208-.362.385-.315.52s.245.218.546.255c.075.009.157.016.245.019s.185.016.286.02c.2.013.424,0,.672.019.124,0,.251.007.383.007s.27.015.411.02c.282,0,.582.037.895.054a16.612,16.612,0,0,1,3.968.819c.293.108.583.2.843.3.131.052.264.094.385.145s.239.1.354.145c.234.083.434.18.625.249.094.036.187.065.271.094s.16.058.233.079C6488.5,557.884,6488.715,557.886,6488.811,557.781Z" transform="translate(-6478.081 -554.029)" fill="#613c49"/>
            </g>
          </g>
        </g>
        <path id="Trazado_1027615" data-name="Trazado 1027615" d="M6394.156,728.281a3.55,3.55,0,0,0,.946,1.356,2.612,2.612,0,0,0,3.182-.278,5.843,5.843,0,0,0,1.644-2.983,11.4,11.4,0,0,0,.681-2.65c-2.918,5.245-7.605,1.41-7.821.262A15.408,15.408,0,0,0,6394.156,728.281Z" transform="translate(-6254.858 -677.147)" fill="#ad5345"/>
        <g id="Grupo_1174213" data-name="Grupo 1174213" transform="translate(48.075 42.886)">
          <g id="Grupo_1174212" data-name="Grupo 1174212">
            <g id="Grupo_1174205" data-name="Grupo 1174205" transform="translate(77.223 34.838)">
              <path id="Trazado_1027616" data-name="Trazado 1027616" d="M6322.134,990.3a10.422,10.422,0,0,0-1.065,1.611,22.19,22.19,0,0,1-3.3,3.992c-.391.381-.827.753-1.284,1.134s-.956.75-1.49,1.1-1.093.709-1.693,1.031a19.553,19.553,0,0,1-1.891.908,20.249,20.249,0,0,1-2.075.732,18.451,18.451,0,0,1-2.235.5,17.719,17.719,0,0,1-2.358.213,14.838,14.838,0,0,1-2.419-.157,17.149,17.149,0,0,1-2.378-.521,19.344,19.344,0,0,1-2.222-.824,19.918,19.918,0,0,1-2.028-1.064c-.314-.2-.634-.393-.93-.609-.149-.106-.3-.206-.446-.316l-.428-.329c-.145-.106-.277-.224-.414-.337s-.272-.224-.4-.341l-.382-.352c-.063-.059-.127-.115-.188-.175l-.179-.182-.356-.359c-.115-.121-.224-.247-.334-.369s-.225-.24-.325-.367l-.306-.373a17.9,17.9,0,0,1-1.942-2.972,20.528,20.528,0,0,1-1.161-2.708c-.073-.205-.129-.408-.192-.6s-.126-.378-.169-.56-.094-.354-.138-.519-.09-.322-.12-.473c-.067-.3-.128-.568-.185-.8s-.085-.431-.123-.591c-.072-.32-.127-.487-.164-.483s-.05.177-.044.508c0,.165.009.37.025.611s.055.517.092.83c.016.157.046.32.077.492s.063.353.1.541.084.382.13.585.095.414.156.63a18.528,18.528,0,0,0,1.058,2.863,17.5,17.5,0,0,0,1.921,3.177l.31.4c.1.136.22.262.331.395s.225.266.342.4l.365.387.185.2c.063.064.129.125.194.189l.395.379c.134.126.276.244.416.368s.278.249.429.363l.446.354c.149.119.309.226.464.341.309.233.643.438.971.656a20.237,20.237,0,0,0,2.129,1.147,19.79,19.79,0,0,0,2.346.887,17.673,17.673,0,0,0,2.526.559,15.491,15.491,0,0,0,2.591.162,18.155,18.155,0,0,0,2.5-.242,18.835,18.835,0,0,0,2.354-.549,20.38,20.38,0,0,0,2.17-.8,19.574,19.574,0,0,0,1.96-.992,19.847,19.847,0,0,0,1.739-1.122c.546-.384,1.042-.8,1.514-1.2s.9-.815,1.286-1.227a18.621,18.621,0,0,0,3.134-4.309A5.27,5.27,0,0,0,6322.134,990.3Z" transform="translate(-6286.765 -985.143)" fill="#004a54"/>
            </g>
            <g id="Grupo_1174209" data-name="Grupo 1174209">
              <g id="Grupo_1174206" data-name="Grupo 1174206" transform="translate(8.388 45.413)">
                <path id="Trazado_1027617" data-name="Trazado 1027617" d="M5712.861,1073.938c-.1-.1-.465.072-.972.443a8.989,8.989,0,0,0-.849.712,7.383,7.383,0,0,0-.925,1.041,6.139,6.139,0,0,0-.691,1.232c-.088.2-.15.391-.211.571s-.1.351-.136.507c-.135.626-.121,1.032.012,1.076s.374-.281.675-.813a19.909,19.909,0,0,1,1.194-1.962c.257-.358.531-.688.783-1s.483-.594.667-.844C5712.78,1074.4,5712.963,1074.041,5712.861,1073.938Z" transform="translate(-5708.983 -1073.91)" fill="#004a54"/>
              </g>
              <g id="Grupo_1174207" data-name="Grupo 1174207" transform="translate(5.68 44.443)">
                <path id="Trazado_1027618" data-name="Trazado 1027618" d="M5692.833,1066.765c.046-.281-1.4-.749-3.235-.927s-3.343,0-3.353.286,1.45.572,3.252.749S5692.787,1067.05,5692.833,1066.765Z" transform="translate(-5686.245 -1065.766)" fill="#004a54"/>
              </g>
              <g id="Grupo_1174208" data-name="Grupo 1174208">
                <path id="Trazado_1027619" data-name="Trazado 1027619" d="M5654.1,701.082c.1-.284-3.538-1.8-7.8-4.1-4.27-2.283-7.543-4.483-7.723-4.24-.082.112.635.811,1.919,1.785.321.243.677.5,1.067.773s.811.551,1.256.842c.9.573,1.906,1.173,2.988,1.757s2.141,1.09,3.114,1.523c.489.212.954.412,1.4.584s.853.329,1.233.463C5653.071,701,5654.051,701.212,5654.1,701.082Z" transform="translate(-5638.572 -692.721)" fill="#004a54"/>
              </g>
            </g>
            <g id="Grupo_1174210" data-name="Grupo 1174210" transform="translate(139.509 48.549)">
              <path id="Trazado_1027620" data-name="Trazado 1027620" d="M6809.757,1154.947a8.69,8.69,0,0,0,.25-2.149c.09-1.385.2-3.39.322-5.866.062-1.238.131-2.594.2-4.05q.055-1.092.114-2.256t.13-2.391c.179-3.272.392-6.869.639-10.643.5-7.548,1.019-14.381,1.335-19.333.161-2.476.273-4.481.328-5.868a1.087,1.087,0,1,0-.4-.034c-.179,1.377-.4,3.373-.658,5.841-.5,4.937-1.14,11.764-1.64,19.326-.248,3.78-.432,7.386-.559,10.666q-.043,1.23-.085,2.4t-.062,2.261c-.042,1.459-.058,2.819-.078,4.06-.027,2.482-.025,4.492.009,5.88A8.646,8.646,0,0,0,6809.757,1154.947Z" transform="translate(-6809.575 -1100.227)" fill="#004a54"/>
            </g>
            <g id="Grupo_1174211" data-name="Grupo 1174211" transform="translate(51.329 48.531)">
              <path id="Trazado_1027621" data-name="Trazado 1027621" d="M6072.116,1151.034a7.508,7.508,0,0,0,.082-2.013c-.016-1.292-.069-3.16-.153-5.467-.169-4.614-.452-10.984-.8-18.019s-.7-13.4-1.007-18.01c-.153-2.3-.294-4.167-.416-5.454a1.013,1.013,0,1,0-.4.019c0,1.292.025,3.161.084,5.469.118,4.616.355,10.99.7,18.028s.747,13.4,1.1,18.009c.178,2.3.343,4.164.483,5.449A7.592,7.592,0,0,0,6072.116,1151.034Z" transform="translate(-6069.418 -1100.077)" fill="#004a54"/>
            </g>
          </g>
        </g>
        <g id="Grupo_1174214" data-name="Grupo 1174214" transform="translate(87.526 187.281)">
          <path id="Trazado_1027622" data-name="Trazado 1027622" d="M5969.742,2000.1a20.384,20.384,0,0,0,.9-3.691c.248-1.2.539-2.661.863-4.365s.692-3.644,1.079-5.792c.783-4.295,1.675-9.416,2.626-15.109s1.952-11.961,2.958-18.546,1.911-12.867,2.7-18.585,1.462-10.873,2-15.206c.27-2.166.5-4.128.7-5.85s.357-3.208.477-4.424a1.9,1.9,0,1,0-.527-.07c-.2,1.2-.436,2.679-.707,4.392s-.564,3.664-.9,5.821c-1.3,8.63-3.1,20.55-5.091,33.717l-5.187,33.7c-.325,2.157-.621,4.109-.878,5.824s-.468,3.193-.635,4.4A20.2,20.2,0,0,0,5969.742,2000.1Z" transform="translate(-5969.714 -1904.742)" fill="#43438c"/>
        </g>
        <g id="Grupo_1174215" data-name="Grupo 1174215" transform="translate(104.872 168.518)">
          <path id="Trazado_1027623" data-name="Trazado 1027623" d="M6197.1,1747.305a14.689,14.689,0,0,0-3.228.077c-1.033.077-2.3.148-3.766.246l-2.351.158-2.636.156c-7.389.453-17.609.894-28.9,1l-4.182.029-4.061-.013c-1.332,0-2.639-.022-3.92-.037l-1.9-.024-.934-.011-.923-.022-3.574-.082-.863-.019-.849-.03-1.659-.056c-1.087-.039-2.138-.065-3.147-.107l-2.9-.129c-1.851-.067-3.521-.172-4.99-.245l-2.048-.1-1.721-.1a14.684,14.684,0,0,0-3.229-.034,14.651,14.651,0,0,0,3.181.563l1.714.22,2.043.211c1.467.146,3.138.318,4.989.447l2.905.217c1.011.07,2.063.122,3.153.186l1.662.092.851.046.865.035,3.584.14.925.035.937.023,1.905.045c1.284.029,2.6.066,3.931.071l4.073.033,4.194-.022c11.329-.108,21.575-.7,28.964-1.4l2.636-.253c.832-.085,1.614-.18,2.347-.263,1.465-.171,2.726-.32,3.752-.478A14.592,14.592,0,0,0,6197.1,1747.305Z" transform="translate(-6115.316 -1747.252)" fill="#43438c"/>
        </g>
        <g id="Grupo_1174216" data-name="Grupo 1174216" transform="translate(166.521 32.469)">
          <path id="Trazado_1027624" data-name="Trazado 1027624" d="M6657.739,651.4c.045-.006.061-.2.049-.561-.006-.182-.016-.406-.05-.669-.016-.132-.033-.273-.052-.425-.01-.076-.02-.154-.03-.235s-.029-.163-.043-.247c-.061-.339-.126-.718-.229-1.126-.051-.2-.092-.42-.159-.639s-.127-.448-.195-.684a22.335,22.335,0,0,0-3.332-6.59l-.162-.224-.172-.219c-.115-.146-.231-.294-.349-.443s-.246-.29-.37-.438-.25-.3-.383-.439c-.271-.283-.534-.581-.823-.861s-.58-.562-.883-.837c-1.209-1.105-2.545-2.152-3.837-3.294-.325-.284-.641-.579-.956-.882s-.623-.616-.936-.93c-.608-.645-1.214-1.31-1.784-2.021a39.666,39.666,0,0,1-5.333-8.785,58.842,58.842,0,0,1-2.878-7.961c-.664-2.326-1.1-4.241-1.414-5.565a7.279,7.279,0,0,0-.587-2.044,6.365,6.365,0,0,0,.089,2.132,52.332,52.332,0,0,0,1.023,5.709,50.361,50.361,0,0,0,2.669,8.209,38.046,38.046,0,0,0,5.421,9.125c.593.739,1.226,1.431,1.862,2.1.328.325.646.656.982.963s.663.618,1,.908c1.346,1.165,2.689,2.186,3.879,3.23a23.131,23.131,0,0,1,5.224,6.469,25.16,25.16,0,0,1,1.361,2.926q.123.335.24.647c.081.207.138.412.205.605.135.387.235.747.332,1.07.024.081.047.159.071.236s.04.152.058.224c.04.145.076.28.109.406.074.251.124.466.171.639C6657.624,651.224,6657.7,651.4,6657.739,651.4Z" transform="translate(-6632.779 -605.28)" fill="#613c49"/>
        </g>
        <g id="Grupo_1174217" data-name="Grupo 1174217" transform="translate(100.835 30.929)">
          <path id="Trazado_1027625" data-name="Trazado 1027625" d="M6096.4,592.358c-.045,0-.09.2-.134.569s-.087.923-.14,1.63c-.106,1.414-.231,3.459-.521,5.963a51.1,51.1,0,0,1-1.71,8.637,36.537,36.537,0,0,1-1.823,4.835,55.71,55.71,0,0,1-2.654,4.912c-.984,1.654-1.991,3.255-2.926,4.834s-1.8,3.14-2.523,4.683a30.329,30.329,0,0,0-1.73,4.529,20.959,20.959,0,0,0-.757,4.176,14.8,14.8,0,0,0,.133,3.508,10.459,10.459,0,0,0,.744,2.548,6.9,6.9,0,0,0,.848,1.441c.238.3.393.431.427.406s-.044-.21-.2-.544a11.14,11.14,0,0,1-1.095-3.946,15.378,15.378,0,0,1,.062-3.327,21.551,21.551,0,0,1,.874-3.951,31.582,31.582,0,0,1,1.777-4.321c.729-1.484,1.594-3,2.537-4.549s1.954-3.15,2.951-4.824a51.933,51.933,0,0,0,2.693-5.045,35.341,35.341,0,0,0,1.817-5.035,45.419,45.419,0,0,0,1.475-8.882,58.612,58.612,0,0,0,.112-6.04c-.025-.712-.063-1.264-.1-1.638S6096.439,592.358,6096.4,592.358Z" transform="translate(-6081.431 -592.358)" fill="#613c49"/>
        </g>
        <g id="Grupo_1174218" data-name="Grupo 1174218" transform="translate(126.439 10.753)">
          <path id="Trazado_1027626" data-name="Trazado 1027626" d="M6296.34,437.455c0,.087.353.18,1,.245a16.544,16.544,0,0,0,2.768.006c.585-.04,1.224-.123,1.909-.236l.519-.1.267-.053.268-.065.548-.135.558-.164a15.234,15.234,0,0,0,4.589-2.282,12.234,12.234,0,0,0,3.392-3.9,10.627,10.627,0,0,0,1.287-4.011,7.719,7.719,0,0,0-.2-2.82c-.181-.643-.377-.961-.457-.938s-.063.387-.043,1.015a10.861,10.861,0,0,1-.213,2.605,11.239,11.239,0,0,1-1.416,3.552,12.263,12.263,0,0,1-3.129,3.452,16.086,16.086,0,0,1-4.188,2.187l-.515.178-.509.154-.249.076-.249.066-.485.13c-.641.152-1.244.283-1.8.378-1.112.2-2.028.311-2.664.4S6296.34,437.362,6296.34,437.455Z" transform="translate(-6296.34 -423.001)" fill="#613c49"/>
        </g>
        <g id="Grupo_1174230" data-name="Grupo 1174230" transform="translate(99.994 74.678)">
          <g id="Grupo_1174229" data-name="Grupo 1174229" clip-path="url(#clip-path-2)">
            <g id="Grupo_1174220" data-name="Grupo 1174220" transform="translate(-16.443 29.502)">
              <path id="Trazado_1027627" data-name="Trazado 1027627" d="M5936.35,1216.035c29.924-2.15,82.6-2.8,112.441.322Z" transform="translate(-5936.35 -1213.381)" fill="#fff"/>
              <g id="Grupo_1174219" data-name="Grupo 1174219">
                <path id="Trazado_1027628" data-name="Trazado 1027628" d="M6048.791,1210.182a22.48,22.48,0,0,0-4.375-.732c-1.415-.2-3.151-.351-5.167-.546l-1.565-.146c-.539-.05-1.095-.1-1.667-.142l-3.627-.262c-2.542-.2-5.331-.324-8.325-.486l-1.132-.059-1.151-.046-2.358-.091-2.427-.092c-.821-.032-1.652-.063-2.495-.082l-5.173-.131-1.33-.032-1.343-.02-2.725-.038c-3.667-.064-7.462-.059-11.35-.071-3.888.027-7.685.038-11.35.112l-2.725.047-1.343.024-1.329.034-5.172.138c-.842.021-1.674.051-2.494.081l-2.427.088c-1.595.062-3.143.109-4.64.185-2.993.144-5.78.266-8.324.429l-3.628.224c-1.146.072-2.225.161-3.234.235-2.019.157-3.757.29-5.175.441a22.507,22.507,0,0,0-4.392.615,22.53,22.53,0,0,0,4.433.036l5.185-.157c1.011-.031,2.09-.076,3.236-.107l3.628-.1c2.542-.088,5.329-.141,8.319-.225,1.495-.046,3.042-.065,4.635-.1l2.424-.051c.819-.018,1.649-.037,2.49-.047l5.165-.081,1.327-.022,1.341-.013,2.72-.028c3.66-.052,7.449-.051,11.331-.078,3.881.012,7.671-.005,11.331.037l2.72.02,1.34.009,1.327.021,5.164.074c.841.008,1.67.028,2.489.048l2.423.055,2.354.051,1.149.025,1.13.036c2.988.1,5.774.16,8.314.281l3.625.143c.573.018,1.128.05,1.667.078l1.565.08c2.017.106,3.758.165,5.177.261A22.419,22.419,0,0,0,6048.791,1210.182Z" transform="translate(-5936.349 -1207.207)" fill="#fff"/>
              </g>
            </g>
            <g id="Grupo_1174222" data-name="Grupo 1174222" transform="translate(-9.487 43.587)">
              <path id="Trazado_1027629" data-name="Trazado 1027629" d="M5994.74,1331.842c27.653-2.912,55.579.323,83.365-.714,12.59-.47,25.316-1.808,37.7.5Z" transform="translate(-5994.74 -1329.733)" fill="#fff"/>
              <g id="Grupo_1174221" data-name="Grupo 1174221">
                <path id="Trazado_1027630" data-name="Trazado 1027630" d="M6115.806,1327.332a3.52,3.52,0,0,0-1.186-.37l-.663-.152-.384-.085c-.134-.028-.274-.051-.42-.078-.583-.1-1.257-.222-2.018-.346-.763-.1-1.612-.222-2.543-.327l-1.459-.143c-.253-.023-.511-.053-.775-.071l-.8-.056c-2.184-.168-4.675-.25-7.428-.262s-5.765.058-8.991.18-6.667.287-10.282.411c-.9.037-1.819.048-2.745.072l-2.807.066c-.946.021-1.9.019-2.869.03l-2.925.023-2.979-.012c-1-.005-2.011,0-3.028-.02-2.035-.03-4.1-.045-6.188-.092-8.357-.157-16.328-.393-23.586-.476s-13.8-.019-19.292.219l-2.009.082-1.906.114-3.489.223-3.031.272-1.335.125c-.424.04-.828.078-1.209.129a26.051,26.051,0,0,0-4.716.76,26.129,26.129,0,0,0,4.77-.111l5.574-.242,3.481-.094,1.9-.053,2-.023c5.473-.086,11.991-.036,19.232.14s15.207.449,23.583.607c2.093.047,4.164.06,6.2.084,1.02.015,2.034.008,3.039.009l2.99,0,2.939-.042c.97-.018,1.931-.023,2.882-.053l2.822-.093c.93-.034,1.85-.055,2.757-.1,3.631-.167,7.07-.387,10.285-.566s6.206-.32,8.938-.383,5.2-.064,7.368.013l.8.022c.262.007.518.025.77.036l1.451.073c.927.057,1.772.13,2.536.179l2.022.191c.147.014.288.023.423.039l.388.045.672.072A3.556,3.556,0,0,0,6115.806,1327.332Z" transform="translate(-5994.738 -1325.439)" fill="#fff"/>
              </g>
            </g>
            <g id="Grupo_1174224" data-name="Grupo 1174224" transform="translate(-12.686 56.089)">
              <path id="Trazado_1027631" data-name="Trazado 1027631" d="M5967.9,1439.45c37.773-3.032,75.662-2.244,113.557-2.368Z" transform="translate(-5967.898 -1436.277)" fill="#fff"/>
              <g id="Grupo_1174223" data-name="Grupo 1174223">
                <path id="Trazado_1027632" data-name="Trazado 1027632" d="M6081.446,1431.181a22.945,22.945,0,0,0-4.465-.317c-2.875-.092-7.033-.185-12.173-.265-10.279-.156-24.482-.312-40.178-.162-7.848.084-15.324.259-22.122.5l-4.966.2c-1.61.06-3.172.152-4.683.227s-2.969.15-4.371.238l-4.029.262c-2.567.159-4.887.362-6.923.53-1.018.087-1.966.165-2.837.249l-2.381.25a22.932,22.932,0,0,0-4.429.655,22.96,22.96,0,0,0,4.475-.005l2.389-.1,2.843-.111c2.04-.079,4.359-.2,6.926-.282l4.028-.154c1.4-.054,2.858-.09,4.367-.141s3.069-.109,4.677-.143l4.959-.13c6.79-.156,14.254-.284,22.093-.368,15.676-.15,29.878-.181,40.159-.328,5.14-.072,9.3-.159,12.175-.267A22.908,22.908,0,0,0,6081.446,1431.181Z" transform="translate(-5967.89 -1430.377)" fill="#fff"/>
              </g>
            </g>
            <g id="Grupo_1174226" data-name="Grupo 1174226" transform="translate(-4.867 68.845)">
              <path id="Trazado_1027633" data-name="Trazado 1027633" d="M6033.52,1541.2c34.31-1.053,68.89.824,102.976-3.227Z" transform="translate(-6033.519 -1537.912)" fill="#fff"/>
              <g id="Grupo_1174225" data-name="Grupo 1174225">
                <path id="Trazado_1027634" data-name="Trazado 1027634" d="M6136.492,1537.506a18.977,18.977,0,0,0-4.061.112l-2.163.16-2.575.162c-1.847.114-3.946.281-6.272.391l-3.649.2c-.634.041-1.283.06-1.942.09l-2.016.087-2.086.093-1.068.046-1.085.035-4.5.151c-6.155.174-12.925.3-20.036.369l-20.056.158c-3.083.031-6.013.064-8.756.113l-3.969.074-3.661.092c-2.333.056-4.442.142-6.294.216-.926.039-1.788.074-2.581.115l-2.169.129a18.917,18.917,0,0,0-4.041.43,18.966,18.966,0,0,0,4.057.222l4.751.041,6.291.031,16.377.08c6.165.025,12.946.038,20.067-.026s13.907-.242,20.076-.5l4.506-.222,1.087-.055c.359-.019.717-.045,1.071-.067l2.09-.137,2.02-.134c.661-.047,1.31-.082,1.945-.14l3.653-.312c2.328-.185,4.427-.437,6.271-.639.922-.106,1.78-.2,2.568-.3l2.153-.307A18.756,18.756,0,0,0,6136.492,1537.506Z" transform="translate(-6033.517 -1537.444)" fill="#fff"/>
              </g>
            </g>
            <g id="Grupo_1174228" data-name="Grupo 1174228" transform="translate(-3.172 83.645)">
              <path id="Trazado_1027635" data-name="Trazado 1027635" d="M6047.75,1664.832q50.655.567,101.281-2Z" transform="translate(-6047.75 -1662.69)" fill="#fff"/>
              <g id="Grupo_1174227" data-name="Grupo 1174227">
                <path id="Trazado_1027636" data-name="Trazado 1027636" d="M6149.027,1661.808a18.306,18.306,0,0,0-3.992-.131c-1.282.014-2.85.042-4.67.077l-6.184.146-16.091.414c-6.056.147-12.714.3-19.7.444s-13.648.243-19.706.336l-16.095.223-6.184.1c-1.82.037-3.389.071-4.67.108a18.346,18.346,0,0,0-3.984.289,18.338,18.338,0,0,0,3.979.363c1.282.063,2.85.124,4.67.176s3.895.111,6.188.149l3.6.059,3.9.041c2.7.028,5.577.032,8.609.035,6.063-.008,12.73-.068,19.728-.2s13.66-.344,19.719-.576c3.029-.122,5.908-.241,8.6-.376l3.9-.2,3.594-.2c2.289-.128,4.358-.268,6.176-.394s3.382-.247,4.66-.361A18.314,18.314,0,0,0,6149.027,1661.808Z" transform="translate(-6047.747 -1661.67)" fill="#fff"/>
              </g>
            </g>
          </g>
        </g>
      </g>
    </g>
    <g id="Grupo_1174232" data-name="Grupo 1174232" transform="translate(265.701 -519)">
      <path id="Trazado_1027586-2" data-name="Trazado 1027586" d="M6815,1831.67a71.591,71.591,0,0,0-9.984,8.762c-2.848,3.228-6.022,8.023-5.14,12.548a10.383,10.383,0,0,0,1.222,3.025,46.048,46.048,0,0,0,2.713,4.189c1.149,1.618,2.423,3.279,4.25,4.053a6.175,6.175,0,0,0,6.6-1.4,4.285,4.285,0,0,0,1.373-3.553c-.274-1.735-.907-2.308.584-3.368,1.417-1.008,2.746-2.133,4.186-3.115.717-.489,7.72-5.095,8.159-4.573Z" transform="translate(-5848.018 3979.554)" fill="#ffa882"/>
      <g id="Grupo_1174181-2" data-name="Grupo 1174181" transform="translate(953.05 5827.392)">
        <path id="Trazado_1027587-2" data-name="Trazado 1027587" d="M6813.665,1967.4c-.079-.052-.215,0-.4.158a3.563,3.563,0,0,0-.609.758,12.572,12.572,0,0,0-1.669,5.9,3.572,3.572,0,0,0,.123.965c.078.231.167.348.261.345s.186-.124.271-.324a8.179,8.179,0,0,0,.3-.85c.224-.717.52-1.714.828-2.82s.586-2.107.771-2.836a8.183,8.183,0,0,0,.187-.883C6813.758,1967.6,6813.744,1967.45,6813.665,1967.4Z" transform="translate(-6810.984 -1967.38)" fill="#d68376"/>
      </g>
      <g id="Grupo_1174182-2" data-name="Grupo 1174182" transform="translate(955.064 5831.51)">
        <path id="Trazado_1027588-2" data-name="Trazado 1027588" d="M6831.146,2001.966c-.147-.11-.578.167-1.1.772a6.432,6.432,0,0,0-.4.514c-.138.189-.269.4-.405.626a10.163,10.163,0,0,0-1.2,3.188c-.046.259-.088.505-.109.738a6.294,6.294,0,0,0-.04.649c-.01.8.131,1.29.314,1.305s.392-.435.637-1.142c.12-.354.26-.771.415-1.232s.333-.96.527-1.481.4-1.011.583-1.461l.5-1.2C6831.153,2002.552,6831.3,2002.08,6831.146,2001.966Z" transform="translate(-6827.892 -2001.942)" fill="#d68376"/>
      </g>
      <g id="Grupo_1174183-2" data-name="Grupo 1174183" transform="translate(958.276 5834.771)">
        <path id="Trazado_1027589-2" data-name="Trazado 1027589" d="M6857.862,2029.341c-.157-.1-.565.219-1.048.865a8.839,8.839,0,0,0-.741,1.2,11.433,11.433,0,0,0-1.095,3.264,8.9,8.9,0,0,0-.132,1.4c0,.807.131,1.306.314,1.322s.4-.442.639-1.166c.12-.363.256-.792.4-1.266s.315-.991.495-1.533.364-1.052.529-1.52.319-.892.442-1.254C6857.912,2029.932,6858.025,2029.442,6857.862,2029.341Z" transform="translate(-6854.846 -2029.323)" fill="#d68376"/>
      </g>
      <g id="Grupo_1174184-2" data-name="Grupo 1174184" transform="translate(962.895 5836.309)">
        <path id="Trazado_1027590-2" data-name="Trazado 1027590" d="M6893.715,2046.314c.159.1.491-.1.9-.493s.906-.952,1.468-1.483a8.891,8.891,0,0,1,1.55-1.172c.433-.264.762-.423.758-.618,0-.093-.1-.182-.274-.245a1.8,1.8,0,0,0-.769-.06,3.329,3.329,0,0,0-1.082.323,4.544,4.544,0,0,0-1.12.778,5.625,5.625,0,0,0-.843,1.012,5.5,5.5,0,0,0-.488.922C6893.6,2045.825,6893.56,2046.21,6893.715,2046.314Z" transform="translate(-6893.622 -2042.228)" fill="#d68376"/>
      </g>
    </g>
  </g>
</svg>
