<svg xmlns="http://www.w3.org/2000/svg" xmlns:xlink="http://www.w3.org/1999/xlink" width="113" height="113" viewBox="0 0 113 113">
  <defs>
    <filter id="Trazado_982547" x="0" y="0" width="113" height="113" filterUnits="userSpaceOnUse">
      <feOffset dy="3" input="SourceAlpha"/>
      <feGaussianBlur stdDeviation="3" result="blur"/>
      <feFlood flood-opacity="0.161"/>
      <feComposite operator="in" in2="blur"/>
      <feComposite in="SourceGraphic"/>
    </filter>
  </defs>
  <g id="Grupo_1174258" data-name="Grupo 1174258" transform="translate(-1217 -1879)">
    <g id="Grupo_1173588" data-name="Grupo 1173588" transform="translate(0.5 -319.679)">
      <g id="Grupo_1168708" data-name="Grupo 1168708" transform="translate(945.5 -836.474)">
        <g id="Grupo_1162113" data-name="Grupo 1162113" transform="translate(280 3041.154)">
          <g id="Grupo_1152576" data-name="Grupo 1152576" transform="translate(0)">
            <g id="Grupo_1148633" data-name="Grupo 1148633">
              <g id="Grupo_1148525" data-name="Grupo 1148525">
                <g transform="matrix(1, 0, 0, 1, -9, -6)" filter="url(#Trazado_982547)">
                  <g id="Trazado_982547-2" data-name="Trazado 982547" transform="translate(9 6)" fill="#e8edf7">
                    <path d="M 47.5 93.5 C 41.28937149047852 93.5 35.26533508300781 92.28397369384766 29.59518623352051 89.88570404052734 C 24.11771965026855 87.56893157958984 19.19813346862793 84.25196075439453 14.97309303283691 80.02691650390625 C 10.74804019927979 75.80186462402344 7.431066513061523 70.88229370117188 5.114293098449707 65.40481567382812 C 2.716026782989502 59.73468017578125 1.5 53.71062850952148 1.5 47.5 C 1.5 41.28937149047852 2.716026782989502 35.26533508300781 5.114293098449707 29.59518623352051 C 7.431066513061523 24.11771965026855 10.74804019927979 19.19813346862793 14.97309303283691 14.97309303283691 C 19.19813346862793 10.74804019927979 24.11771965026855 7.431066513061523 29.59518623352051 5.114293098449707 C 35.26533508300781 2.716026782989502 41.28937149047852 1.5 47.5 1.5 C 53.71062850952148 1.5 59.73468017578125 2.716026782989502 65.40481567382812 5.114293098449707 C 70.88229370117188 7.431066513061523 75.80186462402344 10.74804019927979 80.02691650390625 14.97309303283691 C 84.25196075439453 19.19813346862793 87.56893157958984 24.11771965026855 89.88570404052734 29.59518623352051 C 92.28397369384766 35.26533508300781 93.5 41.28937149047852 93.5 47.5 C 93.5 53.71062850952148 92.28397369384766 59.73468017578125 89.88570404052734 65.40481567382812 C 87.56893157958984 70.88229370117188 84.25196075439453 75.80186462402344 80.02691650390625 80.02691650390625 C 75.80186462402344 84.25196075439453 70.88229370117188 87.56893157958984 65.40481567382812 89.88570404052734 C 59.73468017578125 92.28397369384766 53.71062850952148 93.5 47.5 93.5 Z" stroke="none"/>
                    <path d="M 47.5 3 C 41.49121475219727 3 35.66376876831055 4.176155090332031 30.17950439453125 6.495796203613281 C 24.88084411621094 8.736953735351562 20.12152099609375 11.94598388671875 16.03375244140625 16.03375244140625 C 11.94598388671875 20.12152099609375 8.736953735351562 24.88084411621094 6.495796203613281 30.17950439453125 C 4.176155090332031 35.66376876831055 3 41.49121475219727 3 47.5 C 3 53.50878524780273 4.176155090332031 59.33623123168945 6.495796203613281 64.82049560546875 C 8.736953735351562 70.11915588378906 11.94598388671875 74.87847900390625 16.03375244140625 78.96624755859375 C 20.12152099609375 83.05401611328125 24.88084411621094 86.26304626464844 30.17950439453125 88.50419616699219 C 35.66376876831055 90.82384490966797 41.49121475219727 92 47.5 92 C 53.50878524780273 92 59.33623123168945 90.82384490966797 64.82049560546875 88.50419616699219 C 70.11915588378906 86.26304626464844 74.87847900390625 83.05401611328125 78.96624755859375 78.96624755859375 C 83.05401611328125 74.87847900390625 86.26304626464844 70.11915588378906 88.50419616699219 64.82049560546875 C 90.82384490966797 59.33623123168945 92 53.50878524780273 92 47.5 C 92 41.49121475219727 90.82384490966797 35.66376876831055 88.50419616699219 30.17950439453125 C 86.26304626464844 24.88084411621094 83.05401611328125 20.12152099609375 78.96624755859375 16.03375244140625 C 74.87847900390625 11.94598388671875 70.11915588378906 8.736953735351562 64.82049560546875 6.495796203613281 C 59.33623123168945 4.176155090332031 53.50878524780273 3 47.5 3 M 47.5 0 C 73.7335205078125 0 95 21.2664794921875 95 47.5 C 95 73.7335205078125 73.7335205078125 95 47.5 95 C 21.2664794921875 95 0 73.7335205078125 0 47.5 C 0 21.2664794921875 21.2664794921875 0 47.5 0 Z" stroke="none" fill="#2e5bb6"/>
                  </g>
                </g>
              </g>
            </g>
          </g>
        </g>
      </g>
    </g>
    <g id="budgeting" transform="translate(1232.483 1904)">
      <path id="Trazado_1027713" data-name="Trazado 1027713" d="M21.5,6.99H49.523L58.83,16.3V56.187H21.5Z" transform="translate(-6.222 -6.223)" fill="#d5e3f2" fill-rule="evenodd"/>
      <path id="Trazado_1027714" data-name="Trazado 1027714" d="M276.82,6.99l9.307,9.311H276.82Z" transform="translate(-233.519 -6.223)" fill="#b7cfe8" fill-rule="evenodd"/>
      <path id="Trazado_1027715" data-name="Trazado 1027715" d="M235.657,144.556h23.962a2.125,2.125,0,0,1,2.118,2.118V178.55a2.123,2.123,0,0,1-2.118,2.118H235.657a2.125,2.125,0,0,1-2.118-2.118V146.674a2.127,2.127,0,0,1,2.118-2.118Z" transform="translate(-194.988 -128.692)" fill="#4d6c8f" fill-rule="evenodd"/>
      <path id="Trazado_1027716" data-name="Trazado 1027716" d="M270.669,181.179h20.049v5.167H270.669Z" transform="translate(-228.043 -161.296)" fill="#69a7ff"/>
      <g id="Grupo_1174257" data-name="Grupo 1174257" transform="translate(42.626 28.363)">
        <path id="Trazado_1027717" data-name="Trazado 1027717" d="M340.883,258.452h4.641v4.828h-4.641Z" transform="translate(-333.178 -258.452)" fill="#d5e3f2"/>
        <path id="Trazado_1027718" data-name="Trazado 1027718" d="M411.069,258.452h4.641v4.828h-4.641Z" transform="translate(-395.661 -258.452)" fill="#d5e3f2"/>
        <path id="Trazado_1027719" data-name="Trazado 1027719" d="M270.669,258.452h4.641v4.828h-4.641Z" transform="translate(-270.669 -258.452)" fill="#d5e3f2"/>
        <path id="Trazado_1027720" data-name="Trazado 1027720" d="M340.883,330.2h4.641v4.828h-4.641Z" transform="translate(-333.178 -322.324)" fill="#d5e3f2"/>
        <path id="Trazado_1027721" data-name="Trazado 1027721" d="M270.669,330.2h4.641v4.828h-4.641Z" transform="translate(-270.669 -322.324)" fill="#d5e3f2"/>
        <path id="Trazado_1027722" data-name="Trazado 1027722" d="M340.883,401.913h4.641v4.828h-4.641Z" transform="translate(-333.178 -386.169)" fill="#d5e3f2"/>
      </g>
      <path id="Trazado_1027723" data-name="Trazado 1027723" d="M411.069,330.2h4.641v12.7h-4.641Z" transform="translate(-353.036 -293.961)" fill="#f59329"/>
      <path id="Trazado_1027724" data-name="Trazado 1027724" d="M270.669,401.913h4.641v4.828h-4.641Z" transform="translate(-228.043 -357.807)" fill="#d5e3f2"/>
      <path id="Trazado_1027725" data-name="Trazado 1027725" d="M69.168,306.1a12.26,12.26,0,1,0-12.259-12.26A12.283,12.283,0,0,0,69.168,306.1Z" transform="translate(-37.742 -250.682)" fill="#ffd23b" fill-rule="evenodd"/>
      <path id="Trazado_1027726" data-name="Trazado 1027726" d="M92.861,326.9a9.335,9.335,0,1,0-9.339-9.337A9.335,9.335,0,0,0,92.861,326.9Z" transform="translate(-61.434 -274.403)" fill="#f59329" fill-rule="evenodd"/>
      <path id="Trazado_1027727" data-name="Trazado 1027727" d="M21.5,6.99h1.559v49.2H21.5Z" transform="translate(-6.222 -6.223)" fill="#b7cfe8"/>
      <path id="Trazado_1027728" data-name="Trazado 1027728" d="M58.732,293.847a12.259,12.259,0,0,1,11.346-12.225c-.3-.022-.6-.034-.909-.034a12.26,12.26,0,1,0,0,24.519c.3,0,.61-.013.908-.034A12.255,12.255,0,0,1,58.732,293.847Z" transform="translate(-37.742 -250.686)" fill="#e8bd31" fill-rule="evenodd"/>
      <path id="Trazado_1027729" data-name="Trazado 1027729" d="M234.969,163.084V146.678a2.125,2.125,0,0,1,2.118-2.118h-1.438a2.127,2.127,0,0,0-2.118,2.118v15.2A12.063,12.063,0,0,1,234.969,163.084Zm.588,16.932c-.174.193-.351.379-.535.56a2.108,2.108,0,0,0,.628.1h1.438a2.111,2.111,0,0,1-1.53-.656Z" transform="translate(-194.981 -128.696)" fill="#3b5c82" fill-rule="evenodd"/>
      <path id="Trazado_1027730" data-name="Trazado 1027730" d="M171.2,313.18a9.337,9.337,0,0,1-7.684,13.7c.183.009.37.016.56.016a9.3,9.3,0,0,0,6.393-2.532,9.512,9.512,0,0,0,.731-.771,9.335,9.335,0,0,0-7.124-15.367c-.19,0-.376.006-.56.016A9.339,9.339,0,0,1,171.2,313.18Z" transform="translate(-132.653 -274.403)" fill="#e68720" fill-rule="evenodd"/>
      <path id="Trazado_1027731" data-name="Trazado 1027731" d="M26.522,14.881a.768.768,0,0,1,.768-.768h8.56a.768.768,0,1,1,0,1.536H27.29A.768.768,0,0,1,26.522,14.881Zm.768,5.1h8.56a.768.768,0,0,0,0-1.536H27.29a.768.768,0,1,0,0,1.536Zm-5.334-6.488A1.754,1.754,0,1,1,20.3,15.833a.768.768,0,0,0-1.447.516,3.3,3.3,0,0,0,2.332,2.093v1.226a.768.768,0,1,0,1.536,0V18.442a3.291,3.291,0,0,0-.768-6.492,1.754,1.754,0,1,1,1.656-2.344.768.768,0,1,0,1.447-.518A3.3,3.3,0,0,0,22.724,7V5.768a.768.768,0,1,0-1.536,0V7a3.291,3.291,0,0,0,.768,6.492Zm5.335-2.165h8.56a.768.768,0,0,0,0-1.536H27.29a.768.768,0,1,0,0,1.536ZM27.29,7h8.56a.768.768,0,0,0,0-1.536H27.29A.768.768,0,1,0,27.29,7ZM19.433,24.3H35.851a.768.768,0,0,0,0-1.536H19.433a.768.768,0,0,0,0,1.536Zm0,4.327H35.851a.768.768,0,0,0,0-1.536H19.433a.768.768,0,0,0,0,1.536Zm44.009-8.747v5.164a.768.768,0,0,1-.768.768H42.625a.768.768,0,0,1-.768-.768V19.883a.768.768,0,0,1,.768-.768H62.673a.768.768,0,0,1,.768.768Zm-1.536.768H43.394v3.627H61.905ZM55.74,44.105v4.828a.768.768,0,0,1-.768.768H50.33a.768.768,0,0,1-.768-.768V44.105a.768.768,0,0,1,.768-.768h4.641a.768.768,0,0,1,.768.768Zm-1.536.768H51.1v3.292h3.1Zm9.239-8.641v12.7a.768.768,0,0,1-.768.768H58.032a.768.768,0,0,1-.768-.768v-12.7a.768.768,0,0,1,.768-.768h4.641a.768.768,0,0,1,.768.768ZM61.906,37H58.8V48.165h3.1Zm-6.165-.768v4.831a.768.768,0,0,1-.768.768H50.33a.768.768,0,0,1-.768-.768V36.232a.768.768,0,0,1,.768-.768h4.641a.768.768,0,0,1,.768.769ZM54.2,37H51.1v3.294h3.1Zm9.239-8.638V33.19a.768.768,0,0,1-.768.768H58.032a.768.768,0,0,1-.768-.768V28.363a.768.768,0,0,1,.768-.768h4.641a.768.768,0,0,1,.768.768Zm-1.536.768H58.8v3.291h3.1Zm5.612-11.149V49.857a2.89,2.89,0,0,1-2.887,2.887H40.239a13.007,13.007,0,0,1-19.407-2.013H15.283a.768.768,0,0,1-.768-.768V.768A.768.768,0,0,1,15.283,0H43.3a.768.768,0,0,1,.543.225L53.15,9.532a.768.768,0,0,1,.225.543V15.1H64.63a2.89,2.89,0,0,1,2.887,2.887ZM44.069,9.307h6.684L44.069,2.624ZM19.885,49.195a13.022,13.022,0,0,1,17.9-17.4V17.983A2.89,2.89,0,0,1,40.668,15.1H51.839V10.844H43.3a.768.768,0,0,1-.768-.768V1.536H16.052V49.195Zm11.542,5.456a11.444,11.444,0,0,0,7.857-3.117.773.773,0,0,1,.21-.2,11.483,11.483,0,1,0-8.067,3.32Zm12.024-6.486H46.5V44.874h-2.16A12.922,12.922,0,0,1,43.451,48.165Zm.682-7.87H46.5V37h-3.1V38.02a12.922,12.922,0,0,1,.74,2.275ZM65.98,17.983a1.352,1.352,0,0,0-1.35-1.35H40.669a1.352,1.352,0,0,0-1.35,1.35V32.8a13.133,13.133,0,0,1,2.769,2.88.765.765,0,0,1,.538-.22h4.641a.768.768,0,0,1,.768.768v4.831a.768.768,0,0,1-.768.768H44.385a13.116,13.116,0,0,1,.067,1.328c0,.059,0,.118,0,.177h2.817a.768.768,0,0,1,.768.768v4.829a.768.768,0,0,1-.768.768H42.686a13.078,13.078,0,0,1-1.024,1.505H64.63a1.352,1.352,0,0,0,1.35-1.35ZM48.035,28.363V33.19a.768.768,0,0,1-.768.768H42.625a.768.768,0,0,1-.768-.768V28.363a.768.768,0,0,1,.768-.768h4.641a.768.768,0,0,1,.768.768Zm-1.536.768h-3.1v3.291h3.1Zm9.242-.768V33.19a.768.768,0,0,1-.768.768H50.33a.768.768,0,0,1-.768-.768V28.363a.768.768,0,0,1,.768-.768h4.641a.768.768,0,0,1,.768.768Zm-1.536.768H51.1v3.291h3.1ZM31.428,53.263a10.1,10.1,0,1,1,10.1-10.1,10.1,10.1,0,0,1-10.1,10.1Zm8.567-10.1a8.568,8.568,0,1,0-8.567,8.566,8.569,8.569,0,0,0,8.567-8.566Zm-8.57-.768A1.638,1.638,0,1,1,32.968,40.2a.768.768,0,1,0,1.449-.513,3.174,3.174,0,0,0-2.224-2.013V36.528a.768.768,0,1,0-1.536,0v1.146a3.175,3.175,0,0,0,.768,6.255,1.638,1.638,0,1,1-1.541,2.189.768.768,0,1,0-1.447.518,3.184,3.184,0,0,0,2.22,2.01v1.146a.768.768,0,0,0,1.536,0V48.647a3.174,3.174,0,0,0-.768-6.255Z" transform="translate(0)"/>
    </g>
  </g>
</svg>
