<svg xmlns="http://www.w3.org/2000/svg" xmlns:xlink="http://www.w3.org/1999/xlink" width="400" height="184" viewBox="0 0 400 184">
  <defs>
    <clipPath id="clip-path">
      <rect id="Rectángulo_415501" data-name="Rectángulo 415501" width="400" height="184" transform="translate(600 5507)" fill="#fff" stroke="#707070" stroke-width="1" opacity="0.76"/>
    </clipPath>
  </defs>
  <g id="Enmascarar_grupo_1098816" data-name="Enmascarar grupo 1098816" transform="translate(-600 -5507)" clip-path="url(#clip-path)">
    <g id="Grupo_1178955" data-name="Grupo 1178955">
      <g id="Grupo_1173783" data-name="Grupo 1173783" transform="translate(202.652 5465.123)">
        <g id="Grupo_1173779" data-name="Grupo 1173779" transform="translate(557.196 49.795)">
          <g id="Grupo_1173771" data-name="Grupo 1173771">
            <path id="Trazado_1026905" data-name="Trazado 1026905" d="M600.81,53.923S584.979,43.369,573,56.968s-4.059,26.994-9.336,47.494-3.653,37.345,18.673,38.563,33.692-21.311,29.633-39.375S600.81,53.923,600.81,53.923Z" transform="translate(-559.794 -49.825)" fill="#76413b"/>
            <g id="Grupo_1173766" data-name="Grupo 1173766" transform="translate(0 0.557)">
              <path id="Trazado_1026906" data-name="Trazado 1026906" d="M600.736,54.741s-.425-.291-1.272-.75a27.752,27.752,0,0,0-3.8-1.7,25.075,25.075,0,0,0-6.28-1.43,19.419,19.419,0,0,0-8.2,1.01,20.33,20.33,0,0,0-8,5.541,27.927,27.927,0,0,0-5.611,9.344,39.329,39.329,0,0,0-1.865,11.577c-.148,4.028-.1,8.148-.349,12.269a68.17,68.17,0,0,1-1.812,12.183c-.462,1.988-1.029,3.9-1.48,5.825s-.839,3.835-1.146,5.727a46.438,46.438,0,0,0-.587,10.987,21.381,21.381,0,0,0,2.826,9.326,16.761,16.761,0,0,0,5.965,5.667,24.442,24.442,0,0,0,6.007,2.308,36.128,36.128,0,0,0,4.1.723l1.468.159-1.472-.124a36.338,36.338,0,0,1-4.13-.626,24.651,24.651,0,0,1-6.118-2.185,16.617,16.617,0,0,1-6.21-5.681,21.9,21.9,0,0,1-3.029-9.514,44.663,44.663,0,0,1,.481-11.151c.3-1.913.681-3.845,1.131-5.784s1.01-3.881,1.455-5.836a67.569,67.569,0,0,0,1.739-12.055c.264-4.086.236-8.193.4-12.251a40.023,40.023,0,0,1,1.957-11.778,27.744,27.744,0,0,1,5.84-9.511,20.854,20.854,0,0,1,8.282-5.57,19.122,19.122,0,0,1,8.382-.871,25.21,25.21,0,0,1,6.3,1.592,27.826,27.826,0,0,1,3.769,1.8C600.318,54.439,600.736,54.741,600.736,54.741Z" transform="translate(-559.583 -50.439)" fill="#76413b"/>
            </g>
            <g id="Grupo_1173767" data-name="Grupo 1173767" transform="translate(6.106 44.692)">
              <path id="Trazado_1026907" data-name="Trazado 1026907" d="M655.663,160.762c-1.146-16.662-16.151-17.876-27.326-22.614s-6.9-36.736-6.9-36.736l-21.927,21.925c.98,5.677,1.923,14.005-.5,16.1-3.764,3.259-25.133,1.128-29.923,12.617-.858,2.059-1.677,4.294-2.452,6.567,34.07,8.371,53.726,8.33,88.732,6.6A20.833,20.833,0,0,0,655.663,160.762Z" transform="translate(-566.635 -101.411)" fill="#f19c7c"/>
            </g>
            <g id="Grupo_1173768" data-name="Grupo 1173768" transform="translate(38.981 47.539)" opacity="0.5">
              <path id="Trazado_1026908" data-name="Trazado 1026908" d="M605.051,138.32c6.226-2.323,11.969-6.38,14.9-12.212,3.344-6.648,3.689-14.1,3.729-21.409L604.6,123.776C605.419,128.5,606.2,135.04,605.051,138.32Z" transform="translate(-604.603 -104.699)" fill="#fc6a5a"/>
            </g>
            <path id="Trazado_1026909" data-name="Trazado 1026909" d="M593.956,59.589c13.958-1.727,27.472,3.289,31.315,16.384,0,0-1.376,9.134-1.617,13.509,1.563-4.007,6.057-4.98,5.038,4.491-1.142,10.61-5.7,9.5-6.9,8.889a31.139,31.139,0,0,1-6.716,12.068c-12.3,12.65-36.872,12.366-39.534-14.8S580.9,61.2,593.956,59.589Z" transform="translate(-561.656 -51.065)" fill="#f19c7c"/>
            <path id="Trazado_1026910" data-name="Trazado 1026910" d="M598.047,58.156s1.57,16.73,11.569,24.964c10.351,8.524,15.223,5.48,15.223,5.48s4.465-3.248,6.089.812-.115,13.6-6.045,12.18c0,0-5.321,28.819.971,32.472s8.728-2.436,19.688,1.827c0,0,21.311-6.495,10.757-28.212-5.568-11.459-15.122-18.469-16.44-34.1C638.436,56.735,617.937,38.874,598.047,58.156Z" transform="translate(-564.743 -49.795)" fill="#76413b"/>
            <g id="Grupo_1173769" data-name="Grupo 1173769" transform="translate(33.284 8.361)">
              <path id="Trazado_1026911" data-name="Trazado 1026911" d="M598.044,59.451s.032.7.152,1.928.355,2.966.735,5.032a47.776,47.776,0,0,0,1.841,6.918,33.049,33.049,0,0,0,1.527,3.721,28.074,28.074,0,0,0,2.058,3.589,22.169,22.169,0,0,0,2.583,3.211l.715.721.763.654a17.429,17.429,0,0,0,1.571,1.189c.526.378,1.1.654,1.629.991.552.29,1.111.538,1.645.8l1.63.6c.534.172,1.067.287,1.57.425a13.438,13.438,0,0,0,1.471.287,12.733,12.733,0,0,0,1.34.2c.849.058,1.591.168,2.205.155l1.934.018-1.934.14c-.617.053-1.367-.009-2.231-.012a13.3,13.3,0,0,1-1.371-.119,12.045,12.045,0,0,1-1.512-.227c-.52-.12-1.069-.216-1.624-.371l-1.7-.552c-.561-.247-1.15-.481-1.733-.759-.562-.318-1.156-.615-1.71-.994a18.121,18.121,0,0,1-1.648-1.212l-.8-.669-.752-.738a22.678,22.678,0,0,1-2.715-3.289,28.874,28.874,0,0,1-2.069-3.718,33.777,33.777,0,0,1-1.51-3.82,35.346,35.346,0,0,1-1.008-3.7c-.259-1.19-.465-2.321-.616-3.371a44.638,44.638,0,0,1-.443-5.1C598,60.155,598.044,59.451,598.044,59.451Z" transform="translate(-598.024 -59.451)" fill="#76413b"/>
            </g>
            <g id="Grupo_1173770" data-name="Grupo 1173770" transform="translate(56.044 51.796)">
              <path id="Trazado_1026912" data-name="Trazado 1026912" d="M640.539,142.292l-.52.124c-.339.083-.835.192-1.459.367l-2.249.629a21.093,21.093,0,0,1-2.986.713,7.47,7.47,0,0,1-3.724-.272,10.294,10.294,0,0,1-3.46-2.278,7.52,7.52,0,0,1-1.62-4.121,27.066,27.066,0,0,1-.195-4.466,70.684,70.684,0,0,1,.882-8.693c.438-2.752.956-5.3,1.43-7.473.948-4.351,1.767-7.2,1.767-7.2s-.7,2.883-1.548,7.248c-.42,2.183-.863,4.739-1.239,7.489a70.477,70.477,0,0,0-.74,8.644,26.571,26.571,0,0,0,.258,4.363,7,7,0,0,0,1.488,3.725,9.447,9.447,0,0,0,3.242,2.017,7.317,7.317,0,0,0,3.364.3c1.07-.143,2.063-.364,2.953-.529s1.666-.331,2.316-.4A17.475,17.475,0,0,1,640.539,142.292Z" transform="translate(-624.311 -109.616)" fill="#76413b"/>
            </g>
            <path id="Trazado_1026913" data-name="Trazado 1026913" d="M624.956,91.722a23.646,23.646,0,0,0,.609,10.351s.406-6.7,3.857-9.336S624.956,91.722,624.956,91.722Z" transform="translate(-568.311 -55.353)" fill="#76413b"/>
          </g>
          <g id="Grupo_1173778" data-name="Grupo 1173778" transform="translate(16.457 24.212)">
            <g id="Grupo_1173772" data-name="Grupo 1173772" transform="translate(19.53 12.831)">
              <path id="Trazado_1026914" data-name="Trazado 1026914" d="M601.473,92.577s.035.2.074.556a3.886,3.886,0,0,0,.087.625c.07.225.12.471.2.726l.184.383a1.23,1.23,0,0,0,.217.378l.269.36c.122.1.232.2.345.306.1.121.268.164.4.253a1.557,1.557,0,0,0,.441.195,3.558,3.558,0,0,0,.975.21l.513.008.51-.065a2.7,2.7,0,0,0,.5-.113,2.225,2.225,0,0,0,.478-.157c.151-.068.3-.142.45-.2s.272-.167.406-.246a4.982,4.982,0,0,0,.7-.539,5.413,5.413,0,0,0,.531-.563,2.919,2.919,0,0,0,.366-.494c.192-.289.317-.462.317-.462s-.024.2-.094.556a2.222,2.222,0,0,1-.186.633,3.648,3.648,0,0,1-.4.777,3.773,3.773,0,0,1-.675.8c-.141.124-.279.265-.438.384s-.344.21-.522.319a3.093,3.093,0,0,1-.578.263,2.6,2.6,0,0,1-.625.2c-.218.038-.437.093-.661.112l-.682,0a4.117,4.117,0,0,1-1.331-.331,1.967,1.967,0,0,1-.6-.329,2.688,2.688,0,0,1-.516-.42c-.146-.165-.292-.324-.419-.487-.1-.182-.189-.367-.276-.542a3.676,3.676,0,0,1-.283-1.037,6.24,6.24,0,0,1,.012-.894,2.752,2.752,0,0,1,.136-.629C601.406,92.772,601.473,92.577,601.473,92.577Z" transform="translate(-601.145 -92.577)" fill="#352c38"/>
            </g>
            <g id="Grupo_1173773" data-name="Grupo 1173773" transform="translate(1.55 11.266)">
              <path id="Trazado_1026915" data-name="Trazado 1026915" d="M580.706,90.77s.035.2.074.556a3.893,3.893,0,0,0,.088.625c.07.225.12.471.2.726l.184.383a1.23,1.23,0,0,0,.217.378l.269.36c.122.1.232.2.345.306.1.121.268.164.4.254a1.557,1.557,0,0,0,.441.195,3.558,3.558,0,0,0,.975.21l.513.008.51-.065a2.7,2.7,0,0,0,.5-.113,2.224,2.224,0,0,0,.478-.157c.152-.068.3-.142.45-.2s.272-.167.406-.246a4.981,4.981,0,0,0,.7-.539,5.408,5.408,0,0,0,.531-.563,2.922,2.922,0,0,0,.366-.494c.192-.289.317-.461.317-.461s-.024.2-.094.556a2.23,2.23,0,0,1-.186.633,3.642,3.642,0,0,1-.4.777,3.773,3.773,0,0,1-.675.8c-.141.124-.279.265-.438.384s-.344.21-.522.319a3.092,3.092,0,0,1-.578.263,2.615,2.615,0,0,1-.625.2c-.218.038-.437.093-.661.112l-.682,0a4.107,4.107,0,0,1-1.33-.331,1.986,1.986,0,0,1-.6-.329,2.688,2.688,0,0,1-.516-.42c-.146-.165-.292-.324-.419-.487-.1-.182-.189-.367-.276-.542a3.641,3.641,0,0,1-.282-1.037,6.239,6.239,0,0,1,.012-.894,2.718,2.718,0,0,1,.136-.629C580.638,90.965,580.706,90.77,580.706,90.77Z" transform="translate(-580.38 -90.77)" fill="#352c38"/>
            </g>
            <g id="Grupo_1173774" data-name="Grupo 1173774" transform="translate(18.901)">
              <path id="Trazado_1026916" data-name="Trazado 1026916" d="M616.547,83.307l-2.615-1.141c-.388-.149-.788-.337-1.223-.5s-.878-.347-1.347-.494c-.46-.178-.945-.294-1.426-.443-.484-.13-.977-.227-1.465-.325a11.777,11.777,0,0,0-1.459-.15c-.24,0-.479-.012-.718-.029s-.464.048-.7.055l-.686.051-.648.141-.636.117-.578.2c-.37.136-.754.206-1.06.343s-.578.259-.81.357c-.466.194-.763.293-.763.293a7.935,7.935,0,0,1,.44-.684c.152-.212.335-.478.571-.764a7.663,7.663,0,0,1,.914-.843l.57-.452.688-.366.752-.369c.266-.1.552-.162.84-.246a7.462,7.462,0,0,1,.889-.205c.3-.03.616-.055.93-.07a9.261,9.261,0,0,1,1.887.11,12.434,12.434,0,0,1,1.793.486,10.323,10.323,0,0,1,1.6.742,10.564,10.564,0,0,1,1.365.888,13.13,13.13,0,0,1,1.1.938,10.836,10.836,0,0,1,1.377,1.651A5.117,5.117,0,0,1,616.547,83.307Z" transform="translate(-600.419 -77.758)" fill="#76413b"/>
            </g>
            <g id="Grupo_1173775" data-name="Grupo 1173775" transform="translate(0 0.375)">
              <path id="Trazado_1026917" data-name="Trazado 1026917" d="M591.437,82.158l-2.134-.814c-.319-.1-.646-.229-1-.332s-.715-.229-1.094-.322c-.372-.121-.766-.168-1.152-.267-.391-.046-.784-.131-1.175-.142a7,7,0,0,0-1.159,0c-.189.019-.382.016-.568.036-.183.039-.364.08-.546.107a5.527,5.527,0,0,0-1.043.276,4.938,4.938,0,0,0-.945.357c-.281.145-.591.221-.815.368s-.446.249-.624.344c-.359.189-.591.288-.591.288a6.506,6.506,0,0,1,.3-.581c.1-.181.229-.408.394-.653a4.359,4.359,0,0,1,.654-.748l.411-.411a4.129,4.129,0,0,1,.508-.363,5.009,5.009,0,0,1,1.21-.643c.224-.089.457-.168.693-.249a6.812,6.812,0,0,1,.74-.137,6.411,6.411,0,0,1,1.53-.068,8.727,8.727,0,0,1,1.487.255,8.434,8.434,0,0,1,1.339.506,7.552,7.552,0,0,1,1.144.649,9.228,9.228,0,0,1,.921.712,7.844,7.844,0,0,1,1.165,1.276A3.784,3.784,0,0,1,591.437,82.158Z" transform="translate(-578.59 -78.191)" fill="#76413b"/>
            </g>
            <g id="Grupo_1173776" data-name="Grupo 1173776" transform="translate(7.783 11.391)">
              <path id="Trazado_1026918" data-name="Trazado 1026918" d="M592.48,90.914a30.269,30.269,0,0,1-.533,3.466c-.242,1.135-.527,2.256-.836,3.369l-.5,1.658c-.172.551-.368,1.094-.551,1.642s-.4,1.085-.6,1.627-.434,1.073-.655,1.609l-.232-.667q.983.766,1.939,1.572c.637.538,1.265,1.09,1.87,1.676-.773-.334-1.524-.7-2.265-1.085s-1.473-.779-2.2-1.189l-.343-.195.111-.472c.132-.564.248-1.133.4-1.689s.283-1.121.46-1.671.327-1.107.507-1.656l.558-1.64c.4-1.085.816-2.163,1.28-3.226A30.054,30.054,0,0,1,592.48,90.914Z" transform="translate(-587.579 -90.914)" fill="#fc6a5a"/>
            </g>
            <g id="Grupo_1173777" data-name="Grupo 1173777" transform="translate(45.412 15.697)">
              <path id="Trazado_1026919" data-name="Trazado 1026919" d="M631.282,103.944c.21-.372.422-.709.6-1.05a5.246,5.246,0,0,0,.245-.494,2.065,2.065,0,0,0,.091-.239,1.176,1.176,0,0,0,.066-.222.758.758,0,0,0,.017-.333c-.025-.026-.012-.061-.039-.073s-.013-.025-.049-.042a.286.286,0,0,1-.076-.056.9.9,0,0,1-.14-.076.715.715,0,0,0-.182-.074l-.2-.082-.484-.2-.06-.472a5.466,5.466,0,0,1-.037-.745,6.317,6.317,0,0,1,.047-.722,5.064,5.064,0,0,1,.373-1.428,2.383,2.383,0,0,1,.164-.343,3.372,3.372,0,0,1,.2-.329,3.439,3.439,0,0,1,.52-.579,2.124,2.124,0,0,1,.322-.222,1.241,1.241,0,0,1,.345-.164,1.44,1.44,0,0,1,.36-.092l.36-.016-.244.248a1.208,1.208,0,0,0-.2.249,1.233,1.233,0,0,0-.163.253A2.195,2.195,0,0,0,633,96.9a2.522,2.522,0,0,0-.169.542,2.386,2.386,0,0,0-.056.279,2.436,2.436,0,0,0-.043.283,9.383,9.383,0,0,0-.072,1.168c0,.2,0,.4.005.6l.029.572-.544-.675.345.152a1.786,1.786,0,0,1,.343.191c.117.085.233.172.343.264a3.312,3.312,0,0,1,.306.393,1.7,1.7,0,0,1,.193.493,1.837,1.837,0,0,1,.023.51,2,2,0,0,1-.292.8,2.394,2.394,0,0,1-.217.3,1.869,1.869,0,0,1-.241.249,3.491,3.491,0,0,1-.514.409A3.943,3.943,0,0,1,631.282,103.944Z" transform="translate(-631.038 -95.887)" fill="#fc6a5a"/>
            </g>
            <path id="Trazado_1026920" data-name="Trazado 1026920" d="M587.03,113.8l16.846-.2S592.177,122.124,587.03,113.8Z" transform="translate(-579.722 -82.566)" fill="#fff"/>
          </g>
        </g>
        <g id="Grupo_1173782" data-name="Grupo 1173782" transform="translate(541.789 135.678)">
          <g id="Grupo_1173780" data-name="Grupo 1173780" transform="translate(8.118)">
            <path id="Trazado_1026921" data-name="Trazado 1026921" d="M579.58,148.993a59.152,59.152,0,0,0,57.236,0s12.583-.812,16.237,12.178S651.43,225.714,636,235.457s-67.788-21.416-67.788-21.416l-17.051-.1s10.943-42.371,13.4-48.938S569.432,150.212,579.58,148.993Z" transform="translate(-551.165 -148.983)" fill="#fc6a5a"/>
            <path id="Trazado_1026922" data-name="Trazado 1026922" d="M648.407,199.639c-15.324,2.968-29.413.65-43.618-5.538-13.517-5.888-33.13-13.358-39.929-27.552-.1.272-.2.545-.3.811-2.452,6.568-13.4,48.938-13.4,48.938l18.585-.285s50.829,31.541,66.254,21.8c8.217-5.19,13.553-22.243,16.195-39.012C650.942,199.106,649.68,199.393,648.407,199.639Z" transform="translate(-551.165 -151.34)" fill="#352c38" opacity="0.2"/>
          </g>
          <g id="Grupo_1173781" data-name="Grupo 1173781" transform="translate(0 40.197)">
            <path id="Trazado_1026923" data-name="Trazado 1026923" d="M621.757,197.439l30.039-2.03s-3.374,47.337-20.829,49.773-57.354-18.035-66.691-24.53l-22.487-.481s3.247-5.683,5.277-7.307,17.049-5.683,21.109-4.465,47.9,10.149,47.9,10.149Z" transform="translate(-541.789 -195.408)" fill="#f19c7c"/>
            <path id="Trazado_1026924" data-name="Trazado 1026924" d="M663.54,201.046c.382-3.461.524-5.638.524-5.638l-30.039,2.03-.775,2.879C643.334,200.453,653.444,200.921,663.54,201.046Z" transform="translate(-554.058 -195.408)" fill="#fc6a5a" opacity="0.5"/>
          </g>
        </g>
      </g>
      <g id="elements" transform="translate(851.058 5487.511)">
        <g id="Grupo_1178909" data-name="Grupo 1178909" transform="translate(8.684 38.993)">
          <g id="Grupo_1178876" data-name="Grupo 1178876" transform="translate(0.402 11.834)">
            <g id="Grupo_1178840" data-name="Grupo 1178840">
              <g id="Grupo_1178839" data-name="Grupo 1178839" transform="translate(0 2.259)">
                <path id="Trazado_1038585" data-name="Trazado 1038585" d="M1550.2,635.73h32.41V601.8H1543.65v26.445Z" transform="translate(-1543.65 -601.803)" fill="#f3c279"/>
              </g>
              <rect id="Rectángulo_415490" data-name="Rectángulo 415490" width="15.671" height="4.518" transform="translate(27.316 4.518) rotate(180)" fill="#191c4a"/>
            </g>
            <g id="Grupo_1178852" data-name="Grupo 1178852" transform="translate(4.287 7.001)">
              <g id="Grupo_1178844" data-name="Grupo 1178844">
                <g id="Grupo_1178841" data-name="Grupo 1178841">
                  <path id="Trazado_1038586" data-name="Trazado 1038586" d="M1597.141,655.467h-5.228a.313.313,0,0,1,0-.626h5.228a.313.313,0,0,1,0,.626Z" transform="translate(-1591.6 -654.841)" fill="#fff"/>
                </g>
                <g id="Grupo_1178842" data-name="Grupo 1178842" transform="translate(8.032)">
                  <path id="Trazado_1038587" data-name="Trazado 1038587" d="M1694.327,655.467H1681.74a.313.313,0,1,1,0-.626h12.587a.313.313,0,1,1,0,.626Z" transform="translate(-1681.427 -654.841)" fill="#fff"/>
                </g>
                <g id="Grupo_1178843" data-name="Grupo 1178843" transform="translate(25.854)">
                  <path id="Trazado_1038588" data-name="Trazado 1038588" d="M1886.312,655.467h-5.246a.313.313,0,0,1,0-.626h5.246a.313.313,0,0,1,0,.626Z" transform="translate(-1880.752 -654.841)" fill="#fff"/>
                </g>
              </g>
              <g id="Grupo_1178847" data-name="Grupo 1178847" transform="translate(0.001 3.045)">
                <g id="Grupo_1178845" data-name="Grupo 1178845">
                  <path id="Trazado_1038589" data-name="Trazado 1038589" d="M1604.341,689.524h-12.42a.313.313,0,1,1,0-.626h12.42a.313.313,0,1,1,0,.626Z" transform="translate(-1591.608 -688.898)" fill="#fff"/>
                </g>
                <g id="Grupo_1178846" data-name="Grupo 1178846" transform="translate(17.18)">
                  <path id="Trazado_1038590" data-name="Trazado 1038590" d="M1797.983,689.524h-13.92a.313.313,0,0,1,0-.626h13.92a.313.313,0,1,1,0,.626Z" transform="translate(-1783.75 -688.898)" fill="#fff"/>
                </g>
              </g>
              <g id="Grupo_1178851" data-name="Grupo 1178851" transform="translate(0.001 6.09)">
                <g id="Grupo_1178848" data-name="Grupo 1178848">
                  <path id="Trazado_1038591" data-name="Trazado 1038591" d="M1598.311,723.58h-6.391a.313.313,0,1,1,0-.626h6.391a.313.313,0,0,1,0,.626Z" transform="translate(-1591.607 -722.954)" fill="#fff"/>
                </g>
                <g id="Grupo_1178849" data-name="Grupo 1178849" transform="translate(8.93)">
                  <path id="Trazado_1038592" data-name="Trazado 1038592" d="M1707,723.58h-15.21a.313.313,0,0,1,0-.626H1707a.313.313,0,0,1,0,.626Z" transform="translate(-1691.478 -722.954)" fill="#fff"/>
                </g>
                <g id="Grupo_1178850" data-name="Grupo 1178850" transform="translate(28.476)">
                  <path id="Trazado_1038593" data-name="Trazado 1038593" d="M1913.027,723.58H1910.4a.313.313,0,0,1,0-.626h2.623a.313.313,0,1,1,0,.626Z" transform="translate(-1910.091 -722.954)" fill="#fff"/>
                </g>
              </g>
            </g>
            <g id="Grupo_1178864" data-name="Grupo 1178864" transform="translate(4.287 16.989)">
              <g id="Grupo_1178856" data-name="Grupo 1178856">
                <g id="Grupo_1178853" data-name="Grupo 1178853">
                  <path id="Trazado_1038594" data-name="Trazado 1038594" d="M1597.141,767.175h-5.228a.313.313,0,0,1,0-.626h5.228a.313.313,0,0,1,0,.626Z" transform="translate(-1591.6 -766.549)" fill="#fff"/>
                </g>
                <g id="Grupo_1178854" data-name="Grupo 1178854" transform="translate(8.032)">
                  <path id="Trazado_1038595" data-name="Trazado 1038595" d="M1694.327,767.175H1681.74a.313.313,0,1,1,0-.626h12.587a.313.313,0,1,1,0,.626Z" transform="translate(-1681.427 -766.549)" fill="#fff"/>
                </g>
                <g id="Grupo_1178855" data-name="Grupo 1178855" transform="translate(25.854)">
                  <path id="Trazado_1038596" data-name="Trazado 1038596" d="M1886.312,767.175h-5.246a.313.313,0,0,1,0-.626h5.246a.313.313,0,0,1,0,.626Z" transform="translate(-1880.752 -766.549)" fill="#fff"/>
                </g>
              </g>
              <g id="Grupo_1178859" data-name="Grupo 1178859" transform="translate(0.001 3.045)">
                <g id="Grupo_1178857" data-name="Grupo 1178857">
                  <path id="Trazado_1038597" data-name="Trazado 1038597" d="M1604.341,801.232h-12.42a.313.313,0,0,1,0-.626h12.42a.313.313,0,0,1,0,.626Z" transform="translate(-1591.608 -800.606)" fill="#fff"/>
                </g>
                <g id="Grupo_1178858" data-name="Grupo 1178858" transform="translate(17.18)">
                  <path id="Trazado_1038598" data-name="Trazado 1038598" d="M1797.983,801.232h-13.92a.313.313,0,0,1,0-.626h13.92a.313.313,0,1,1,0,.626Z" transform="translate(-1783.75 -800.606)" fill="#fff"/>
                </g>
              </g>
              <g id="Grupo_1178863" data-name="Grupo 1178863" transform="translate(0.001 6.09)">
                <g id="Grupo_1178860" data-name="Grupo 1178860">
                  <path id="Trazado_1038599" data-name="Trazado 1038599" d="M1598.311,835.288h-6.391a.313.313,0,1,1,0-.626h6.391a.313.313,0,0,1,0,.626Z" transform="translate(-1591.607 -834.662)" fill="#fff"/>
                </g>
                <g id="Grupo_1178861" data-name="Grupo 1178861" transform="translate(8.93)">
                  <path id="Trazado_1038600" data-name="Trazado 1038600" d="M1707,835.288h-15.21a.313.313,0,0,1,0-.626H1707a.313.313,0,0,1,0,.626Z" transform="translate(-1691.478 -834.662)" fill="#fff"/>
                </g>
                <g id="Grupo_1178862" data-name="Grupo 1178862" transform="translate(28.476)">
                  <path id="Trazado_1038601" data-name="Trazado 1038601" d="M1913.027,835.288H1910.4a.313.313,0,0,1,0-.626h2.623a.313.313,0,1,1,0,.626Z" transform="translate(-1910.091 -834.662)" fill="#fff"/>
                </g>
              </g>
            </g>
            <g id="Grupo_1178875" data-name="Grupo 1178875" transform="translate(4.288 26.474)">
              <g id="Grupo_1178867" data-name="Grupo 1178867" transform="translate(6.068)">
                <g id="Grupo_1178865" data-name="Grupo 1178865">
                  <path id="Trazado_1038602" data-name="Trazado 1038602" d="M1674.339,873.262H1659.79a.313.313,0,1,1,0-.626h14.549a.313.313,0,0,1,0,.626Z" transform="translate(-1659.477 -872.636)" fill="#fff"/>
                </g>
                <g id="Grupo_1178866" data-name="Grupo 1178866" transform="translate(19.785)">
                  <path id="Trazado_1038603" data-name="Trazado 1038603" d="M1886.312,873.262h-5.246a.313.313,0,0,1,0-.626h5.246a.313.313,0,0,1,0,.626Z" transform="translate(-1880.752 -872.636)" fill="#fff"/>
                </g>
              </g>
              <g id="Grupo_1178870" data-name="Grupo 1178870" transform="translate(9.271 3.045)">
                <g id="Grupo_1178868" data-name="Grupo 1178868">
                  <path id="Trazado_1038604" data-name="Trazado 1038604" d="M1701.864,907.318h-6.26a.313.313,0,1,1,0-.626h6.26a.313.313,0,1,1,0,.626Z" transform="translate(-1695.291 -906.692)" fill="#fff"/>
                </g>
                <g id="Grupo_1178869" data-name="Grupo 1178869" transform="translate(14.044)">
                  <path id="Trazado_1038605" data-name="Trazado 1038605" d="M1860.463,907.318h-7.785a.313.313,0,0,1,0-.626h7.785a.313.313,0,1,1,0,.626Z" transform="translate(-1852.365 -906.692)" fill="#fff"/>
                </g>
              </g>
              <g id="Grupo_1178874" data-name="Grupo 1178874" transform="translate(0 6.09)">
                <g id="Grupo_1178871" data-name="Grupo 1178871">
                  <path id="Trazado_1038606" data-name="Trazado 1038606" d="M1598.311,941.375h-6.391a.313.313,0,1,1,0-.626h6.391a.313.313,0,0,1,0,.626Z" transform="translate(-1591.607 -940.749)" fill="#fff"/>
                </g>
                <g id="Grupo_1178872" data-name="Grupo 1178872" transform="translate(13.836)">
                  <path id="Trazado_1038607" data-name="Trazado 1038607" d="M1756.969,941.375h-10.3a.313.313,0,0,1,0-.626h10.3a.313.313,0,1,1,0,.626Z" transform="translate(-1746.353 -940.749)" fill="#fff"/>
                </g>
                <g id="Grupo_1178873" data-name="Grupo 1178873" transform="translate(28.476)">
                  <path id="Trazado_1038608" data-name="Trazado 1038608" d="M1913.027,941.375H1910.4a.313.313,0,0,1,0-.626h2.623a.313.313,0,1,1,0,.626Z" transform="translate(-1910.091 -940.749)" fill="#fff"/>
                </g>
              </g>
            </g>
            <path id="Trazado_1038609" data-name="Trazado 1038609" d="M1550.2,905.054l-6.551-7.482,6.551.517Z" transform="translate(-1543.65 -868.868)" fill="#ba8e4a"/>
          </g>
          <g id="Grupo_1178904" data-name="Grupo 1178904" transform="translate(21.765 0)">
            <g id="Grupo_1178878" data-name="Grupo 1178878">
              <g id="Grupo_1178877" data-name="Grupo 1178877" transform="translate(0 0.86)">
                <path id="Trazado_1038610" data-name="Trazado 1038610" d="M1789.249,490.307h33.886v-36.5H1782.58v28.449Z" transform="translate(-1782.58 -453.809)" fill="#b0adff"/>
                <path id="Trazado_1038611" data-name="Trazado 1038611" d="M1789.249,780.039l-6.669-8.049h6.661Z" transform="translate(-1782.58 -743.541)" fill="#746fe3"/>
              </g>
              <rect id="Rectángulo_415491" data-name="Rectángulo 415491" width="14.94" height="3.388" transform="translate(28.188 3.388) rotate(180)" fill="#191c4a"/>
            </g>
            <g id="Grupo_1178903" data-name="Grupo 1178903" transform="translate(5.693 8.114)">
              <rect id="Rectángulo_415492" data-name="Rectángulo 415492" width="30.554" height="2.588" transform="translate(30.554 4.602) rotate(180)" fill="#fdecff"/>
              <g id="Grupo_1178890" data-name="Grupo 1178890" transform="translate(0.366)">
                <g id="Grupo_1178882" data-name="Grupo 1178882" transform="translate(0.001)">
                  <g id="Grupo_1178879" data-name="Grupo 1178879">
                    <path id="Trazado_1038612" data-name="Trazado 1038612" d="M1855.5,535.557h-4.823a.313.313,0,1,1,0-.626h4.823a.313.313,0,1,1,0,.626Z" transform="translate(-1850.361 -534.931)" fill="#fff"/>
                  </g>
                  <g id="Grupo_1178880" data-name="Grupo 1178880" transform="translate(7.408)">
                    <path id="Trazado_1038613" data-name="Trazado 1038613" d="M1945.14,535.557h-11.611a.313.313,0,1,1,0-.626h11.611a.313.313,0,1,1,0,.626Z" transform="translate(-1933.216 -534.931)" fill="#fff"/>
                  </g>
                  <g id="Grupo_1178881" data-name="Grupo 1178881" transform="translate(23.849)">
                    <path id="Trazado_1038614" data-name="Trazado 1038614" d="M2122.251,535.557h-4.84a.313.313,0,1,1,0-.626h4.84a.313.313,0,1,1,0,.626Z" transform="translate(-2117.099 -534.931)" fill="#fff"/>
                  </g>
                </g>
                <g id="Grupo_1178885" data-name="Grupo 1178885" transform="translate(0 3.045)">
                  <g id="Grupo_1178883" data-name="Grupo 1178883">
                    <path id="Trazado_1038615" data-name="Trazado 1038615" d="M1862.124,569.614h-11.458a.313.313,0,0,1,0-.626h11.458a.313.313,0,0,1,0,.626Z" transform="translate(-1850.353 -568.988)" fill="#fff"/>
                  </g>
                  <g id="Grupo_1178884" data-name="Grupo 1178884" transform="translate(15.849)">
                    <path id="Trazado_1038616" data-name="Trazado 1038616" d="M2040.767,569.614h-12.841a.313.313,0,0,1,0-.626h12.841a.313.313,0,0,1,0,.626Z" transform="translate(-2027.613 -568.988)" fill="#fff"/>
                  </g>
                </g>
                <g id="Grupo_1178889" data-name="Grupo 1178889" transform="translate(0 6.09)">
                  <g id="Grupo_1178886" data-name="Grupo 1178886">
                    <path id="Trazado_1038617" data-name="Trazado 1038617" d="M1856.565,603.671h-5.9a.313.313,0,1,1,0-.626h5.9a.313.313,0,1,1,0,.626Z" transform="translate(-1850.356 -603.045)" fill="#fff"/>
                  </g>
                  <g id="Grupo_1178887" data-name="Grupo 1178887" transform="translate(8.238)">
                    <path id="Trazado_1038618" data-name="Trazado 1038618" d="M1956.834,603.671H1942.8a.313.313,0,1,1,0-.626h14.031a.313.313,0,1,1,0,.626Z" transform="translate(-1942.49 -603.045)" fill="#fff"/>
                  </g>
                  <g id="Grupo_1178888" data-name="Grupo 1178888" transform="translate(26.27)">
                    <path id="Trazado_1038619" data-name="Trazado 1038619" d="M2146.9,603.671h-2.42a.313.313,0,1,1,0-.626h2.42a.313.313,0,0,1,0,.626Z" transform="translate(-2144.165 -603.045)" fill="#fff"/>
                  </g>
                </g>
              </g>
              <g id="Grupo_1178902" data-name="Grupo 1178902" transform="translate(0.366 10.229)">
                <g id="Grupo_1178894" data-name="Grupo 1178894" transform="translate(0.001)">
                  <g id="Grupo_1178891" data-name="Grupo 1178891">
                    <path id="Trazado_1038620" data-name="Trazado 1038620" d="M1855.5,649.957h-4.823a.313.313,0,1,1,0-.626h4.823a.313.313,0,1,1,0,.626Z" transform="translate(-1850.361 -649.331)" fill="#fff"/>
                  </g>
                  <g id="Grupo_1178892" data-name="Grupo 1178892" transform="translate(7.408)">
                    <path id="Trazado_1038621" data-name="Trazado 1038621" d="M1945.14,649.957h-11.611a.313.313,0,1,1,0-.626h11.611a.313.313,0,1,1,0,.626Z" transform="translate(-1933.216 -649.331)" fill="#fff"/>
                  </g>
                  <g id="Grupo_1178893" data-name="Grupo 1178893" transform="translate(23.849)">
                    <path id="Trazado_1038622" data-name="Trazado 1038622" d="M2122.251,649.957h-4.84a.313.313,0,1,1,0-.626h4.84a.313.313,0,1,1,0,.626Z" transform="translate(-2117.099 -649.331)" fill="#fff"/>
                  </g>
                </g>
                <g id="Grupo_1178897" data-name="Grupo 1178897" transform="translate(0 3.045)">
                  <g id="Grupo_1178895" data-name="Grupo 1178895">
                    <path id="Trazado_1038623" data-name="Trazado 1038623" d="M1862.124,684.014h-11.458a.313.313,0,0,1,0-.626h11.458a.313.313,0,0,1,0,.626Z" transform="translate(-1850.353 -683.388)" fill="#fff"/>
                  </g>
                  <g id="Grupo_1178896" data-name="Grupo 1178896" transform="translate(15.849)">
                    <path id="Trazado_1038624" data-name="Trazado 1038624" d="M2040.767,684.014h-12.841a.313.313,0,0,1,0-.626h12.841a.313.313,0,0,1,0,.626Z" transform="translate(-2027.613 -683.388)" fill="#fff"/>
                  </g>
                </g>
                <g id="Grupo_1178901" data-name="Grupo 1178901" transform="translate(0 6.09)">
                  <g id="Grupo_1178898" data-name="Grupo 1178898">
                    <path id="Trazado_1038625" data-name="Trazado 1038625" d="M1856.565,718.071h-5.9a.313.313,0,1,1,0-.626h5.9a.313.313,0,1,1,0,.626Z" transform="translate(-1850.356 -717.445)" fill="#fff"/>
                  </g>
                  <g id="Grupo_1178899" data-name="Grupo 1178899" transform="translate(8.238)">
                    <path id="Trazado_1038626" data-name="Trazado 1038626" d="M1956.834,718.071H1942.8a.313.313,0,1,1,0-.626h14.031a.313.313,0,1,1,0,.626Z" transform="translate(-1942.49 -717.445)" fill="#fff"/>
                  </g>
                  <g id="Grupo_1178900" data-name="Grupo 1178900" transform="translate(26.27)">
                    <path id="Trazado_1038627" data-name="Trazado 1038627" d="M2146.9,718.071h-2.42a.313.313,0,1,1,0-.626h2.42a.313.313,0,0,1,0,.626Z" transform="translate(-2144.165 -717.445)" fill="#fff"/>
                  </g>
                </g>
              </g>
            </g>
          </g>
          <g id="Grupo_1178908" data-name="Grupo 1178908" transform="translate(0 7.002)">
            <g id="Grupo_1178905" data-name="Grupo 1178905" transform="translate(14.795 40.616)">
              <path id="Trazado_1038628" data-name="Trazado 1038628" d="M1715.451,977.554h-10.423a.4.4,0,0,1,0-.8h10.423a.4.4,0,0,1,0,.8Z" transform="translate(-1704.626 -976.749)" fill="#10171b"/>
            </g>
            <g id="Grupo_1178906" data-name="Grupo 1178906" transform="translate(61.919)">
              <path id="Trazado_1038629" data-name="Trazado 1038629" d="M2232.062,536.846a.4.4,0,0,1-.4-.4V522.9a.4.4,0,0,1,.8,0v13.545A.4.4,0,0,1,2232.062,536.846Z" transform="translate(-2231.66 -522.496)" fill="#10171b"/>
            </g>
            <g id="Grupo_1178907" data-name="Grupo 1178907" transform="translate(0 10.582)">
              <path id="Trazado_1038630" data-name="Trazado 1038630" d="M1539.552,649.934a.4.4,0,0,1-.4-.4v-8.286a.4.4,0,0,1,.8,0v8.286A.4.4,0,0,1,1539.552,649.934Z" transform="translate(-1539.15 -640.844)" fill="#10171b"/>
            </g>
          </g>
        </g>
        <g id="bulb" transform="translate(-160.571 44.919) rotate(-41)">
          <path id="Trazado_1038631" data-name="Trazado 1038631" d="M2535.54,1295.646h0a24.853,24.853,0,0,0-5.4-3.994,24.857,24.857,0,0,0-34.737,11.531,24.856,24.856,0,0,0-1.111,17.716c.973,3.127,3.025,7.274,2.139,10.426l-1.815,6.459a7.868,7.868,0,0,0-.289,2.272h0a6.971,6.971,0,0,0,4.312,6.472l9.415,3.685,1.373.537a7.166,7.166,0,0,0,8.875-3.662l3.105-6.021c1.5-2.908,6.38-4.324,9.213-5.96a24.935,24.935,0,0,0,4.917-39.463Z" transform="translate(-2491.157 -1288.079)" fill="#fdb25d"/>
          <g id="Grupo_1178910" data-name="Grupo 1178910" transform="translate(9.916 25.053)">
            <path id="Trazado_1038632" data-name="Trazado 1038632" d="M2576.4,1580.945c2.353-6.922,4.44-13.982,6.223-21.048a.58.58,0,0,0-.213-.6l0,0c-1.757-1.326-3.514-2.832-4.029-5.372a7.034,7.034,0,0,1,1.22-5.156,3.543,3.543,0,0,1,2.445-1.575c1.688-.171,3.136,1.3,3.45,3.5a14.873,14.873,0,0,1-.584,5.451q-.289,1.226-.591,2.455a.579.579,0,0,0,.23.613,18.08,18.08,0,0,0,5.685,2.865.579.579,0,0,0,.663-.3q.751-1.5,1.53-2.983a14.492,14.492,0,0,1,2.816-4.086c1.5-1.369,3.311-1.677,4.5-.77,1.534,1.174,1.419,3.859.432,5.673a7.779,7.779,0,0,1-4.281,3.528,9.676,9.676,0,0,1-4.052.543.577.577,0,0,0-.562.324,167.032,167.032,0,0,0-7.926,19.262.579.579,0,0,1-.733.363l-.162-.054a.579.579,0,0,1-.365-.735,168.41,168.41,0,0,1,7.7-18.814.579.579,0,0,0-.355-.806,19.057,19.057,0,0,1-4.881-2.4.579.579,0,0,0-.88.34c-1.739,6.789-3.756,13.567-6.017,20.219a.579.579,0,0,1-.736.361l-.161-.055A.578.578,0,0,1,2576.4,1580.945Zm22.262-26.111a2.753,2.753,0,0,0-2.527.849,13.44,13.44,0,0,0-2.534,3.722q-.556,1.056-1.1,2.122a.579.579,0,0,0,.545.841,8.5,8.5,0,0,0,2.394-.488,6.545,6.545,0,0,0,3.561-2.912c.789-1.451.755-3.35-.073-3.983A1.08,1.08,0,0,0,2598.663,1554.834Zm-15.9-6.245a1.236,1.236,0,0,0-.584-.08,2.3,2.3,0,0,0-1.509,1.041,5.686,5.686,0,0,0-.987,4.1,6.867,6.867,0,0,0,2.666,3.9.579.579,0,0,0,.932-.312q.17-.7.336-1.409a13.857,13.857,0,0,0,.562-4.958A2.876,2.876,0,0,0,2582.762,1548.589Z" transform="translate(-2576.37 -1547.173)" fill="#fff"/>
          </g>
          <g id="Grupo_1178911" data-name="Grupo 1178911" transform="translate(3.019 56.268)">
            <path id="Trazado_1038633" data-name="Trazado 1038633" d="M2521.089,1886.135l-16.608-6.5c-.683-.268-.9-1.357-.475-2.433s1.317-1.732,2-1.464l16.607,6.5c.684.267.9,1.357.475,2.433S2521.773,1886.4,2521.089,1886.135Z" transform="translate(-2503.79 -1875.679)" fill="#9678e6"/>
          </g>
          <path id="Trazado_1038634" data-name="Trazado 1038634" d="M2481.511,1974.427l-.981,1.7a.58.58,0,0,0,.033.629l3.327,4.587a7.1,7.1,0,0,0,7.136,2.793l5.5-1.1a.579.579,0,0,0,.463-.512l.2-2.04a.579.579,0,0,0-.365-.595l-14.6-5.713A.578.578,0,0,0,2481.511,1974.427Z" transform="translate(-2479.651 -1908.514)" fill="#9678e6"/>
          <g id="Grupo_1178912" data-name="Grupo 1178912" transform="translate(0 63.983)">
            <path id="Trazado_1038635" data-name="Trazado 1038635" d="M2489.319,1967.325l-16.607-6.5c-.684-.267-.9-1.357-.475-2.433s1.317-1.732,2-1.464l16.607,6.5c.684.267.9,1.357.475,2.433S2490,1967.593,2489.319,1967.325Z" transform="translate(-2472.02 -1956.869)" fill="#9678e6"/>
          </g>
          <g id="Grupo_1178913" data-name="Grupo 1178913" transform="translate(1.501 60.148)">
            <path id="Trazado_1038636" data-name="Trazado 1038636" d="M2505.119,1926.965l-16.607-6.5c-.684-.268-.9-1.357-.475-2.433s1.317-1.732,2-1.464l16.608,6.5c.683.267.9,1.357.475,2.433S2505.8,1927.233,2505.119,1926.965Z" transform="translate(-2487.82 -1916.509)" fill="#9678e6"/>
          </g>
          <g id="Grupo_1178918" data-name="Grupo 1178918" transform="translate(1.356)">
            <g id="Grupo_1178914" data-name="Grupo 1178914" transform="translate(5.011)">
              <path id="Trazado_1038637" data-name="Trazado 1038637" d="M2539.45,1294.695a.428.428,0,0,1-.362-.654,22.113,22.113,0,0,1,5.607-5.588,25.977,25.977,0,0,1,7.274-3.63,29.279,29.279,0,0,1,10.5-1.246.428.428,0,1,1-.048.854,26.561,26.561,0,0,0-17.231,4.718,21.6,21.6,0,0,0-5.379,5.346A.427.427,0,0,1,2539.45,1294.695Z" transform="translate(-2539.023 -1283.524)" fill="#10171b"/>
            </g>
            <g id="Grupo_1178915" data-name="Grupo 1178915" transform="translate(31.745 43.388)">
              <path id="Trazado_1038638" data-name="Trazado 1038638" d="M2820.795,1747.166a.428.428,0,0,1-.161-.824c.073-.03,7.38-3.03,10.17-6.067a.428.428,0,1,1,.63.578c-2.92,3.179-10.17,6.155-10.477,6.281A.429.429,0,0,1,2820.795,1747.166Z" transform="translate(-2820.367 -1740.137)" fill="#10171b"/>
            </g>
            <g id="Grupo_1178916" data-name="Grupo 1178916" transform="translate(11.502 43.388)">
              <path id="Trazado_1038639" data-name="Trazado 1038639" d="M2607.765,1750.048a.433.433,0,0,1-.121-.017.428.428,0,0,1-.29-.531l2.664-9.057a.428.428,0,1,1,.821.241l-2.664,9.057A.427.427,0,0,1,2607.765,1750.048Z" transform="translate(-2607.337 -1740.135)" fill="#10171b"/>
            </g>
            <g id="Grupo_1178917" data-name="Grupo 1178917" transform="translate(0 69.018)">
              <path id="Trazado_1038640" data-name="Trazado 1038640" d="M2490.1,2015.137a.429.429,0,0,1-.284-.107c-.322-.282-2.715-3.51-3.441-4.492a.428.428,0,0,1,.688-.508c1.154,1.563,3.077,4.129,3.32,4.36a.427.427,0,0,1-.283.747Z" transform="translate(-2486.291 -2009.856)" fill="#10171b"/>
            </g>
          </g>
        </g>
        <g id="Grupo_1178930" data-name="Grupo 1178930" transform="translate(60.185 68.671)">
          <path id="Trazado_1038652" data-name="Trazado 1038652" d="M2825.35,360.5h29.563a2.151,2.151,0,0,1,2.151,2.151V390.3a1.492,1.492,0,0,1-2.189,1.32l-11.026-5.82h-18.5a2.151,2.151,0,0,1-2.151-2.151V362.653A2.151,2.151,0,0,1,2825.35,360.5Z" transform="translate(-2823.199 -360.502)" fill="#ff8c85"/>
          <g id="Grupo_1178929" data-name="Grupo 1178929" transform="translate(6.734 2.688)">
            <g id="Grupo_1178927" data-name="Grupo 1178927" transform="translate(2.251 2.83)">
              <path id="Trazado_1038653" data-name="Trazado 1038653" d="M2960.012,454.01a.8.8,0,0,1-.409-.113l-6.155-3.693a.8.8,0,1,1,.819-1.365l5.467,3.28,6.761-11.474a.8.8,0,1,1,1.371.808l-7.168,12.165a.8.8,0,0,1-.686.392Z" transform="translate(-2953.061 -440.254)" fill="#fff"/>
            </g>
            <g id="Grupo_1178928" data-name="Grupo 1178928">
              <path id="Trazado_1038654" data-name="Trazado 1038654" d="M2939.15,418.763h-17.826a.8.8,0,0,1-.8-.8V400.142a.8.8,0,0,1,.8-.8h17.826a.8.8,0,0,1,.8.8v17.826A.8.8,0,0,1,2939.15,418.763Zm-17.03-1.591h16.234V400.937H2922.12Z" transform="translate(-2920.529 -399.346)" fill="#fff"/>
            </g>
          </g>
        </g>
        <g id="Grupo_1178938" data-name="Grupo 1178938" transform="translate(-145.875 122.097)">
          <g id="Grupo_1178932" data-name="Grupo 1178932">
            <g id="Grupo_1178931" data-name="Grupo 1178931">
              <path id="gear_17_" d="M1866.092,1086.388l2.868-4.7-2.924-1.786a12.772,12.772,0,0,0,.7-4.465l3.331-.805-1.293-5.349-3.331.805h0a12.773,12.773,0,0,0-2.661-3.653l1.786-2.924-4.7-2.869-1.786,2.924a12.775,12.775,0,0,0-4.465-.7l-.805-3.331-5.349,1.293.8,3.331a12.777,12.777,0,0,0-3.653,2.661l-2.924-1.786-2.869,4.7,2.924,1.786a12.767,12.767,0,0,0-.7,4.465l-3.332.805,1.293,5.349,3.331-.805a12.776,12.776,0,0,0,2.661,3.653l-1.786,2.924,4.7,2.869,1.786-2.924a12.775,12.775,0,0,0,4.466.7h0l.8,3.331,5.35-1.293-.805-3.331a12.772,12.772,0,0,0,3.653-2.661Zm-7.771-4.064a7.984,7.984,0,0,1-5.35,1.293q-.312-.036-.623-.1a7.991,7.991,0,0,1-4.7-2.868q-.2-.248-.371-.51a7.984,7.984,0,0,1-1.293-5.349q.036-.312.1-.623a7.988,7.988,0,0,1,2.868-4.7q.248-.2.51-.371a7.984,7.984,0,0,1,5.349-1.293q.312.036.623.1a7.991,7.991,0,0,1,4.7,2.869q.2.248.371.509a7.983,7.983,0,0,1,1.293,5.35q-.036.312-.1.622a7.99,7.99,0,0,1-2.868,4.7Q1858.582,1082.15,1858.321,1082.325Z" transform="translate(-1837.718 -1045.271)" fill="#ff8c85"/>
              <path id="gear_16_" d="M2134.472,919.911l3.014-3.146-1.958-1.876a10.111,10.111,0,0,0,1.3-3.334l2.713-.058-.093-4.356-2.712.058h0a10.107,10.107,0,0,0-1.439-3.276l1.876-1.958-3.146-3.014-1.876,1.959a10.113,10.113,0,0,0-3.334-1.3l-.058-2.713-4.356.093.058,2.713a10.112,10.112,0,0,0-3.276,1.439l-1.958-1.877-3.014,3.146,1.958,1.876a10.111,10.111,0,0,0-1.3,3.335l-2.713.058.093,4.356,2.712-.058a10.11,10.11,0,0,0,1.439,3.276l-1.876,1.958,3.146,3.014,1.876-1.958a10.109,10.109,0,0,0,3.334,1.3h0l.058,2.713,4.356-.093-.058-2.713a10.111,10.111,0,0,0,3.276-1.439Zm-5.32-4.46a6.32,6.32,0,0,1-4.356.093q-.235-.081-.465-.181a6.322,6.322,0,0,1-3.146-3.014q-.11-.225-.2-.457a6.318,6.318,0,0,1-.093-4.356q.081-.235.181-.465a6.328,6.328,0,0,1,3.014-3.146q.225-.109.457-.2a6.321,6.321,0,0,1,4.356-.093q.235.08.465.181a6.325,6.325,0,0,1,3.146,3.014q.11.225.2.457a6.32,6.32,0,0,1,.093,4.356q-.081.235-.181.465a6.324,6.324,0,0,1-3.014,3.146C2129.459,915.324,2129.307,915.39,2129.152,915.451Z" transform="translate(-2089.905 -896.898)" fill="#ff8c85"/>
            </g>
          </g>
          <g id="Grupo_1178933" data-name="Grupo 1178933" transform="translate(7.876 22.294)">
            <path id="Trazado_1038655" data-name="Trazado 1038655" d="M1927.889,1158.645a.41.41,0,0,1-.06,0,.4.4,0,0,1-.331-.449,9.26,9.26,0,0,1,3.51-5.706c1.955-1.382,4.481-1.787,7.507-1.2a.395.395,0,1,1-.149.775c-2.807-.54-5.129-.179-6.9,1.074a8.574,8.574,0,0,0-3.186,5.18A.394.394,0,0,1,1927.889,1158.645Z" transform="translate(-1927.494 -1151.022)" fill="#10171b"/>
          </g>
          <g id="Grupo_1178934" data-name="Grupo 1178934" transform="translate(22.029 39.225)">
            <path id="Trazado_1038656" data-name="Trazado 1038656" d="M2089.22,1346.852a.395.395,0,0,1-.184-.745,12.386,12.386,0,0,0,2.645-1.976.395.395,0,0,1,.56.557,12.953,12.953,0,0,1-2.838,2.118A.386.386,0,0,1,2089.22,1346.852Z" transform="translate(-2088.825 -1344.015)" fill="#10171b"/>
          </g>
          <g id="Grupo_1178935" data-name="Grupo 1178935" transform="translate(27.651 23.62)">
            <path id="Trazado_1038657" data-name="Trazado 1038657" d="M2153.3,1167.66a.395.395,0,0,1-.092-.779l3.011-.728a.395.395,0,0,1,.185.767l-3.011.728A.389.389,0,0,1,2153.3,1167.66Z" transform="translate(-2152.902 -1166.142)" fill="#10171b"/>
          </g>
          <g id="Grupo_1178936" data-name="Grupo 1178936" transform="translate(38.599 6.339)">
            <path id="Trazado_1038658" data-name="Trazado 1038658" d="M2282.225,974.7a.394.394,0,0,1-.385-.307,6.255,6.255,0,0,0-3.865-4.468.395.395,0,1,1,.237-.753,6.969,6.969,0,0,1,4.4,5.045.4.4,0,0,1-.3.473A.359.359,0,0,1,2282.225,974.7Z" transform="translate(-2277.699 -969.155)" fill="#10171b"/>
          </g>
          <g id="Grupo_1178937" data-name="Grupo 1178937" transform="translate(38.95 22.762)">
            <path id="Trazado_1038659" data-name="Trazado 1038659" d="M2282.134,1158.73a.4.4,0,0,1-.395-.386l-.034-1.587a.395.395,0,0,1,.79-.017l.034,1.587a.394.394,0,0,1-.386.4Z" transform="translate(-2281.705 -1156.354)" fill="#10171b"/>
          </g>
        </g>
        <g id="Grupo_1178949" data-name="Grupo 1178949" transform="translate(8.684 103.96)">
          <g id="Grupo_1178942" data-name="Grupo 1178942" transform="translate(0)">
            <g id="Grupo_1178939" data-name="Grupo 1178939" transform="translate(0 20.889)">
              <rect id="Rectángulo_415495" data-name="Rectángulo 415495" width="5.621" height="10.855" transform="translate(2.612 21.868) rotate(13.922)" fill="#a3a1ff"/>
              <rect id="Rectángulo_415496" data-name="Rectángulo 415496" width="5.621" height="14.972" transform="translate(13.995 20.45) rotate(13.922)" fill="#fab54e"/>
              <rect id="Rectángulo_415497" data-name="Rectángulo 415497" width="5.621" height="22.344" transform="translate(26.164 15.87) rotate(13.922)" fill="#a3a1ff"/>
              <rect id="Rectángulo_415498" data-name="Rectángulo 415498" width="5.621" height="29.893" transform="translate(38.373 11.12) rotate(13.922)" fill="#ff8c85"/>
              <rect id="Rectángulo_415499" data-name="Rectángulo 415499" width="5.621" height="37.46" transform="translate(50.588 6.351) rotate(13.922)" fill="#a3a1ff"/>
              <rect id="Rectángulo_415500" data-name="Rectángulo 415500" width="5.621" height="46.658" transform="translate(63.194 0) rotate(13.922)" fill="#fab54e"/>
            </g>
            <g id="Grupo_1178941" data-name="Grupo 1178941" transform="translate(3.317)">
              <g id="Grupo_1178940" data-name="Grupo 1178940" transform="translate(0 4.179)">
                <path id="Trazado_1038660" data-name="Trazado 1038660" d="M1918.538,1313.858a1.006,1.006,0,0,1,.3-1.981h0a44.8,44.8,0,0,0,5.9-.241,79.2,79.2,0,0,0,15.214-3.062c11.331-3.429,28.1-11.176,43.611-28.609a1.006,1.006,0,0,1,1.5,1.338,103.612,103.612,0,0,1-23.29,19.636,91.792,91.792,0,0,1-21.334,9.589,81.129,81.129,0,0,1-15.6,3.119,45.406,45.406,0,0,1-6.113.239A.979.979,0,0,1,1918.538,1313.858Z" transform="translate(-1917.776 -1279.629)" fill="#e994f2"/>
              </g>
              <path id="Trazado_1038661" data-name="Trazado 1038661" d="M2371.068,1247.458l-11.074,4.528a.963.963,0,0,0-.225,1.652l9.458,7.326a.963.963,0,0,0,1.543-.631l1.616-11.854A.962.962,0,0,0,2371.068,1247.458Z" transform="translate(-2302.156 -1247.384)" fill="#e994f2"/>
            </g>
          </g>
          <g id="Grupo_1178948" data-name="Grupo 1178948" transform="translate(5.486 15.549)">
            <g id="Grupo_1178943" data-name="Grupo 1178943" transform="translate(44.667 20.608)">
              <path id="Trazado_1038662" data-name="Trazado 1038662" d="M2279.709,1540.786a.584.584,0,0,1-.566-.724l3.291-13.272a.583.583,0,1,1,1.132.281l-3.29,13.272A.583.583,0,0,1,2279.709,1540.786Z" transform="translate(-2279.126 -1526.347)" fill="#10171b"/>
            </g>
            <g id="Grupo_1178944" data-name="Grupo 1178944" transform="translate(42.96)">
              <path id="Trazado_1038663" data-name="Trazado 1038663" d="M2266.539,1376.8a.583.583,0,0,1-.3-1.083,79.527,79.527,0,0,0,11.03-8.215.583.583,0,1,1,.788.86,80.764,80.764,0,0,1-11.217,8.354A.585.585,0,0,1,2266.539,1376.8Z" transform="translate(-2265.955 -1367.352)" fill="#10171b"/>
            </g>
            <g id="Grupo_1178945" data-name="Grupo 1178945" transform="translate(6.064 40.179)">
              <path id="Trazado_1038664" data-name="Trazado 1038664" d="M1984.661,1679.2a.584.584,0,0,1-.141-.017l-2.789-.691a.583.583,0,0,1,.281-1.132l2.789.691a.583.583,0,0,1-.14,1.15Z" transform="translate(-1981.288 -1677.343)" fill="#10171b"/>
            </g>
            <g id="Grupo_1178946" data-name="Grupo 1178946" transform="translate(0 31.07)">
              <path id="Trazado_1038665" data-name="Trazado 1038665" d="M1935.089,1613.209a.584.584,0,0,1-.566-.724l1.234-4.977a.583.583,0,0,1,1.132.281l-1.234,4.978A.585.585,0,0,1,1935.089,1613.209Z" transform="translate(-1934.506 -1607.064)" fill="#10171b"/>
            </g>
            <g id="Grupo_1178947" data-name="Grupo 1178947" transform="translate(52.862 37.065)">
              <path id="Trazado_1038666" data-name="Trazado 1038666" d="M2342.94,1662.748a.584.584,0,0,1-.567-.724l2.048-8.26a.583.583,0,1,1,1.132.281l-2.047,8.26A.582.582,0,0,1,2342.94,1662.748Z" transform="translate(-2342.356 -1653.321)" fill="#10171b"/>
            </g>
          </g>
        </g>
        <g id="Grupo_1178954" data-name="Grupo 1178954" transform="translate(135.092 24.671)">
          <g id="Grupo_1178952" data-name="Grupo 1178952" transform="translate(-33.624 -11)">
            <path id="Trazado_1038669" data-name="Trazado 1038669" d="M3308.763,568.211a.583.583,0,0,1-.583-.583v-16.2a.583.583,0,1,1,1.167,0v16.2A.584.584,0,0,1,3308.763,568.211Z" transform="translate(-3316.18 -491.845)" fill="#10171b"/>
          </g>
        </g>
      </g>
    </g>
  </g>
</svg>
