<svg xmlns="http://www.w3.org/2000/svg" xmlns:xlink="http://www.w3.org/1999/xlink" width="113" height="113" viewBox="0 0 113 113">
  <defs>
    <filter id="Trazado_982547" x="0" y="0" width="113" height="113" filterUnits="userSpaceOnUse">
      <feOffset dy="3" input="SourceAlpha"/>
      <feGaussianBlur stdDeviation="3" result="blur"/>
      <feFlood flood-opacity="0.161"/>
      <feComposite operator="in" in2="blur"/>
      <feComposite in="SourceGraphic"/>
    </filter>
  </defs>
  <g id="Grupo_1174066" data-name="Grupo 1174066" transform="translate(-199.701 -1025)">
    <g id="Grupo_1173569" data-name="Grupo 1173569" transform="translate(28 59)">
      <g id="Grupo_1168704" data-name="Grupo 1168704" transform="translate(0.214 -64.614)">
        <g id="Grupo_1168178" data-name="Grupo 1168178" transform="translate(180.487 1036.614)">
          <g id="Grupo_1166845" data-name="Grupo 1166845" transform="translate(0)">
            <g id="Grupo_1166720" data-name="Grupo 1166720">
              <g id="Grupo_1164305" data-name="Grupo 1164305">
                <g id="Grupo_1163948" data-name="Grupo 1163948">
                  <g id="Grupo_1158168" data-name="Grupo 1158168">
                    <g id="Grupo_1152576" data-name="Grupo 1152576">
                      <g id="Grupo_1148633" data-name="Grupo 1148633">
                        <g id="Grupo_1148525" data-name="Grupo 1148525">
                          <g transform="matrix(1, 0, 0, 1, -9, -6)" filter="url(#Trazado_982547)">
                            <g id="Trazado_982547-2" data-name="Trazado 982547" transform="translate(9 6)" fill="#e4f2f4">
                              <path d="M 47.5 93.5 C 41.28937149047852 93.5 35.26533508300781 92.28397369384766 29.59518623352051 89.88570404052734 C 24.11771965026855 87.56893157958984 19.19813346862793 84.25196075439453 14.97309303283691 80.02691650390625 C 10.74804019927979 75.80186462402344 7.431066513061523 70.88229370117188 5.114293098449707 65.40481567382812 C 2.716026782989502 59.73468017578125 1.5 53.71062850952148 1.5 47.5 C 1.5 41.28937149047852 2.716026782989502 35.26533508300781 5.114293098449707 29.59518623352051 C 7.431066513061523 24.11771965026855 10.74804019927979 19.19813346862793 14.97309303283691 14.97309303283691 C 19.19813346862793 10.74804019927979 24.11771965026855 7.431066513061523 29.59518623352051 5.114293098449707 C 35.26533508300781 2.716026782989502 41.28937149047852 1.5 47.5 1.5 C 53.71062850952148 1.5 59.73468017578125 2.716026782989502 65.40481567382812 5.114293098449707 C 70.88229370117188 7.431066513061523 75.80186462402344 10.74804019927979 80.02691650390625 14.97309303283691 C 84.25196075439453 19.19813346862793 87.56893157958984 24.11771965026855 89.88570404052734 29.59518623352051 C 92.28397369384766 35.26533508300781 93.5 41.28937149047852 93.5 47.5 C 93.5 53.71062850952148 92.28397369384766 59.73468017578125 89.88570404052734 65.40481567382812 C 87.56893157958984 70.88229370117188 84.25196075439453 75.80186462402344 80.02691650390625 80.02691650390625 C 75.80186462402344 84.25196075439453 70.88229370117188 87.56893157958984 65.40481567382812 89.88570404052734 C 59.73468017578125 92.28397369384766 53.71062850952148 93.5 47.5 93.5 Z" stroke="none"/>
                              <path d="M 47.5 3 C 41.49121475219727 3 35.66376876831055 4.176155090332031 30.17950439453125 6.495796203613281 C 24.88084411621094 8.736953735351562 20.12152099609375 11.94598388671875 16.03375244140625 16.03375244140625 C 11.94598388671875 20.12152099609375 8.736953735351562 24.88084411621094 6.495796203613281 30.17950439453125 C 4.176155090332031 35.66376876831055 3 41.49121475219727 3 47.5 C 3 53.50878524780273 4.176155090332031 59.33623123168945 6.495796203613281 64.82049560546875 C 8.736953735351562 70.11915588378906 11.94598388671875 74.87847900390625 16.03375244140625 78.96624755859375 C 20.12152099609375 83.05401611328125 24.88084411621094 86.26304626464844 30.17950439453125 88.50419616699219 C 35.66376876831055 90.82384490966797 41.49121475219727 92 47.5 92 C 53.50878524780273 92 59.33623123168945 90.82384490966797 64.82049560546875 88.50419616699219 C 70.11915588378906 86.26304626464844 74.87847900390625 83.05401611328125 78.96624755859375 78.96624755859375 C 83.05401611328125 74.87847900390625 86.26304626464844 70.11915588378906 88.50419616699219 64.82049560546875 C 90.82384490966797 59.33623123168945 92 53.50878524780273 92 47.5 C 92 41.49121475219727 90.82384490966797 35.66376876831055 88.50419616699219 30.17950439453125 C 86.26304626464844 24.88084411621094 83.05401611328125 20.12152099609375 78.96624755859375 16.03375244140625 C 74.87847900390625 11.94598388671875 70.11915588378906 8.736953735351562 64.82049560546875 6.495796203613281 C 59.33623123168945 4.176155090332031 53.50878524780273 3 47.5 3 M 47.5 0 C 73.7335205078125 0 95 21.2664794921875 95 47.5 C 95 73.7335205078125 73.7335205078125 95 47.5 95 C 21.2664794921875 95 0 73.7335205078125 0 47.5 C 0 21.2664794921875 21.2664794921875 0 47.5 0 Z" stroke="none" fill="#01899b"/>
                            </g>
                          </g>
                        </g>
                      </g>
                    </g>
                  </g>
                </g>
              </g>
            </g>
          </g>
        </g>
      </g>
    </g>
    <g id="accountant" transform="translate(227.701 1050.001)">
      <path id="Trazado_1027301" data-name="Trazado 1027301" d="M29.9,201.277c0,2,1.825,2,1.825,4.006S29.9,207.29,29.9,209.3s1.825,2.007,1.825,4.024c0,.128-.009.246-.018.365l-1.715.575a5.532,5.532,0,0,0-1.916,1.122v-2.609H11.65v15.511a.915.915,0,0,0,.912.912h19.16a3.649,3.649,0,0,1-3.65,3.65H11.65A3.649,3.649,0,0,1,8,229.2V203.649A3.649,3.649,0,0,1,11.65,200H28.073a3.645,3.645,0,0,1,1.925.548,2.479,2.479,0,0,0-.1.73Zm0,0" transform="translate(-7.087 -177.191)" fill="#ccd1d9"/>
      <path id="Trazado_1027302" data-name="Trazado 1027302" d="M40,312v15.511a.915.915,0,0,0,.912.912H54.6v-9.745a5.236,5.236,0,0,1,.137-1.2,5.357,5.357,0,0,1,1.688-2.865V312Zm0,0" transform="translate(-35.438 -276.417)" fill="#fcd770"/>
      <path id="Trazado_1027303" data-name="Trazado 1027303" d="M40,232H56.423v5.474H40Zm0,0" transform="translate(-35.438 -205.541)" fill="#69d6f4"/>
      <path id="Trazado_1027304" data-name="Trazado 1027304" d="M41.124,79.511H34.609a9.124,9.124,0,1,1,13.029,0Zm0,0" transform="translate(-28.35 -56.701)" fill="#fcd770"/>
      <path id="Trazado_1027305" data-name="Trazado 1027305" d="M353.124,321.335h-8.212L344,312.212l1.578-2.637,2.071,1.725,1.825-7.3,5.5,1.834,1.706.566a5.475,5.475,0,0,1,3.741,5.191v9.745Zm0,0" transform="translate(-304.767 -269.33)" fill="#e6e9ed"/>
      <path id="Trazado_1027306" data-name="Trazado 1027306" d="M175.3,321.335H168v-9.745a5.237,5.237,0,0,1,.137-1.2,5.357,5.357,0,0,1,1.688-2.865,5.532,5.532,0,0,1,1.916-1.122l1.715-.575L178.949,304l1.825,7.3,2.071-1.725,1.578,2.637-.912,9.124Zm0,0" transform="translate(-148.84 -269.33)" fill="#e6e9ed"/>
      <path id="Trazado_1027307" data-name="Trazado 1027307" d="M335.3,296.912l-1.825,7.3-2.071-1.725L328,299.65l4.562-3.65Zm0,0" transform="translate(-290.592 -262.242)" fill="#aab2bd"/>
      <path id="Trazado_1027308" data-name="Trazado 1027308" d="M271.3,299.65l-3.4,2.837-2.071,1.725-1.825-7.3,2.737-.912Zm0,0" transform="translate(-233.891 -262.242)" fill="#aab2bd"/>
      <path id="Trazado_1027309" data-name="Trazado 1027309" d="M304.967,330.838l-3.4-2.837-3.4,2.837,1.578,2.637-.912,9.124H304.3l-.912-9.124Zm0,0" transform="translate(-264.155 -290.593)" fill="#ff826e"/>
      <path id="Trazado_1027310" data-name="Trazado 1027310" d="M236.52,24.423A18.746,18.746,0,0,1,229.358,23a18.691,18.691,0,0,1-6.058-4.051,4.81,4.81,0,0,0-3.641,4.562h-.009A3.649,3.649,0,0,0,216,27.16V20.773a12.773,12.773,0,1,1,25.547,0V27.16a3.644,3.644,0,0,0-3.65-3.65v.912Zm0,0" transform="translate(-191.365 -7.088)" fill="#b27946"/>
      <path id="Trazado_1027311" data-name="Trazado 1027311" d="M376.211,176c0,2.007,1.825,2.007,1.825,4.014s-1.825,2-1.825,4.006,1.825,2.007,1.825,4.014-1.825,2.007-1.825,4.024a2.482,2.482,0,0,0,.027.374l-5.5-1.834L368,189.686v-3.047a9.12,9.12,0,0,0,4.517-6.989h.045A3.649,3.649,0,0,0,376.211,176Zm0,0" transform="translate(-326.03 -155.928)" fill="#b27946"/>
      <path id="Trazado_1027312" data-name="Trazado 1027312" d="M210.036,186.638v3.047l-2.737.912-5.493,1.825c.009-.118.018-.237.018-.365,0-2.016-1.825-2.016-1.825-4.024s1.825-2.007,1.825-4.014S200,182.012,200,180.014a2.479,2.479,0,0,1,.1-.73c.374-1.314,1.725-1.56,1.725-3.285a3.644,3.644,0,0,0,3.65,3.65h.045a9.141,9.141,0,0,0,4.517,6.989Zm0,0" transform="translate(-177.19 -155.928)" fill="#b27946"/>
      <g id="Grupo_1174065" data-name="Grupo 1174065" transform="translate(24.635 11.861)">
        <path id="Trazado_1027313" data-name="Trazado 1027313" d="M297.124,269.281v3.047l-4.562,3.65L288,272.328v-3.047a9.123,9.123,0,0,0,9.124,0Zm0,0" transform="translate(-279.788 -250.431)" fill="#f0d0b4"/>
        <path id="Trazado_1027314" data-name="Trazado 1027314" d="M410.23,145.067a3.652,3.652,0,0,1-2.582,6.232H407.6c.027-.3.046-.6.046-.912V144A3.673,3.673,0,0,1,410.23,145.067Zm0,0" transform="translate(-385.75 -139.438)" fill="#f0d0b4"/>
        <path id="Trazado_1027315" data-name="Trazado 1027315" d="M257.708,108.051a18.747,18.747,0,0,0,7.162,1.423h1.378v5.474c0,.31-.018.611-.045.912a9.125,9.125,0,0,1-18.157,0c-.027-.3-.045-.6-.045-.912v-6.277a.455.455,0,0,1,.009-.11A4.81,4.81,0,0,1,251.649,104,18.69,18.69,0,0,0,257.708,108.051Zm0,0" transform="translate(-244.35 -104)" fill="#f0d0b4"/>
        <path id="Trazado_1027316" data-name="Trazado 1027316" d="M219.65,144.11v6.277c0,.31.018.611.045.912h-.045a3.65,3.65,0,1,1,0-7.3h.009A.455.455,0,0,0,219.65,144.11Zm0,0" transform="translate(-216 -139.438)" fill="#f0d0b4"/>
      </g>
      <path id="Trazado_1027317" data-name="Trazado 1027317" d="M281.825,160.912a.912.912,0,1,1-.912-.912A.912.912,0,0,1,281.825,160.912Zm0,0" transform="translate(-248.066 -141.753)"/>
      <path id="Trazado_1027318" data-name="Trazado 1027318" d="M361.825,160.912a.912.912,0,1,1-.912-.912A.912.912,0,0,1,361.825,160.912Zm0,0" transform="translate(-318.942 -141.753)"/>
      <path id="Trazado_1027319" data-name="Trazado 1027319" d="M299.65,217.825A1.827,1.827,0,0,1,297.825,216H296a3.65,3.65,0,1,0,7.3,0h-1.825A1.827,1.827,0,0,1,299.65,217.825Zm0,0" transform="translate(-262.241 -191.366)"/>
      <path id="Trazado_1027320" data-name="Trazado 1027320" d="M52.2,36.208l-1.077-.36a2.014,2.014,0,0,1,.645-1.117,3.564,3.564,0,0,0,0-5.243,1.775,1.775,0,0,1,0-2.785,3.558,3.558,0,0,0,0-5.24,1.817,1.817,0,0,1-.674-1.391V13.685a13.686,13.686,0,1,0-27.372,0v6.387a1.817,1.817,0,0,1-.674,1.391,6.249,6.249,0,0,0-.569.695,4.547,4.547,0,0,0-1.3-.248,10.036,10.036,0,1,0-16.807.006A4.558,4.558,0,0,0,0,26.459V52.006a4.567,4.567,0,0,0,4.562,4.562H20.985a4.569,4.569,0,0,0,4.47-3.65H56.569V42.265A6.377,6.377,0,0,0,52.2,36.208ZM50.42,22.692a1.773,1.773,0,0,1,0,2.783,3.561,3.561,0,0,0,0,5.242,1.776,1.776,0,0,1,0,2.788,3.951,3.951,0,0,0-1.046,1.76L42.883,33.1V31.21a10.047,10.047,0,0,0,4.4-6.652,4.563,4.563,0,0,0,3.049-1.966c.029.033.06.068.09.1ZM37.408,31.021A8.221,8.221,0,0,1,29.2,22.809V16.535a3.9,3.9,0,0,1,2.491-3.641A19.467,19.467,0,0,0,45.15,18.247h.47v4.562a8.221,8.221,0,0,1-8.212,8.212Zm0,1.825a9.965,9.965,0,0,0,3.65-.7v1.171l-3.65,2.921-3.65-2.921V32.148A9.965,9.965,0,0,0,37.408,32.846Zm-4.745,1.935,3.3,2.641-3.5,2.916L31.2,35.269Zm3.745,9.013h2l.73,7.3H35.679Zm2.308-1.825H36.1l-.914-1.523L37.408,38.6l2.222,1.852Zm.134-4.547,3.3-2.641,1.464.488-1.268,5.069ZM47.445,17.5a2.721,2.721,0,0,1,0,5.138ZM37.408,1.824A11.875,11.875,0,0,1,49.269,13.685v2.761a4.517,4.517,0,0,0-1.825-.843v-2.83H45.62v3.65h-.47a17.657,17.657,0,0,1-12.571-5.207l-.365-.365-.5.126a5.72,5.72,0,0,0-4.262,4.619,4.514,4.514,0,0,0-1.9.851V13.685A11.875,11.875,0,0,1,37.408,1.824ZM25.547,20.072A2.733,2.733,0,0,1,27.372,17.5V22.64a2.731,2.731,0,0,1-1.825-2.568ZM24.4,22.692l.091-.1a4.59,4.59,0,0,0,3.045,1.966,10.045,10.045,0,0,0,4.4,6.655V33.1l-6.49,2.163A3.947,3.947,0,0,0,24.4,33.5a1.778,1.778,0,0,1,0-2.788,3.56,3.56,0,0,0,0-5.241,1.774,1.774,0,0,1,0-2.784ZM12.774,8.211A8.2,8.2,0,0,1,18.882,21.9h-5.2v-1.08a2.73,2.73,0,0,0-.912-5.306.912.912,0,1,1,.912-.912h1.825a2.733,2.733,0,0,0-1.825-2.569V10.036H11.861v1.993a2.73,2.73,0,0,0,.912,5.306.912.912,0,1,1-.912.912H10.036a2.733,2.733,0,0,0,1.825,2.569V21.9h-5.2A8.2,8.2,0,0,1,12.774,8.211ZM23.722,51.093v.912a2.741,2.741,0,0,1-2.737,2.737H4.562a2.741,2.741,0,0,1-2.737-2.737V26.459a2.741,2.741,0,0,1,2.737-2.737H20.985a2.731,2.731,0,0,1,.924.167c0,.065-.012.126-.012.194a3.6,3.6,0,0,0,1.151,2.62,1.775,1.775,0,0,1,0,2.785,3.564,3.564,0,0,0,0,5.243,2.019,2.019,0,0,1,.645,1.117l-1.077.36a6.353,6.353,0,0,0-.717.3V34.67H3.65V51.093a1.827,1.827,0,0,0,1.825,1.825H21.9V51.093H20.073V42.265a4.556,4.556,0,0,1,3.119-4.328l6.271-2.09L31.4,43.6l2.367-1.972.878,1.463-.8,8H27.372v-.378l-.8-.8a3.493,3.493,0,0,1,0-4.94l.8-.8v-2.2H25.547v1.447l-.267.267a5.307,5.307,0,0,0-.1,7.41Zm-5.474,0H16.423v-3.65h1.825Zm-7.3-10.949V36.5H14.6v3.65Zm3.65,1.825v3.65h-3.65v-3.65ZM9.124,40.145H5.474V36.5h3.65Zm-3.65,1.825h3.65v3.65H5.474Zm0,5.474h3.65v3.65H5.474Zm5.474,0H14.6v3.65h-3.65Zm7.3-5.179v3.354H16.423v-3.65h1.848c0,.1-.024.2-.024.3Zm.372-2.121h-2.2V36.5h3.65v1.3A6.365,6.365,0,0,0,18.62,40.145ZM54.744,51.093H49.636a5.307,5.307,0,0,0-.1-7.41l-.267-.267V41.969H47.445v2.2l.8.8a3.493,3.493,0,0,1,0,4.94l-.8.8v.378H40.971l-.8-8,.878-1.463L43.415,43.6l1.938-7.754,6.271,2.09a4.559,4.559,0,0,1,3.119,4.329Zm0,0"/>
      <path id="Trazado_1027321" data-name="Trazado 1027321" d="M32,224v7.3H50.248V224Zm16.423,5.474h-14.6v-3.65h14.6Zm0,0" transform="translate(-28.35 -198.454)"/>
    </g>
  </g>
</svg>
