<svg xmlns="http://www.w3.org/2000/svg" xmlns:xlink="http://www.w3.org/1999/xlink" width="113" height="113" viewBox="0 0 113 113">
  <defs>
    <filter id="Trazado_982547" x="0" y="0" width="113" height="113" filterUnits="userSpaceOnUse">
      <feOffset dy="3" input="SourceAlpha"/>
      <feGaussianBlur stdDeviation="3" result="blur"/>
      <feFlood flood-opacity="0.161"/>
      <feComposite operator="in" in2="blur"/>
      <feComposite in="SourceGraphic"/>
    </filter>
  </defs>
  <g id="Grupo_1174234" data-name="Grupo 1174234" transform="translate(-171 -970)">
    <g id="Grupo_1173577" data-name="Grupo 1173577" transform="translate(0 -1581)">
      <g id="Grupo_1168598" data-name="Grupo 1168598" transform="translate(0 -730)">
        <g id="Grupo_1167519" data-name="Grupo 1167519" transform="translate(180 3287)">
          <g id="Grupo_1166845" data-name="Grupo 1166845" transform="translate(0)">
            <g id="Grupo_1166720" data-name="Grupo 1166720">
              <g id="Grupo_1164305" data-name="Grupo 1164305">
                <g id="Grupo_1163948" data-name="Grupo 1163948">
                  <g id="Grupo_1158168" data-name="Grupo 1158168">
                    <g id="Grupo_1152576" data-name="Grupo 1152576">
                      <g id="Grupo_1148633" data-name="Grupo 1148633">
                        <g id="Grupo_1148525" data-name="Grupo 1148525">
                          <g transform="matrix(1, 0, 0, 1, -9, -6)" filter="url(#Trazado_982547)">
                            <g id="Trazado_982547-2" data-name="Trazado 982547" transform="translate(9 6)" fill="#fdf4ee">
                              <path d="M 47.5 93.5 C 41.28937149047852 93.5 35.26533508300781 92.28397369384766 29.59518623352051 89.88570404052734 C 24.11771965026855 87.56893157958984 19.19813346862793 84.25196075439453 14.97309303283691 80.02691650390625 C 10.74804019927979 75.80186462402344 7.431066513061523 70.88229370117188 5.114293098449707 65.40481567382812 C 2.716026782989502 59.73468017578125 1.5 53.71062850952148 1.5 47.5 C 1.5 41.28937149047852 2.716026782989502 35.26533508300781 5.114293098449707 29.59518623352051 C 7.431066513061523 24.11771965026855 10.74804019927979 19.19813346862793 14.97309303283691 14.97309303283691 C 19.19813346862793 10.74804019927979 24.11771965026855 7.431066513061523 29.59518623352051 5.114293098449707 C 35.26533508300781 2.716026782989502 41.28937149047852 1.5 47.5 1.5 C 53.71062850952148 1.5 59.73468017578125 2.716026782989502 65.40481567382812 5.114293098449707 C 70.88229370117188 7.431066513061523 75.80186462402344 10.74804019927979 80.02691650390625 14.97309303283691 C 84.25196075439453 19.19813346862793 87.56893157958984 24.11771965026855 89.88570404052734 29.59518623352051 C 92.28397369384766 35.26533508300781 93.5 41.28937149047852 93.5 47.5 C 93.5 53.71062850952148 92.28397369384766 59.73468017578125 89.88570404052734 65.40481567382812 C 87.56893157958984 70.88229370117188 84.25196075439453 75.80186462402344 80.02691650390625 80.02691650390625 C 75.80186462402344 84.25196075439453 70.88229370117188 87.56893157958984 65.40481567382812 89.88570404052734 C 59.73468017578125 92.28397369384766 53.71062850952148 93.5 47.5 93.5 Z" stroke="none"/>
                              <path d="M 47.5 3 C 41.49121475219727 3 35.66376876831055 4.176155090332031 30.17950439453125 6.495796203613281 C 24.88084411621094 8.736953735351562 20.12152099609375 11.94598388671875 16.03375244140625 16.03375244140625 C 11.94598388671875 20.12152099609375 8.736953735351562 24.88084411621094 6.495796203613281 30.17950439453125 C 4.176155090332031 35.66376876831055 3 41.49121475219727 3 47.5 C 3 53.50878524780273 4.176155090332031 59.33623123168945 6.495796203613281 64.82049560546875 C 8.736953735351562 70.11915588378906 11.94598388671875 74.87847900390625 16.03375244140625 78.96624755859375 C 20.12152099609375 83.05401611328125 24.88084411621094 86.26304626464844 30.17950439453125 88.50419616699219 C 35.66376876831055 90.82384490966797 41.49121475219727 92 47.5 92 C 53.50878524780273 92 59.33623123168945 90.82384490966797 64.82049560546875 88.50419616699219 C 70.11915588378906 86.26304626464844 74.87847900390625 83.05401611328125 78.96624755859375 78.96624755859375 C 83.05401611328125 74.87847900390625 86.26304626464844 70.11915588378906 88.50419616699219 64.82049560546875 C 90.82384490966797 59.33623123168945 92 53.50878524780273 92 47.5 C 92 41.49121475219727 90.82384490966797 35.66376876831055 88.50419616699219 30.17950439453125 C 86.26304626464844 24.88084411621094 83.05401611328125 20.12152099609375 78.96624755859375 16.03375244140625 C 74.87847900390625 11.94598388671875 70.11915588378906 8.736953735351562 64.82049560546875 6.495796203613281 C 59.33623123168945 4.176155090332031 53.50878524780273 3 47.5 3 M 47.5 0 C 73.7335205078125 0 95 21.2664794921875 95 47.5 C 95 73.7335205078125 73.7335205078125 95 47.5 95 C 21.2664794921875 95 0 73.7335205078125 0 47.5 C 0 21.2664794921875 21.2664794921875 0 47.5 0 Z" stroke="none" fill="#ee9865"/>
                            </g>
                          </g>
                        </g>
                      </g>
                    </g>
                  </g>
                </g>
              </g>
            </g>
          </g>
        </g>
      </g>
    </g>
    <g id="XMLID_2297_" transform="translate(176.627 995.75)">
      <g id="XMLID_2298_" transform="translate(26.751 0.814)">
        <g id="XMLID_2299_" transform="translate(0)">
          <g id="XMLID_2300_" transform="translate(10.017)">
            <g id="XMLID_2301_">
              <path id="XMLID_2302_" d="M164.006,9.915V54.134a2.415,2.415,0,0,1-2.415,2.415h-33.4a2.415,2.415,0,0,1-2.415-2.415V9.915A2.415,2.415,0,0,1,128.192,7.5h33.4A2.415,2.415,0,0,1,164.006,9.915Z" transform="translate(-125.777 -7.5)" fill="#9eafc6"/>
              <path id="XMLID_2303_" d="M138.645,181.338a2.515,2.515,0,0,1-.076.615c2.57,1.059,3.143,2.406,3.143,3.4v4.543c0,.988-.573,2.335-3.143,3.394a2.515,2.515,0,0,1,.076.615v3.205H128.192a2.415,2.415,0,0,1-2.415-2.415V165.38a32.887,32.887,0,0,1,3.842-.22,26.9,26.9,0,0,1,8.035,1.1c3.354,1.1,4.058,2.634,4.058,3.732v4.543c0,.978-.562,2.308-3.067,3.362Z" transform="translate(-125.777 -148.058)" fill="#8590a8"/>
              <rect id="XMLID_2304_" width="28.861" height="7.996" transform="translate(4.684 5.834)" fill="#57d3d0"/>
              <path id="XMLID_2305_" d="M242.1,61.28l-7.995,8h-4.772l8-8Z" transform="translate(-218.103 -55.446)" fill="#8ce5e1"/>
              <path id="XMLID_2306_" d="M307.255,61.28l-8,8h-4.772l8-8Z" transform="translate(-276.186 -55.446)" fill="#8ce5e1"/>
              <g id="XMLID_2307_" transform="translate(4.852 19.046)">
                <path id="XMLID_2833_" d="M174.077,186.186h-2.014a1.554,1.554,0,0,1-1.554-1.554h0a1.554,1.554,0,0,1,1.554-1.554h2.014a1.554,1.554,0,0,1,1.554,1.554h0A1.554,1.554,0,0,1,174.077,186.186Z" transform="translate(-170.509 -183.078)" fill="#ed6294"/>
                <path id="XMLID_2308_" d="M247.54,184.633a1.554,1.554,0,0,1-1.554,1.554h-2.014a1.554,1.554,0,0,1-.306-3.077,1.591,1.591,0,0,1,.306-.03h2.014A1.554,1.554,0,0,1,247.54,184.633Z" transform="translate(-234.617 -183.08)" fill="#ed6294"/>
                <path id="XMLID_2309_" d="M245.7,186.214v.223h-1.728a1.554,1.554,0,0,1-.306-3.077C245.3,184.309,245.7,185.386,245.7,186.214Z" transform="translate(-234.617 -183.329)" fill="#dc4173"/>
                <path id="XMLID_2830_" d="M317.9,186.186h-2.014a1.554,1.554,0,0,1-1.554-1.554h0a1.554,1.554,0,0,1,1.554-1.554H317.9a1.554,1.554,0,0,1,1.554,1.554h0A1.554,1.554,0,0,1,317.9,186.186Z" transform="translate(-298.729 -183.078)" fill="#ed6294"/>
                <path id="XMLID_2829_" d="M389.808,186.186h-2.014a1.554,1.554,0,0,1-1.554-1.554h0a1.554,1.554,0,0,1,1.554-1.554h2.014a1.554,1.554,0,0,1,1.554,1.554h0A1.554,1.554,0,0,1,389.808,186.186Z" transform="translate(-362.838 -183.078)" fill="#ed6294"/>
              </g>
              <g id="XMLID_2310_" transform="translate(4.852 26.956)">
                <path id="XMLID_2827_" d="M174.077,259.113h-2.014a1.554,1.554,0,0,1-1.554-1.554h0a1.554,1.554,0,0,1,1.554-1.554h2.014a1.554,1.554,0,0,1,1.554,1.554h0A1.554,1.554,0,0,1,174.077,259.113Z" transform="translate(-170.509 -256.004)" fill="#697491"/>
                <path id="XMLID_2311_" d="M247.54,257.554a1.556,1.556,0,0,1-1.554,1.554h-2.014a1.554,1.554,0,0,1,0-3.109h2.014A1.555,1.555,0,0,1,247.54,257.554Z" transform="translate(-234.617 -256)" fill="#697491"/>
                <path id="XMLID_2312_" d="M242.417,257.554A1.556,1.556,0,0,1,243.971,256h1.681c-.167.857-.831,1.874-2.692,2.735A1.55,1.55,0,0,1,242.417,257.554Z" transform="translate(-234.617 -256)" fill="#515b7c"/>
                <path id="XMLID_2824_" d="M317.9,259.113h-2.014a1.554,1.554,0,0,1-1.554-1.554h0a1.554,1.554,0,0,1,1.554-1.554H317.9a1.554,1.554,0,0,1,1.554,1.554h0A1.554,1.554,0,0,1,317.9,259.113Z" transform="translate(-298.729 -256.004)" fill="#697491"/>
                <path id="XMLID_2823_" d="M389.808,259.113h-2.014a1.554,1.554,0,0,1-1.554-1.554h0a1.554,1.554,0,0,1,1.554-1.554h2.014a1.554,1.554,0,0,1,1.554,1.554h0A1.554,1.554,0,0,1,389.808,259.113Z" transform="translate(-362.838 -256.004)" fill="#697491"/>
              </g>
              <g id="XMLID_2313_" transform="translate(4.852 33.313)">
                <path id="XMLID_2821_" d="M174.077,317.714h-2.014a1.554,1.554,0,0,1-1.554-1.554h0a1.554,1.554,0,0,1,1.554-1.554h2.014a1.554,1.554,0,0,1,1.554,1.554h0A1.554,1.554,0,0,1,174.077,317.714Z" transform="translate(-170.509 -314.605)" fill="#697491"/>
                <path id="XMLID_2314_" d="M247.54,316.154a1.556,1.556,0,0,1-1.554,1.554h-2.014a1.554,1.554,0,0,1-1.262-2.462,1.438,1.438,0,0,1,.163-.191,1.547,1.547,0,0,1,1.1-.456h2.014A1.555,1.555,0,0,1,247.54,316.154Z" transform="translate(-234.617 -314.6)" fill="#697491"/>
                <path id="XMLID_2315_" d="M242.417,321.468a1.546,1.546,0,0,1,.293-.908,4.685,4.685,0,0,1,2.836,2.462h-1.574A1.555,1.555,0,0,1,242.417,321.468Z" transform="translate(-234.617 -319.913)" fill="#515b7c"/>
                <path id="XMLID_2818_" d="M317.9,317.714h-2.014a1.554,1.554,0,0,1-1.554-1.554h0a1.554,1.554,0,0,1,1.554-1.554H317.9a1.554,1.554,0,0,1,1.554,1.554h0A1.554,1.554,0,0,1,317.9,317.714Z" transform="translate(-298.729 -314.605)" fill="#697491"/>
                <path id="XMLID_2817_" d="M389.808,317.714h-2.014a1.554,1.554,0,0,1-1.554-1.554h0a1.554,1.554,0,0,1,1.554-1.554h2.014a1.554,1.554,0,0,1,1.554,1.554h0A1.554,1.554,0,0,1,389.808,317.714Z" transform="translate(-362.838 -314.605)" fill="#697491"/>
              </g>
              <g id="XMLID_2316_" transform="translate(4.852 39.67)">
                <path id="XMLID_2815_" d="M174.077,376.314h-2.014a1.554,1.554,0,0,1-1.554-1.554h0a1.554,1.554,0,0,1,1.554-1.554h2.014a1.554,1.554,0,0,1,1.554,1.554h0A1.554,1.554,0,0,1,174.077,376.314Z" transform="translate(-170.509 -373.206)" fill="#697491"/>
                <g id="XMLID_2317_" transform="translate(7.8 0)">
                  <path id="XMLID_2318_" d="M247.54,374.763a1.556,1.556,0,0,1-1.554,1.554h-2.014a1.554,1.554,0,1,1,0-3.108h2.014A1.554,1.554,0,0,1,247.54,374.763Z" transform="translate(-242.417 -373.21)" fill="#697491"/>
                </g>
                <path id="XMLID_2319_" d="M243.971,373.21H245.7v2.163a2.519,2.519,0,0,1-.183.945h-1.545a1.554,1.554,0,1,1,0-3.108Z" transform="translate(-234.617 -373.21)" fill="#515b7c"/>
                <path id="XMLID_2811_" d="M317.9,376.314h-2.014a1.554,1.554,0,0,1-1.554-1.554h0a1.554,1.554,0,0,1,1.554-1.554H317.9a1.554,1.554,0,0,1,1.554,1.554h0A1.554,1.554,0,0,1,317.9,376.314Z" transform="translate(-298.729 -373.206)" fill="#697491"/>
                <path id="XMLID_2810_" d="M389.808,376.314h-2.014a1.554,1.554,0,0,1-1.554-1.554h0a1.554,1.554,0,0,1,1.554-1.554h2.014a1.554,1.554,0,0,1,1.554,1.554h0A1.554,1.554,0,0,1,389.808,376.314Z" transform="translate(-362.838 -373.206)" fill="#697491"/>
              </g>
            </g>
          </g>
          <g id="XMLID_2320_" transform="translate(0 18.404)">
            <g id="XMLID_2321_" transform="translate(0 23.913)">
              <path id="XMLID_2322_" d="M33.438,430.114v4.543c0,1.948,4.832,3.526,10.792,3.526s10.792-1.579,10.792-3.526v-4.543Z" transform="translate(-33.438 -426.588)" fill="#efae2e"/>
              <ellipse id="XMLID_2805_" cx="10.792" cy="3.526" rx="10.792" ry="3.526" fill="#ffd243"/>
            </g>
            <g id="XMLID_2323_" transform="translate(3.067 15.36)">
              <path id="XMLID_2324_" d="M61.708,351.267v4.543c0,1.948,4.832,3.526,10.792,3.526s10.792-1.579,10.792-3.526v-4.543Z" transform="translate(-61.708 -347.741)" fill="#efae2e"/>
              <ellipse id="XMLID_2802_" cx="10.792" cy="3.526" rx="10.792" ry="3.526" transform="translate(0)" fill="#ffd243"/>
            </g>
            <g id="XMLID_2325_" transform="translate(0 6.807)">
              <path id="XMLID_2326_" d="M33.438,272.42v4.543c0,1.948,4.832,3.526,10.792,3.526s10.792-1.579,10.792-3.526V272.42Z" transform="translate(-33.438 -268.894)" fill="#efae2e"/>
              <ellipse id="XMLID_2799_" cx="10.792" cy="3.526" rx="10.792" ry="3.526" fill="#ffd243"/>
            </g>
            <g id="XMLID_2327_" transform="translate(3.067)">
              <path id="XMLID_2328_" d="M61.708,209.668v4.543c0,1.948,4.832,3.526,10.792,3.526s10.792-1.579,10.792-3.526v-4.543Z" transform="translate(-61.708 -206.142)" fill="#efae2e"/>
              <ellipse id="XMLID_2796_" cx="10.792" cy="3.526" rx="10.792" ry="3.526" transform="translate(0)" fill="#ffd243"/>
            </g>
          </g>
        </g>
      </g>
      <g id="XMLID_2329_" transform="translate(25.937)">
        <path id="XMLID_2330_" d="M75,37.271a.814.814,0,0,0-.814.814v9.363a1.6,1.6,0,0,1-1.6,1.6H49.148V46.657a2.08,2.08,0,0,0-.212-.9,7.226,7.226,0,0,0,2.412-1.353h1.64a2.368,2.368,0,0,0,0-4.735h-.774V38.1c0-.018,0-.037,0-.055h.775a2.368,2.368,0,0,0,0-4.735H50.974a2.364,2.364,0,0,0-1.829.866c0-.029,0-.057,0-.086V30.83a2.364,2.364,0,0,0,1.826.862h2.014a2.368,2.368,0,0,0,0-4.735h-.774V23.781h.774a2.368,2.368,0,0,0,0-4.735H50.974a2.376,2.376,0,0,0-1.7.718,24.789,24.789,0,0,0-8.669-1.36c-1.018,0-2.038.047-3.029.139V3.229a1.6,1.6,0,0,1,1.6-1.6h6.583a.814.814,0,0,0,0-1.627H39.182a3.232,3.232,0,0,0-3.229,3.229V18.741c-3.883.588-6.95,1.939-6.95,4v3.773c-2.527.977-3.067,2.183-3.067,3.034v4.543c0,1.344,1.3,2.386,3.278,3.112a2.079,2.079,0,0,0-.212.9v4.543a2.051,2.051,0,0,0,.208.9c-2.678.975-3.274,2.209-3.274,3.113V51.2c0,2.707,5.1,3.993,9.471,4.272l.053,0a.814.814,0,0,0,.051-1.626c-5.548-.354-7.948-1.925-7.948-2.649V48.987C29.7,50.313,33.637,51,37.542,51s7.843-.684,9.978-2.01V51.2c0,.811-2.8,2.4-8.393,2.674a.814.814,0,0,0,.039,1.626h.041c4.948-.244,9.94-1.668,9.94-4.3v-.524H72.581a3.232,3.232,0,0,0,3.229-3.229V38.085A.813.813,0,0,0,75,37.271Zm-27.009,7.1a24.752,24.752,0,0,1-7.378.993c-6.456,0-9.978-1.792-9.978-2.713V40.434c2.136,1.326,6.073,2.01,9.978,2.01s7.843-.684,9.978-2.01v2.213C50.588,42.97,50.04,43.7,47.987,44.367ZM30.825,37.692a28.77,28.77,0,0,0,6.717.742c4.027,0,8.088-.727,10.172-2.136,2.265.686,2.873,1.476,2.873,1.806s-.548,1.05-2.6,1.72a24.753,24.753,0,0,1-7.378.993c-6.456,0-9.978-1.792-9.978-2.713A.7.7,0,0,1,30.825,37.692Zm-.194-12.618c2.136,1.326,6.073,2.01,9.978,2.01s7.843-.684,9.978-2.01v2.213c0,.254-.339.758-1.482,1.287l-.009,0a10.213,10.213,0,0,1-1.109.429A24.753,24.753,0,0,1,40.609,30c-6.456,0-9.978-1.792-9.978-2.713V25.074ZM52.989,41.3a.741.741,0,0,1,0,1.481H52.21q0-.065,0-.132V41.3h.774Zm-2.014-6.357h2.014a.741.741,0,0,1,0,1.481H51.437a5.155,5.155,0,0,0-1.193-.855A.741.741,0,0,1,50.974,34.941Zm2.755-5.616a.741.741,0,0,1-.74.74H50.974a.74.74,0,0,1-.607-.317,4.423,4.423,0,0,0,1.4-1.164h1.224A.741.741,0,0,1,53.729,29.324Zm-2.755-8.651h2.014a.74.74,0,0,1,0,1.481h-.862a2.983,2.983,0,0,0-1.155-1.481Zm-17.743.351a24.753,24.753,0,0,1,7.378-.993c6.456,0,9.978,1.792,9.978,2.713,0,.323-.548,1.05-2.6,1.72a24.753,24.753,0,0,1-7.378.993c-6.456,0-9.978-1.792-9.978-2.713C30.631,22.421,31.179,21.694,33.231,21.024ZM29.214,28.19c1.093,2.26,6.272,3.436,11.395,3.436a32.192,32.192,0,0,0,3.925-.236,25.715,25.715,0,0,1-6.992.873c-6.456,0-9.978-1.792-9.978-2.713C27.564,29.215,28.08,28.688,29.214,28.19Zm-1.65,5.9V31.881c2.136,1.326,6.073,2.01,9.978,2.01,3.683,0,7.771-.638,9.978-2.007v2.21c0,.323-.548,1.05-2.6,1.72a24.753,24.753,0,0,1-7.378.993C31.086,36.806,27.564,35.014,27.564,34.094ZM44.921,48.377a24.753,24.753,0,0,1-7.378.993c-6.456,0-9.978-1.792-9.978-2.713,0-.456.9-1.207,2.873-1.806,2.085,1.408,6.145,2.135,10.172,2.135a28.767,28.767,0,0,0,6.718-.742.7.7,0,0,1,.194.412C47.521,46.98,46.973,47.707,44.921,48.377Z" transform="translate(-25.937)"/>
        <path id="XMLID_2343_" d="M259.328,0H236.22a.814.814,0,0,0,0,1.627h23.108a1.6,1.6,0,0,1,1.6,1.6V34.377a.814.814,0,1,0,1.627,0V3.229A3.232,3.232,0,0,0,259.328,0Z" transform="translate(-212.684)"/>
        <path id="XMLID_2344_" d="M191.943,54.589a.814.814,0,0,0-.814-.814H162.269a.814.814,0,0,0-.814.814v8a.814.814,0,0,0,.814.814H191.13a.814.814,0,0,0,.814-.814v-8Zm-1.627,7.183H163.082V55.4h27.234v6.37Z" transform="translate(-146.755 -47.942)"/>
        <path id="XMLID_2347_" d="M311.212,175.578H309.2a2.368,2.368,0,0,0,0,4.735h2.014a2.368,2.368,0,1,0,0-4.735Zm0,3.108H309.2a.74.74,0,0,1,0-1.481h2.014a.74.74,0,0,1,0,1.481Z" transform="translate(-276.36 -156.532)"/>
        <path id="XMLID_2350_" d="M383.122,175.578h-2.014a2.368,2.368,0,0,0,0,4.735h2.014a2.368,2.368,0,0,0,0-4.735Zm0,3.108h-2.014a.74.74,0,0,1,0-1.481h2.014a.74.74,0,0,1,0,1.481Z" transform="translate(-340.469 -156.532)"/>
        <path id="XMLID_2353_" d="M311.212,248.5H309.2a2.368,2.368,0,0,0,0,4.735h2.014a2.368,2.368,0,1,0,0-4.735Zm0,3.108H309.2a.74.74,0,0,1,0-1.481h2.014a.74.74,0,0,1,0,1.481Z" transform="translate(-276.36 -221.547)"/>
        <path id="XMLID_2356_" d="M383.122,248.5h-2.014a2.368,2.368,0,0,0,0,4.735h2.014a2.368,2.368,0,0,0,0-4.735Zm0,3.108h-2.014a.74.74,0,0,1,0-1.481h2.014a.74.74,0,0,1,0,1.481Z" transform="translate(-340.469 -221.547)"/>
        <path id="XMLID_2359_" d="M311.212,307.105H309.2a2.368,2.368,0,0,0,0,4.735h2.014a2.368,2.368,0,0,0,0-4.735Zm0,3.108H309.2a.741.741,0,0,1,0-1.481h2.014a.741.741,0,0,1,0,1.481Z" transform="translate(-276.36 -273.792)"/>
        <path id="XMLID_2362_" d="M383.122,307.105h-2.014a2.368,2.368,0,0,0,0,4.735h2.014a2.368,2.368,0,0,0,0-4.735Zm0,3.108h-2.014a.741.741,0,0,1,0-1.481h2.014a.741.741,0,0,1,0,1.481Z" transform="translate(-340.469 -273.792)"/>
        <path id="XMLID_2365_" d="M311.212,365.706H309.2a2.368,2.368,0,0,0,0,4.735h2.014a2.368,2.368,0,0,0,0-4.735Zm0,3.108H309.2a.741.741,0,0,1,0-1.481h2.014a.741.741,0,0,1,0,1.481Z" transform="translate(-276.36 -326.036)"/>
        <path id="XMLID_2368_" d="M383.122,365.706h-2.014a2.368,2.368,0,0,0,0,4.735h2.014a2.368,2.368,0,0,0,0-4.735Zm0,3.108h-2.014a.741.741,0,0,1,0-1.481h2.014a.741.741,0,0,1,0,1.481Z" transform="translate(-340.469 -326.036)"/>
        <path id="XMLID_2371_" d="M61.945,149.7H64.7a.814.814,0,0,0,0-1.627H61.945a.814.814,0,1,0,0,1.627Z" transform="translate(-57.313 -132.012)"/>
        <path id="XMLID_2372_" d="M61.945,126.46H64.7a.814.814,0,0,0,0-1.627H61.945a.814.814,0,1,0,0,1.627Z" transform="translate(-57.313 -111.292)"/>
        <path id="XMLID_2373_" d="M87.253,100.677h.011a.809.809,0,0,0,.808-.814.816.816,0,1,0-.819.814Z" transform="translate(-79.876 -88.305)"/>
      </g>
    </g>
  </g>
</svg>
