<svg xmlns="http://www.w3.org/2000/svg" xmlns:xlink="http://www.w3.org/1999/xlink" width="113" height="113" viewBox="0 0 113 113">
  <defs>
    <filter id="Trazado_982547" x="0" y="0" width="113" height="113" filterUnits="userSpaceOnUse">
      <feOffset dy="3" input="SourceAlpha"/>
      <feGaussianBlur stdDeviation="3" result="blur"/>
      <feFlood flood-opacity="0.161"/>
      <feComposite operator="in" in2="blur"/>
      <feComposite in="SourceGraphic"/>
    </filter>
  </defs>
  <g id="Grupo_1174259" data-name="Grupo 1174259" transform="translate(-297.818 -1566)">
    <g id="Grupo_1173639" data-name="Grupo 1173639" transform="translate(126.117 600)">
      <g id="Grupo_1168704" data-name="Grupo 1168704" transform="translate(0.214 -64.614)">
        <g id="Grupo_1168178" data-name="Grupo 1168178" transform="translate(180.487 1036.614)">
          <g id="Grupo_1166845" data-name="Grupo 1166845" transform="translate(0)">
            <g id="Grupo_1166720" data-name="Grupo 1166720">
              <g id="Grupo_1164305" data-name="Grupo 1164305">
                <g id="Grupo_1163948" data-name="Grupo 1163948">
                  <g id="Grupo_1158168" data-name="Grupo 1158168">
                    <g id="Grupo_1152576" data-name="Grupo 1152576">
                      <g id="Grupo_1148633" data-name="Grupo 1148633">
                        <g id="Grupo_1148525" data-name="Grupo 1148525">
                          <g transform="matrix(1, 0, 0, 1, -9, -6)" filter="url(#Trazado_982547)">
                            <g id="Trazado_982547-2" data-name="Trazado 982547" transform="translate(9 6)" fill="#e8edf7">
                              <path d="M 47.5 93.5 C 41.28937149047852 93.5 35.26533508300781 92.28397369384766 29.59518623352051 89.88570404052734 C 24.11771965026855 87.56893157958984 19.19813346862793 84.25196075439453 14.97309303283691 80.02691650390625 C 10.74804019927979 75.80186462402344 7.431066513061523 70.88229370117188 5.114293098449707 65.40481567382812 C 2.716026782989502 59.73468017578125 1.5 53.71062850952148 1.5 47.5 C 1.5 41.28937149047852 2.716026782989502 35.26533508300781 5.114293098449707 29.59518623352051 C 7.431066513061523 24.11771965026855 10.74804019927979 19.19813346862793 14.97309303283691 14.97309303283691 C 19.19813346862793 10.74804019927979 24.11771965026855 7.431066513061523 29.59518623352051 5.114293098449707 C 35.26533508300781 2.716026782989502 41.28937149047852 1.5 47.5 1.5 C 53.71062850952148 1.5 59.73468017578125 2.716026782989502 65.40481567382812 5.114293098449707 C 70.88229370117188 7.431066513061523 75.80186462402344 10.74804019927979 80.02691650390625 14.97309303283691 C 84.25196075439453 19.19813346862793 87.56893157958984 24.11771965026855 89.88570404052734 29.59518623352051 C 92.28397369384766 35.26533508300781 93.5 41.28937149047852 93.5 47.5 C 93.5 53.71062850952148 92.28397369384766 59.73468017578125 89.88570404052734 65.40481567382812 C 87.56893157958984 70.88229370117188 84.25196075439453 75.80186462402344 80.02691650390625 80.02691650390625 C 75.80186462402344 84.25196075439453 70.88229370117188 87.56893157958984 65.40481567382812 89.88570404052734 C 59.73468017578125 92.28397369384766 53.71062850952148 93.5 47.5 93.5 Z" stroke="none"/>
                              <path d="M 47.5 3 C 41.49121475219727 3 35.66376876831055 4.176155090332031 30.17950439453125 6.495796203613281 C 24.88084411621094 8.736953735351562 20.12152099609375 11.94598388671875 16.03375244140625 16.03375244140625 C 11.94598388671875 20.12152099609375 8.736953735351562 24.88084411621094 6.495796203613281 30.17950439453125 C 4.176155090332031 35.66376876831055 3 41.49121475219727 3 47.5 C 3 53.50878524780273 4.176155090332031 59.33623123168945 6.495796203613281 64.82049560546875 C 8.736953735351562 70.11915588378906 11.94598388671875 74.87847900390625 16.03375244140625 78.96624755859375 C 20.12152099609375 83.05401611328125 24.88084411621094 86.26304626464844 30.17950439453125 88.50419616699219 C 35.66376876831055 90.82384490966797 41.49121475219727 92 47.5 92 C 53.50878524780273 92 59.33623123168945 90.82384490966797 64.82049560546875 88.50419616699219 C 70.11915588378906 86.26304626464844 74.87847900390625 83.05401611328125 78.96624755859375 78.96624755859375 C 83.05401611328125 74.87847900390625 86.26304626464844 70.11915588378906 88.50419616699219 64.82049560546875 C 90.82384490966797 59.33623123168945 92 53.50878524780273 92 47.5 C 92 41.49121475219727 90.82384490966797 35.66376876831055 88.50419616699219 30.17950439453125 C 86.26304626464844 24.88084411621094 83.05401611328125 20.12152099609375 78.96624755859375 16.03375244140625 C 74.87847900390625 11.94598388671875 70.11915588378906 8.736953735351562 64.82049560546875 6.495796203613281 C 59.33623123168945 4.176155090332031 53.50878524780273 3 47.5 3 M 47.5 0 C 73.7335205078125 0 95 21.2664794921875 95 47.5 C 95 73.7335205078125 73.7335205078125 95 47.5 95 C 21.2664794921875 95 0 73.7335205078125 0 47.5 C 0 21.2664794921875 21.2664794921875 0 47.5 0 Z" stroke="none" fill="#2e5bb6"/>
                            </g>
                          </g>
                        </g>
                      </g>
                    </g>
                  </g>
                </g>
              </g>
            </g>
          </g>
        </g>
      </g>
    </g>
    <g id="_11-best_price" data-name="11-best price" transform="translate(324.818 1590.001)">
      <circle id="Elipse_12201" data-name="Elipse 12201" cx="19.134" cy="19.134" r="19.134" transform="translate(19.134 0.911)" fill="#ebd557"/>
      <circle id="Elipse_12202" data-name="Elipse 12202" cx="15.49" cy="15.49" r="15.49" transform="translate(22.779 4.556)" fill="#fcea81"/>
      <path id="Trazado_1027732" data-name="Trazado 1027732" d="M42.2,17.756H40.378a2.733,2.733,0,0,1,0-5.467h6.378a1.822,1.822,0,0,0,0-3.645H43.112V5H39.467V8.718A6.378,6.378,0,0,0,40.378,21.4H42.2a2.733,2.733,0,0,1,0,5.467H35.822a1.822,1.822,0,0,0,0,3.645h3.645v3.645h3.645V30.44A6.378,6.378,0,0,0,42.2,17.756Z" transform="translate(-3.021 -0.444)" fill="#d7986c"/>
      <path id="Trazado_1027733" data-name="Trazado 1027733" d="M35.6,43.223H34.69a2.733,2.733,0,1,1,0,5.467h-.911a2.733,2.733,0,1,1,0,5.467h-.911a2.733,2.733,0,1,1,0,5.467H17.378L11,57.8V41.4c2.733,0,4.556-3.645,4.556-3.645L19.2,25s4.556,0,4.556,5.467l-.911,7.289H35.6a2.733,2.733,0,0,1,0,5.467Z" transform="translate(-0.977 -2.221)" fill="#e7cea0"/>
      <path id="Trazado_1027734" data-name="Trazado 1027734" d="M1,41h9.112V61.045H1Z" transform="translate(-0.089 -3.643)" fill="#7bace6"/>
      <path id="Trazado_1027735" data-name="Trazado 1027735" d="M38.269,40.4a3.645,3.645,0,0,0-3.645-3.645H22.9l.793-6.269a.446.446,0,0,0,0-.109C23.69,25.33,20.118,24,18.223,24a.911.911,0,0,0-.911.665L13.667,37.321a6.989,6.989,0,0,1-2.733,2.888v-.72a.911.911,0,0,0-.911-.911H.911A.911.911,0,0,0,0,39.49V59.535a.911.911,0,0,0,.911.911h9.112a.911.911,0,0,0,.911-.911v-.61l5.221,1.522a.729.729,0,0,0,.246,0h15.49a3.645,3.645,0,0,0,2.733-6,3.645,3.645,0,0,0,.911-5.467,3.645,3.645,0,0,0,.911-5.467A3.645,3.645,0,0,0,38.269,40.4ZM9.112,58.624H1.822V40.4H9.112Zm22.779,0H16.528l-5.595-1.595V42.114c2.733-.629,4.383-3.882,4.456-4.036a1.221,1.221,0,0,0,.064-.164L18.888,25.9c1.066.237,2.961,1.121,2.979,4.419l-.911,7.235a.909.909,0,0,0,.911,1.02H34.624a1.822,1.822,0,1,1,0,3.645H30.068a.911.911,0,0,0,0,1.822h3.645a1.822,1.822,0,0,1,0,3.645H29.157a.911.911,0,1,0,0,1.822H32.8a1.822,1.822,0,0,1,0,3.645H28.246a.911.911,0,1,0,0,1.822h3.645a1.822,1.822,0,1,1,0,3.645Z" transform="translate(0 -2.132)"/>
      <path id="Trazado_1027736" data-name="Trazado 1027736" d="M12.911,14.645h.911v.911a.911.911,0,1,0,1.822,0v-.911h.911a.911.911,0,0,0,0-1.822h-.911v-.911a.911.911,0,1,0-1.822,0v.911h-.911a.911.911,0,0,0,0,1.822Z" transform="translate(-1.066 -0.977)"/>
      <path id="Trazado_1027737" data-name="Trazado 1027737" d="M53.556,49.822h-.911v-.911a.911.911,0,0,0-1.822,0v.911h-.911a.911.911,0,1,0,0,1.822h.911v.911a.911.911,0,1,0,1.822,0v-.911h.911a.911.911,0,0,0,0-1.822Z" transform="translate(-4.353 -4.265)"/>
      <path id="Trazado_1027738" data-name="Trazado 1027738" d="M40.045,0A20.045,20.045,0,0,0,20,20.045a.911.911,0,0,0,1.822,0,18.223,18.223,0,1,1,21.695,17.9.915.915,0,0,0,.173,1.822h.173A20.045,20.045,0,0,0,40.045,0Z" transform="translate(-1.777 0)"/>
      <path id="Trazado_1027739" data-name="Trazado 1027739" d="M49.4,24.045a7.289,7.289,0,0,0-7.289-7.289H40.289a1.822,1.822,0,0,1,0-3.645h6.378a2.733,2.733,0,1,0,0-5.467H43.934V4.911A.911.911,0,0,0,43.023,4H39.378a.911.911,0,0,0-.911.911v2.97a7.289,7.289,0,0,0,1.822,14.342h1.822a1.822,1.822,0,0,1,0,3.645H35.733a2.733,2.733,0,1,0,0,5.467h2.733v2.733a.911.911,0,0,0,.911.911h3.645a.911.911,0,0,0,.911-.911V31.1A7.289,7.289,0,0,0,49.4,24.045Zm-6.506,5.4a.911.911,0,0,0-.784.911v2.8H40.289V30.424a.911.911,0,0,0-.911-.911H35.733a.911.911,0,1,1,0-1.822h6.378a3.645,3.645,0,0,0,0-7.289H40.289a5.467,5.467,0,0,1-.784-10.87.911.911,0,0,0,.784-.911v-2.8h1.822V8.556a.911.911,0,0,0,.911.911h3.645a.911.911,0,0,1,0,1.822H40.289a3.645,3.645,0,0,0,0,7.289h1.822a5.467,5.467,0,0,1,.784,10.87Z" transform="translate(-2.932 -0.355)"/>
    </g>
  </g>
</svg>
