<svg xmlns="http://www.w3.org/2000/svg" xmlns:xlink="http://www.w3.org/1999/xlink" width="113" height="113" viewBox="0 0 113 113">
  <defs>
    <filter id="Trazado_982547" x="0" y="0" width="113" height="113" filterUnits="userSpaceOnUse">
      <feOffset dy="3" input="SourceAlpha"/>
      <feGaussianBlur stdDeviation="3" result="blur"/>
      <feFlood flood-opacity="0.161"/>
      <feComposite operator="in" in2="blur"/>
      <feComposite in="SourceGraphic"/>
    </filter>
  </defs>
  <g id="Grupo_1174251" data-name="Grupo 1174251" transform="translate(-271 -1879)">
    <g id="Grupo_1173585" data-name="Grupo 1173585" transform="translate(0.299 -320)">
      <g id="Grupo_1168706" data-name="Grupo 1168706" transform="translate(-0.299 -836.154)">
        <g id="Grupo_1162113" data-name="Grupo 1162113" transform="translate(280 3041.154)">
          <g id="Grupo_1152576" data-name="Grupo 1152576" transform="translate(0)">
            <g id="Grupo_1148633" data-name="Grupo 1148633">
              <g id="Grupo_1148525" data-name="Grupo 1148525">
                <g transform="matrix(1, 0, 0, 1, -9, -6)" filter="url(#Trazado_982547)">
                  <g id="Trazado_982547-2" data-name="Trazado 982547" transform="translate(9 6)" fill="#e8edf7">
                    <path d="M 47.5 93.5 C 41.28937149047852 93.5 35.26533508300781 92.28397369384766 29.59518623352051 89.88570404052734 C 24.11771965026855 87.56893157958984 19.19813346862793 84.25196075439453 14.97309303283691 80.02691650390625 C 10.74804019927979 75.80186462402344 7.431066513061523 70.88229370117188 5.114293098449707 65.40481567382812 C 2.716026782989502 59.73468017578125 1.5 53.71062850952148 1.5 47.5 C 1.5 41.28937149047852 2.716026782989502 35.26533508300781 5.114293098449707 29.59518623352051 C 7.431066513061523 24.11771965026855 10.74804019927979 19.19813346862793 14.97309303283691 14.97309303283691 C 19.19813346862793 10.74804019927979 24.11771965026855 7.431066513061523 29.59518623352051 5.114293098449707 C 35.26533508300781 2.716026782989502 41.28937149047852 1.5 47.5 1.5 C 53.71062850952148 1.5 59.73468017578125 2.716026782989502 65.40481567382812 5.114293098449707 C 70.88229370117188 7.431066513061523 75.80186462402344 10.74804019927979 80.02691650390625 14.97309303283691 C 84.25196075439453 19.19813346862793 87.56893157958984 24.11771965026855 89.88570404052734 29.59518623352051 C 92.28397369384766 35.26533508300781 93.5 41.28937149047852 93.5 47.5 C 93.5 53.71062850952148 92.28397369384766 59.73468017578125 89.88570404052734 65.40481567382812 C 87.56893157958984 70.88229370117188 84.25196075439453 75.80186462402344 80.02691650390625 80.02691650390625 C 75.80186462402344 84.25196075439453 70.88229370117188 87.56893157958984 65.40481567382812 89.88570404052734 C 59.73468017578125 92.28397369384766 53.71062850952148 93.5 47.5 93.5 Z" stroke="none"/>
                    <path d="M 47.5 3 C 41.49121475219727 3 35.66376876831055 4.176155090332031 30.17950439453125 6.495796203613281 C 24.88084411621094 8.736953735351562 20.12152099609375 11.94598388671875 16.03375244140625 16.03375244140625 C 11.94598388671875 20.12152099609375 8.736953735351562 24.88084411621094 6.495796203613281 30.17950439453125 C 4.176155090332031 35.66376876831055 3 41.49121475219727 3 47.5 C 3 53.50878524780273 4.176155090332031 59.33623123168945 6.495796203613281 64.82049560546875 C 8.736953735351562 70.11915588378906 11.94598388671875 74.87847900390625 16.03375244140625 78.96624755859375 C 20.12152099609375 83.05401611328125 24.88084411621094 86.26304626464844 30.17950439453125 88.50419616699219 C 35.66376876831055 90.82384490966797 41.49121475219727 92 47.5 92 C 53.50878524780273 92 59.33623123168945 90.82384490966797 64.82049560546875 88.50419616699219 C 70.11915588378906 86.26304626464844 74.87847900390625 83.05401611328125 78.96624755859375 78.96624755859375 C 83.05401611328125 74.87847900390625 86.26304626464844 70.11915588378906 88.50419616699219 64.82049560546875 C 90.82384490966797 59.33623123168945 92 53.50878524780273 92 47.5 C 92 41.49121475219727 90.82384490966797 35.66376876831055 88.50419616699219 30.17950439453125 C 86.26304626464844 24.88084411621094 83.05401611328125 20.12152099609375 78.96624755859375 16.03375244140625 C 74.87847900390625 11.94598388671875 70.11915588378906 8.736953735351562 64.82049560546875 6.495796203613281 C 59.33623123168945 4.176155090332031 53.50878524780273 3 47.5 3 M 47.5 0 C 73.7335205078125 0 95 21.2664794921875 95 47.5 C 95 73.7335205078125 73.7335205078125 95 47.5 95 C 21.2664794921875 95 0 73.7335205078125 0 47.5 C 0 21.2664794921875 21.2664794921875 0 47.5 0 Z" stroke="none" fill="#2e5bb6"/>
                  </g>
                </g>
              </g>
            </g>
          </g>
        </g>
      </g>
    </g>
    <g id="budget" transform="translate(298 1904)">
      <g id="Grupo_1174249" data-name="Grupo 1174249" transform="translate(1.894 1.894)">
        <g id="Grupo_1174235" data-name="Grupo 1174235" transform="translate(8.937)">
          <path id="Trazado_1027638" data-name="Trazado 1027638" d="M51.325,3.787V17.194l-.036.036-6.22,6.22H40.6a4.477,4.477,0,0,0-3.575,1.787H24.512v21.45H44.175v3.575H20.937V23.45A8.941,8.941,0,0,0,12,14.512V11.679a1.759,1.759,0,0,1,.161-.742H19.15A1.793,1.793,0,0,0,20.937,9.15V2.161A1.759,1.759,0,0,1,21.679,2H49.537a1.793,1.793,0,0,1,1.787,1.787Z" transform="translate(-12 -2)" fill="#e6e9ed"/>
        </g>
        <g id="Grupo_1174236" data-name="Grupo 1174236" transform="translate(21.45 23.237)">
          <path id="Trazado_1027639" data-name="Trazado 1027639" d="M43.2,43.015a4.871,4.871,0,0,1-1.081-1.189,5.037,5.037,0,0,1-.715-1.519H41.4l-3.781,3.781-.894.358-3.307,1.323a1.5,1.5,0,0,1-2.029-1.68,1.529,1.529,0,0,1,.08-.268l1.68-4.2.894-.894,5.362-5.362a1.793,1.793,0,0,1-1.787-1.788v-.894A4.416,4.416,0,0,1,38.513,28H26V49.45H45.662V44.981Z" transform="translate(-26 -28)" fill="#ffeaa7"/>
        </g>
        <g id="Grupo_1174237" data-name="Grupo 1174237" transform="translate(21.45 3.575)">
          <path id="Trazado_1027640" data-name="Trazado 1027640" d="M26,6H49.237V9.575H26Z" transform="translate(-26 -6)" fill="#ff826e"/>
        </g>
        <g id="Grupo_1174238" data-name="Grupo 1174238" transform="translate(9.098 0.161)">
          <path id="Trazado_1027641" data-name="Trazado 1027641" d="M20.957,2.18V9.169a1.793,1.793,0,0,1-1.787,1.787H12.18a1.8,1.8,0,0,1,.366-.527l7.883-7.883A1.8,1.8,0,0,1,20.957,2.18Z" transform="translate(-12.18 -2.18)" fill="#b4dd7f"/>
        </g>
        <g id="Grupo_1174239" data-name="Grupo 1174239" transform="translate(28.6 26.812)">
          <path id="Trazado_1027642" data-name="Trazado 1027642" d="M42.044,32v7.257a5.075,5.075,0,0,0,.215,1.475h-.009l-3.781,3.781L34,40.044l.894-.894,5.362-5.362A1.8,1.8,0,0,0,42.044,32Z" transform="translate(-34 -32)" fill="#ff826e"/>
        </g>
        <g id="Grupo_1174240" data-name="Grupo 1174240" transform="translate(38.315 14.3)">
          <path id="Trazado_1027643" data-name="Trazado 1027643" d="M54.817,18.894a3.16,3.16,0,0,1,4.433,4.5l-5.219,5.219-7.257,7.257V31.406a2.675,2.675,0,0,0-.786-1.895,2.733,2.733,0,0,0-1.117-.67l3.691-3.691,6.22-6.22Z" transform="translate(-44.87 -18)" fill="#ff826e"/>
        </g>
        <g id="Grupo_1174241" data-name="Grupo 1174241" transform="translate(26.812 34.856)">
          <path id="Trazado_1027644" data-name="Trazado 1027644" d="M38.256,45.469l-.894.358-3.307,1.323a1.5,1.5,0,0,1-2.029-1.68,1.529,1.529,0,0,1,.08-.268l1.68-4.2Z" transform="translate(-32 -41)" fill="#aab2bd"/>
        </g>
        <g id="Grupo_1174242" data-name="Grupo 1174242" transform="translate(41.112 37.537)">
          <path id="Trazado_1027645" data-name="Trazado 1027645" d="M57.831,44l1.787,10.725H48V46.681Z" transform="translate(-48 -44)" fill="#b4dd7f"/>
        </g>
        <g id="Grupo_1174243" data-name="Grupo 1174243" transform="translate(33.069 21.45)">
          <path id="Trazado_1027646" data-name="Trazado 1027646" d="M42.048,32.623a1.748,1.748,0,0,1-1.26.527A1.793,1.793,0,0,1,39,31.362v-.894a4.416,4.416,0,0,1,.894-2.681A4.477,4.477,0,0,1,43.469,26h4.469l-3.691,3.691a2.772,2.772,0,0,0-.778-.116.9.9,0,0,0-.894.894v.894A1.748,1.748,0,0,1,42.048,32.623Z" transform="translate(-39 -26)" fill="#f0d0b4"/>
        </g>
        <g id="Grupo_1174244" data-name="Grupo 1174244" transform="translate(36.644 24.918)">
          <path id="Trazado_1027647" data-name="Trazado 1027647" d="M54.306,30.747A24.572,24.572,0,0,1,57.3,42.5l-9.831,2.681-2.458-1.966a4.871,4.871,0,0,1-1.081-1.189A5.384,5.384,0,0,1,43,39.032V30.881a.9.9,0,0,1,.894-.894,2.772,2.772,0,0,1,.778.116,2.733,2.733,0,0,1,1.117.67,2.675,2.675,0,0,1,.786,1.895v4.469l7.257-7.257Z" transform="translate(-43 -29.88)" fill="#f0d0b4"/>
        </g>
        <g id="Grupo_1174245" data-name="Grupo 1174245" transform="translate(0 21.45)">
          <path id="Trazado_1027648" data-name="Trazado 1027648" d="M19.875,26V54.6A3.574,3.574,0,0,1,16.3,58.175H5.575A3.574,3.574,0,0,1,2,54.6V26a8.929,8.929,0,0,0,3.575,7.15v6.256a.9.9,0,0,0,.894.894h8.937a.9.9,0,0,0,.894-.894V33.15A8.929,8.929,0,0,0,19.875,26Z" transform="translate(-2 -26)" fill="#969faa"/>
        </g>
        <g id="Grupo_1174246" data-name="Grupo 1174246" transform="translate(3.597 39.33)">
          <path id="Trazado_1027649" data-name="Trazado 1027649" d="M15.9,56.7H6.919a.894.894,0,0,1-.894-.894V46.9a.894.894,0,0,1,.894-.894H15.9a.894.894,0,0,1,.894.894v8.9A.892.892,0,0,1,15.9,56.7Z" transform="translate(-6.025 -46.006)" fill="#ff826e"/>
        </g>
        <g id="Grupo_1174247" data-name="Grupo 1174247" transform="translate(3.575 28.6)">
          <path id="Trazado_1027650" data-name="Trazado 1027650" d="M16.725,34v6.256a.9.9,0,0,1-.894.894H6.894A.9.9,0,0,1,6,40.256V34a8.937,8.937,0,0,0,10.725,0Z" transform="translate(-6 -34)" fill="#69d6f4"/>
        </g>
        <g id="Grupo_1174248" data-name="Grupo 1174248" transform="translate(0 12.512)">
          <path id="Trazado_1027651" data-name="Trazado 1027651" d="M19.875,24.937A8.937,8.937,0,1,1,10.937,16,8.929,8.929,0,0,1,19.875,24.937Z" transform="translate(-2 -16)" fill="#fcd770"/>
        </g>
      </g>
      <g id="Grupo_1174250" data-name="Grupo 1174250" transform="translate(1 1)">
        <path id="Trazado_1027652" data-name="Trazado 1027652" d="M50.626,27.255l-.154-.282,4.753-4.753a4.037,4.037,0,0,0-4.176-6.687V3.681A2.685,2.685,0,0,0,48.369,1H20.51a2.665,2.665,0,0,0-1.9.786l-7.89,7.89a2.662,2.662,0,0,0-.786,1.9v1.986A9.841,9.841,0,0,0,1,23.344v28.6a4.474,4.474,0,0,0,4.469,4.469H16.194a4.474,4.474,0,0,0,4.469-4.469V51.05H55.68L53.729,39.338A25.508,25.508,0,0,0,50.626,27.255Zm1.3,11.5-8.713,2.376-2.1-1.681a4.451,4.451,0,0,1-1.677-3.49V27.812A1.789,1.789,0,0,1,41.219,29.6v6.256h1.787V34.439L49.15,28.3A23.7,23.7,0,0,1,51.922,38.755ZM39.431,26.025a1.789,1.789,0,0,0-1.787,1.788v.894a.894.894,0,0,1-1.787,0v-.894a3.579,3.579,0,0,1,3.575-3.575h2.311l-1.836,1.836a3.483,3.483,0,0,0-.475-.048ZM29.644,41.283l1.176-2.942,2.552,2.552L30.428,42.07a.619.619,0,0,1-.829-.562A.583.583,0,0,1,29.644,41.283Zm5.319-1.328-3.2-3.2,5.4-5.4a2.608,2.608,0,0,0,.482-.123v4.737a6.287,6.287,0,0,0,.122,1.192ZM34.233,29.6h-10V26.025H34.382a5.341,5.341,0,0,0-.313,1.788v.894A2.651,2.651,0,0,0,34.233,29.6Zm-10,1.788H34.592l-3.575,3.575h-6.78Zm0,5.362h5.294L28.1,40.325H24.237Zm0,5.362H27.9a2.384,2.384,0,0,0,3.194,1.617l2.081-.833v2.791H24.237Zm10.725.069.5-.2L38.441,39c.032.058.062.117.1.174v6.509H34.962Zm5.362-1.07,1.787,1.43v3.146H40.325Zm14.3-21.757a2.252,2.252,0,0,1-.664,1.6L43.006,31.911V29.6a3.554,3.554,0,0,0-1.335-2.763l9.085-9.085a2.266,2.266,0,0,1,3.869,1.6Zm-35.75-15.3V9.044a.9.9,0,0,1-.894.894H12.989ZM10.831,15.3a8.044,8.044,0,1,1-8.044,8.044A8.054,8.054,0,0,1,10.831,15.3ZM6.362,32.09a9.745,9.745,0,0,0,8.937,0v4.66H6.362Zm9.831,22.535H5.469a2.685,2.685,0,0,1-2.681-2.681V28.979a9.922,9.922,0,0,0,1.787,1.943V36.75a1.789,1.789,0,0,0,1.787,1.787H15.3a1.789,1.789,0,0,0,1.788-1.787V30.922a9.923,9.923,0,0,0,1.787-1.943V51.944A2.685,2.685,0,0,1,16.194,54.625Zm4.469-5.362V23.344a9.841,9.841,0,0,0-8.937-9.786V11.725h6.256a2.685,2.685,0,0,0,2.681-2.681V2.788H48.369a.9.9,0,0,1,.894.894V16.717L43.53,22.45h-4.1a5.347,5.347,0,0,0-3.986,1.788h-13V47.475H42.112v1.787Zm23.237,0V42.8l8.218-2.242,1.451,8.709Z" transform="translate(-1 -1)"/>
        <path id="Trazado_1027653" data-name="Trazado 1027653" d="M10.787,29.6v1.917h1.787V29.6a2.541,2.541,0,0,0,.377-4.7l-1.743-.871a.764.764,0,0,1,.341-1.447h.261a.764.764,0,0,1,.763.763v1.024h1.787V23.338a2.546,2.546,0,0,0-1.787-2.421V19H10.787v1.917a2.541,2.541,0,0,0-.377,4.7l1.743.871a.764.764,0,0,1-.341,1.447h-.261a.764.764,0,0,1-.763-.763V26.15H9v1.024A2.546,2.546,0,0,0,10.787,29.6Z" transform="translate(-1.85 -2.913)"/>
        <path id="Trazado_1027654" data-name="Trazado 1027654" d="M15.725,45H6.787A1.789,1.789,0,0,0,5,46.787v8.937a1.789,1.789,0,0,0,1.787,1.788h8.937a1.789,1.789,0,0,0,1.788-1.788V46.787A1.789,1.789,0,0,0,15.725,45Zm0,3.575H13.937V46.787h1.787Zm-3.575,7.15H10.362V53.937H12.15Zm0-3.575H10.362V50.362H12.15Zm-3.575,0H6.787V50.362H8.575Zm1.787-3.575V46.787H12.15v1.788ZM8.575,46.787v1.788H6.787V46.787Zm-1.787,7.15H8.575v1.787H6.787Zm7.15,1.787V50.362h1.788v5.362Z" transform="translate(-1.425 -5.675)"/>
        <path id="Trazado_1027655" data-name="Trazado 1027655" d="M50.025,5H25v5.362H50.025ZM48.237,8.575H26.788V6.787h21.45Z" transform="translate(-3.55 -1.425)"/>
        <path id="Trazado_1027656" data-name="Trazado 1027656" d="M25,13H50.025v1.787H25Z" transform="translate(-3.55 -2.275)"/>
        <path id="Trazado_1027657" data-name="Trazado 1027657" d="M25,17H50.025v1.788H25Z" transform="translate(-3.55 -2.7)"/>
        <path id="Trazado_1027658" data-name="Trazado 1027658" d="M25,21H39.3v1.787H25Z" transform="translate(-3.55 -3.125)"/>
      </g>
    </g>
  </g>
</svg>
