<svg xmlns="http://www.w3.org/2000/svg" xmlns:xlink="http://www.w3.org/1999/xlink" width="400" height="333" viewBox="0 0 400 333">
  <defs>
    <clipPath id="clip-path">
      <rect id="Rectángulo_415508" data-name="Rectángulo 415508" width="400" height="333" transform="translate(179.701 1648)" fill="#fff" stroke="#707070" stroke-width="1" opacity="0.58"/>
    </clipPath>
  </defs>
  <g id="Enmascarar_grupo_1098817" data-name="Enmascarar grupo 1098817" transform="translate(-179.701 -1648)" clip-path="url(#clip-path)">
    <g id="OBJECTS" transform="translate(169.255 1608.682)">
      <path id="Trazado_1038670" data-name="Trazado 1038670" d="M213.645,46.673c-4.356,0-8.955.161-13.668.48a197.884,197.884,0,0,0-29.809,4.381,192.956,192.956,0,0,0-30.661,9.685,190.872,190.872,0,0,0-26.9,13.62c-.295.177-.549.333-.8.491-2.986,1.85-5.912,3.767-8.724,5.717l-.463.324c-2.015,1.416-4.01,2.873-5.944,4.341-2.246,1.7-4.581,3.567-7.139,5.708C85.02,95.2,80.6,99.3,76.411,103.59c-1.856,1.9-3.745,3.919-5.614,6-2.018,2.246-4.049,4.639-6.207,7.316A177.113,177.113,0,0,0,44.54,147.978c-1.167,2.3-2.348,4.783-3.611,7.6-1.421,3.17-2.8,6.547-4.2,10.326-1.018,2.727-2.031,5.729-3.1,9.178-.969,3.131-1.882,6.477-2.793,10.23-.748,3.087-1.427,6.358-2.077,10-.645,3.613-1.18,7.405-1.633,11.6a171.056,171.056,0,0,0,.41,39.668,168.721,168.721,0,0,0,3.573,19.188c1.242,5.08,2.766,10.189,4.657,15.619l.051.147.075.214c.822,2.311,1.692,4.614,2.6,6.883.78,1.949,1.665,4.026,2.7,6.348,1.743,3.891,3.682,7.789,5.927,11.917.082.152.152.278.22.406l.062.112.064.116q1.691,3.047,3.549,6.14c1.242,2.061,2.579,4.167,4.085,6.436l.31.466c1.523,2.26,3.1,4.5,4.7,6.67a.523.523,0,0,0-.3.514.5.5,0,0,0,.416.549H60.9l.682.907a.352.352,0,0,0,.589,0,.628.628,0,0,0,.12-.384.642.642,0,0,0-.12-.39l-.112-.147,106.872.012H365.551l-.047.055,0,0-.46.6-.449.588a.646.646,0,0,0-.121.389.656.656,0,0,0,.121.389.351.351,0,0,0,.586,0l.372-.483.372-.484.061-.086.04-.06,0,0c.139-.18.275-.363.412-.547l.051-.064.062-.083.084-.115.039-.051,1.455-.049a.57.57,0,0,0,0-1.1h-.613l.075-.084.09-.127.611-.833.036-.059,0,.005.081-.11.309-.432.285-.395.069-.094c1.7-2.377,3.351-4.819,4.924-7.259l.2-.3.169-.264.079-.122.034-.058.134-.21.13-.2.481-.762a.759.759,0,0,0,.039-.069c1.824-2.929,3.568-5.911,5.183-8.859l.192-.349.325-.6.149-.279c.184-.341.342-.637.5-.933.286-.55.554-1.061.819-1.574l.077-.145.068-.134.127-.245.123-.24c.778-1.541,1.454-2.915,2.088-4.244.874-1.83,1.781-3.839,2.775-6.147,1.6-3.723,3.108-7.637,4.6-11.965l.071-.2.108-.319a.689.689,0,0,0,.022-.075c.6-1.792,1.188-3.626,1.744-5.448.65-2.133,1.286-4.427,2-7.221a169.57,169.57,0,0,0,3.343-16.649c.776-5.119,1.311-10.437,1.632-16.258.278-5.052.308-10.251.094-15.9-.18-4.752-.593-9.642-1.262-14.946a170.1,170.1,0,0,0-3.149-17.3c-1.112-4.771-2.518-9.692-4.3-15.045-1.674-5.036-3.66-10.118-6.072-15.536q-1.063-2.358-2.213-4.745c-.816-1.688-1.719-3.465-2.842-5.593-1.969-3.73-4.163-7.509-6.706-11.556-2.1-3.34-4.41-6.727-7.066-10.35-2.487-3.395-5.181-6.788-8.236-10.371a185.426,185.426,0,0,0-34.922-31.555l-.126-.088c-4.068-2.815-8.229-5.472-12.392-7.911-3.984-2.337-8.27-4.631-12.738-6.819a191.2,191.2,0,0,0-27.6-10.9l-.066-.021-.057-.018-.3-.09-.289-.088c-3.741-1.13-7.554-2.163-11.364-3.077-3.38-.813-6.948-1.557-10.91-2.273a196.464,196.464,0,0,0-19.522-2.494c-.086-.008-.15-.014-.212-.016-4.863-.365-9.8-.558-14.673-.576h-.644M34.9,173.844l0-.027.027-.051q-.093.283-.183.567l.138-.441c0-.011.007-.023.011-.034h0v0l.008-.026Z" transform="translate(0 41.84)" fill="#cfe7e0"/>
      <g id="Grupo_1178956" data-name="Grupo 1178956" transform="translate(31.472 286.972)">
        <path id="Trazado_1038671" data-name="Trazado 1038671" d="M85.594,439.338q-.679,0-1.36.047a25.462,25.462,0,0,0-3.863.536,14.987,14.987,0,0,0-3.717,1.293,5.879,5.879,0,0,0-2.5,2.244A3.862,3.862,0,0,0,73.694,445a4.538,4.538,0,0,0,.238,1.8,4.45,4.45,0,0,0,.42.954,3.608,3.608,0,0,0,.683.821,4.248,4.248,0,0,0,1.788.915,6.03,6.03,0,0,0,1.525.182c.208,0,.417-.009.623-.025a9.355,9.355,0,0,0,2.181-.429,8.785,8.785,0,0,0,1.888-.841,8.38,8.38,0,0,0,2.049-1.784,19.955,19.955,0,0,0,2.448-3.994c.417-.816.847-1.661,1.335-2.449a.275.275,0,0,0,.029-.212.281.281,0,0,0-.131-.174.285.285,0,0,0-.145-.041.574.574,0,0,0-.264-.16,15.9,15.9,0,0,0-2.766-.226" transform="translate(-41.492 -370.965)" fill="#fba92d"/>
        <path id="Trazado_1038672" data-name="Trazado 1038672" d="M47.76,352.692a3.293,3.293,0,0,0-.46.034,3.656,3.656,0,0,0-1.626.686,5.817,5.817,0,0,0-1.3,1.355,10.454,10.454,0,0,0-1.018,1.826,14.986,14.986,0,0,0-1.132,4.182,12.278,12.278,0,0,0-.09,1.949c.041.932.136,1.921.281,2.941a37.391,37.391,0,0,0,1.4,6.015,42.91,42.91,0,0,0,3.354,7.794,34.877,34.877,0,0,0,4.328,6.21v.14c0,.1,0,.195,0,.292a.365.365,0,0,0,.11.267.455.455,0,0,0,.319.14.45.45,0,0,0,.312-.142.432.432,0,0,0,.11-.307c0-.1.006-.135.009-.172.068-.69.139-1.381.222-2.071.1-.78.216-1.56.333-2.337.16-1.037.331-2.074.5-3.11q.167-1.018.331-2.035c.34-2.127.58-3.861.755-5.456a49.65,49.65,0,0,0,.327-5.45,24.165,24.165,0,0,0-.5-5.029,12.98,12.98,0,0,0-1.674-4.248,10.234,10.234,0,0,0-1.555-1.88,6.139,6.139,0,0,0-1.951-1.315,3.792,3.792,0,0,0-1.383-.278" transform="translate(-34.839 -352.692)" fill="#fba92d"/>
        <path id="Trazado_1038673" data-name="Trazado 1038673" d="M62.283,379.378c-.074,0-.152,0-.229.006a3.746,3.746,0,0,0-1.569.466A4.892,4.892,0,0,0,59.2,380.9a8.4,8.4,0,0,0-1.049,1.493,13.334,13.334,0,0,0-.824,1.792,21.562,21.562,0,0,0-1.064,3.888,20.805,20.805,0,0,0-.37,3.272c-.016.522,0,1.022.024,1.576.028.7.088,1.423.182,2.2a37.078,37.078,0,0,0,.746,4.147,60.773,60.773,0,0,0,2.071,6.777l-.193-.222-.215-.206c-.416-.391-.839-.78-1.261-1.162-1-.907-2.062-1.82-3.15-2.713a50.731,50.731,0,0,0-7.788-5.386,22.76,22.76,0,0,0-4.061-1.757,11.319,11.319,0,0,0-3.322-.552c-.16,0-.32,0-.478.012a6.074,6.074,0,0,0-4.759,2.592,4.7,4.7,0,0,0-.534.994,3.841,3.841,0,0,0-.247,1.084,4.263,4.263,0,0,0,.358,2.03,6.964,6.964,0,0,0,1.194,1.892,12.009,12.009,0,0,0,1.768,1.681,17.468,17.468,0,0,0,1.992,1.379,16.79,16.79,0,0,0,1.925.99,21.018,21.018,0,0,0,2.714.937,31.955,31.955,0,0,0,6.586,1.085c.819.056,1.66.084,2.5.084a40.266,40.266,0,0,0,7.445-.706c0,.018.02.041.042.062a.449.449,0,0,0,.3.111.387.387,0,0,0,.314-.142c.111-.141.219-.283.324-.425l.173-.228c.157-.212.3-.435.441-.664a12.716,12.716,0,0,0,.8-1.6c.185-.416.354-.844.52-1.269l.088-.223c.124-.312.249-.626.379-.937l.11-.259.11-.265c.339-.814.676-1.625,1-2.445a59.792,59.792,0,0,0,2.706-8.339,26.582,26.582,0,0,0,.667-4.353,11.775,11.775,0,0,0-.312-3.807,5.516,5.516,0,0,0-1.7-2.793,4.923,4.923,0,0,0-1.487-.855,4.552,4.552,0,0,0-1.578-.3" transform="translate(-32.89 -358.32)" fill="#fba92d"/>
        <path id="Trazado_1038674" data-name="Trazado 1038674" d="M74.616,404.659a2.836,2.836,0,0,0-.606.068,2.577,2.577,0,0,0-.767.334,3.531,3.531,0,0,0-.731.621,6.4,6.4,0,0,0-1.1,1.71,11.456,11.456,0,0,0-.7,2.008,10.316,10.316,0,0,0-.3,1.927,17.6,17.6,0,0,0,.2,3.957,23.317,23.317,0,0,0,1,3.974A23.6,23.6,0,0,0,73.265,423a20.062,20.062,0,0,0,1.471,2.31,7.666,7.666,0,0,0-.835-.437l-.835-.388-.571-.265c-.315-.145-.632-.28-.953-.41-.782-.324-1.606-.633-2.518-.944a51.238,51.238,0,0,0-6.746-1.831,29,29,0,0,0-3.536-.487c-.423-.031-.845-.05-1.268-.05a13.186,13.186,0,0,0-1.875.129,5.85,5.85,0,0,0-2.411.837,3.748,3.748,0,0,0-.47.368,3.456,3.456,0,0,0-.423.469,3.25,3.25,0,0,0-.516,1.057,4.214,4.214,0,0,0-.145,1.329,6.827,6.827,0,0,0,.259,1.611,9.869,9.869,0,0,0,1.861,3.693,8.248,8.248,0,0,0,3.089,2.285,11.287,11.287,0,0,0,3.883.858c.234.013.472.018.706.018a17.641,17.641,0,0,0,3.509-.382,22.5,22.5,0,0,0,7.9-3.367,15.459,15.459,0,0,0,2.887-2.526c.148-.17.287-.342.422-.518a.435.435,0,0,0,.3-.308c.133-.437.247-.881.357-1.325l.04-.155c.148-.6.29-1.2.422-1.8.326-1.485.6-2.962.82-4.389a47.182,47.182,0,0,0,.5-4.767,21.146,21.146,0,0,0-.167-4.347,7.133,7.133,0,0,0-1.169-3.179,3.927,3.927,0,0,0-1.378-1.115,2.976,2.976,0,0,0-.924-.3,2.507,2.507,0,0,0-.334-.021" transform="translate(-36.842 -363.652)" fill="#fba92d"/>
        <path id="Trazado_1038675" data-name="Trazado 1038675" d="M93.1,434.108a11.385,11.385,0,0,0-1.233-1.544c-.447-.49-.915-.959-1.384-1.427-.432-.435-.87-.863-1.3-1.3s-.854-.881-1.285-1.319c-1.578-1.606-3.224-3.144-4.907-4.639-3.379-3-6.911-5.831-10.339-8.784-.144-.124-.286-.25-.43-.374.067-.6.1-1.2.12-1.8.021-.712-.016-1.424-.037-2.136s-.037-1.43-.08-2.142c-.049-.767-.1-1.535-.129-2.3q-.1-2.154-.262-4.3c-.11-1.476-.259-2.947-.4-4.42a.2.2,0,0,0-.2-.179h-.017a.2.2,0,0,0-.179.213c.161,1.677.268,3.356.339,5.039.074,1.748.108,3.5.019,5.25,0-.034,0-.068,0-.1-.031.561-.083,1.116-.123,1.677q-.064.91-.178,1.821c-.092.727-.178,1.454-.252,2.183a81.664,81.664,0,0,1-9.144-9.291c-.253-.312-.495-.631-.742-.947,0-.009.01-.017.013-.026a8.7,8.7,0,0,0,.25-1.369c.062-.527.117-1.054.17-1.581q.148-1.475.249-2.95t.179-2.953c.058-1.039.123-2.074.169-3.111.047-.986.09-1.973.139-2.956.05-1.038.074-2.077.1-3.116.062-2.028.083-4.059.08-6.088a.227.227,0,0,0-.228-.219.225.225,0,0,0-.215.228c0,1.772-.08,3.542-.188,5.311-.056.885-.136,1.77-.213,2.651-.079.93-.159,1.857-.256,2.783q-.374,3.279-.819,6.55c-.148,1.091-.275,2.185-.388,3.28-.059.567-.111,1.138-.16,1.708-.01.122-.016.245-.024.367a71.7,71.7,0,0,1-7.978-13.568,67.934,67.934,0,0,1-4.953-17A82.48,82.48,0,0,1,46,357.859a.212.212,0,0,0-.225-.22.232.232,0,0,0-.244.233c-.024,2.195.009,4.392.126,6.587.114,2.139.32,4.275.595,6.4q.407,3.117,1.042,6.193c.21,1.026.441,2.049.694,3.063s.54,2.016.839,3.015c.592,2,1.3,3.967,2.078,5.9q1.2,2.959,2.669,5.789c.952,1.822,1.995,3.594,3.11,5.319-.039-.009-.078-.02-.118-.029q-1.072-.245-2.146-.493c-.666-.155-1.331-.32-1.994-.484-.709-.176-1.421-.352-2.124-.546-1.362-.376-2.718-.77-4.062-1.2-.65-.206-1.3-.416-1.939-.638-.685-.239-1.364-.5-2.04-.75-1.815-.694-3.61-1.439-5.352-2.293a.233.233,0,0,0-.1-.021.191.191,0,0,0-.172.1.2.2,0,0,0,.08.268c1.708.847,3.427,1.677,5.175,2.438.851.367,1.708.715,2.565,1.066.888.364,1.782.718,2.682,1.054q1.308.49,2.623.943c.928.318,1.852.638,2.786.938s1.868.585,2.808.857a16.146,16.146,0,0,0,2.55.6c.9,1.305,1.835,2.591,2.823,3.833a87.267,87.267,0,0,0,9.2,9.655q-.547.1-1.091.205c-.441.089-.881.191-1.323.274-.41.081-.821.143-1.231.208-.787.112-1.577.212-2.369.294-.848.086-1.7.129-2.558.16a36.722,36.722,0,0,1-5.061-.174,35.382,35.382,0,0,1-4.172-.7.2.2,0,0,0-.24.148.2.2,0,0,0,.148.237c.786.185,1.578.361,2.374.505s1.591.253,2.389.349c.771.092,1.544.16,2.318.228.851.071,1.708.1,2.561.117,1.658.034,3.317-.015,4.969-.117.4-.024.8-.058,1.2-.087s.8-.055,1.2-.1a13.946,13.946,0,0,0,2.168-.389c2.341,2.116,4.728,4.18,7.11,6.249-.433.179-.862.368-1.285.573a19.021,19.021,0,0,0-1.954,1.073c-1.326.835-2.574,1.778-3.856,2.678a.276.276,0,0,0-.071.376.269.269,0,0,0,.376.07,36.444,36.444,0,0,1,4.083-2.582c.444-.222.894-.435,1.354-.623a9.12,9.12,0,0,1,1.411-.443c.342-.069.688-.129,1.034-.17.293.256.587.511.88.767,1.861,1.633,3.7,3.292,5.492,5.009q1.4,1.345,2.728,2.752c.493.518.981,1.042,1.468,1.562a15.093,15.093,0,0,0,1.528,1.5,1.031,1.031,0,0,0,1.584-1.292Z" transform="translate(-33.676 -353.735)" fill="#e38907"/>
      </g>
      <g id="Grupo_1178958" data-name="Grupo 1178958" transform="translate(72.365 289.934)">
        <path id="Trazado_1038676" data-name="Trazado 1038676" d="M84.721,356.511c.357,1.976.836,3.964,1.3,5.884l.169.7c.571,2.389,1.079,4.543,1.51,6.707a59.092,59.092,0,0,1,.99,6.84,66.1,66.1,0,0,1,.114,7.083l.018-.117.006-.114c-.1,2.755-.293,5.554-.481,8.258-.179,2.584-.364,5.255-.451,7.888a69.934,69.934,0,0,0,.127,8.1,45.057,45.057,0,0,0,1.35,8.048,41.881,41.881,0,0,0,1.547,4.7,35.673,35.673,0,0,0,2.389,4.926,23.612,23.612,0,0,0,2.746,3.807.519.519,0,0,0,.346.493l.167.055a14.825,14.825,0,0,0,4.112,3.036,11.249,11.249,0,0,0,3.742,1.06h.009a.529.529,0,0,0,.576-.422.543.543,0,0,0-.111-.4.453.453,0,0,0-.314-.181,10.764,10.764,0,0,1-1.847-.357,11.349,11.349,0,0,1-2.38-1.067,13.76,13.76,0,0,1-1.294-.919,102.186,102.186,0,0,0,24.826,3.573c1.991.073,4.09.11,6.239.11,7.293,0,14.482-.406,21.815-.857.73-.043,1.461-.086,2.194-.114.573-.022,1.147-.037,1.72-.05l.419-.012c1.4-.037,2.9-.1,4.392-.253a18.933,18.933,0,0,0,4.2-.872,12.278,12.278,0,0,0,2.093-.928c-.043.354-.08.715-.12,1.076a1.017,1.017,0,0,0,.835,1.156.85.85,0,0,0,.155.013,1.017,1.017,0,0,0,1-.851,25.131,25.131,0,0,0,.185-3c.009-.918-.024-1.884-.107-2.956a40.153,40.153,0,0,0-1.015-6.119,62.373,62.373,0,0,0-4.537-12.478,85.163,85.163,0,0,0-6.5-11.266c-1.085-1.591-2.232-3.141-3.412-4.605a61.14,61.14,0,0,0-4.571-5.042,69.524,69.524,0,0,0-21.679-14.124,129.624,129.624,0,0,0-12.437-4.528l-2.861-.888c-3.523-1.085-7.167-2.21-10.68-3.533l-.3-.11a.213.213,0,0,1-.137-.022q-.323-.142-.648-.281-1.416-.554-2.738-1.133c-2.322-.937-4.657-1.856-6.893-2.967q-.541-.24-1.077-.492c-1.292-.607-2.568-1.254-3.8-1.973-.305-.175-.608-.358-.907-.542Z" transform="translate(-84.712 -356.446)" fill="#2fc3b0"/>
        <g id="Grupo_1178957" data-name="Grupo 1178957" transform="translate(3.806 4.062)">
          <path id="Trazado_1038677" data-name="Trazado 1038677" d="M144,446.648c-.163-.126-.333-.246-.5-.367-.373-.265-.752-.518-1.14-.758-.771-.481-1.573-.912-2.38-1.331a56.986,56.986,0,0,0-5.342-2.392c-.927-.364-1.865-.709-2.811-1.03-.962-.327-1.933-.626-2.9-.925s-1.976-.555-2.968-.82q-.717-.189-1.434-.376c-.521-.133-1.042-.249-1.562-.369-1.591-.373-3.182-.734-4.781-1.054-1.535-.309-3.079-.58-4.627-.829-2.879-.466-5.779-.817-8.693-1.02h-.017a.2.2,0,0,0-.011.4,81.953,81.953,0,0,1,10.064,1.405l-.068-.012c1.843.369,3.677.795,5.5,1.263.949.244,1.9.506,2.833.8s1.883.576,2.82.888,1.852.657,2.78.993,1.825.687,2.728,1.054c.888.361,1.775.724,2.655,1.113.811.354,1.612.734,2.41,1.121,1.227.6,2.438,1.229,3.622,1.9.592.336,1.174.687,1.76,1.033.271.157.539.317.807.481.293.173.6.336.875.533a.79.79,0,1,0,.87-1.319C144.318,446.9,144.161,446.774,144,446.648Z" transform="translate(-92.724 -377.154)" fill="#208b7e"/>
          <path id="Trazado_1038678" data-name="Trazado 1038678" d="M127.759,388.544l0-.024s0,0,0,.006A.12.12,0,0,0,127.759,388.544Z" transform="translate(-97.595 -367.273)" fill="#208b7e"/>
          <path id="Trazado_1038679" data-name="Trazado 1038679" d="M154.142,404.95a.352.352,0,0,0-.064-.006.342.342,0,0,0-.189.055.374.374,0,0,0-.145.215c-.089.256-.175.512-.265.768.007-.02.016-.043.024-.064-.358,1.025-.716,2.048-1.059,3.075q-.565,1.683-1.079,3.382c-.706,2.3-1.341,4.623-1.871,6.973-.268,1.171-.5,2.352-.709,3.532s-.385,2.349-.505,3.53a35.88,35.88,0,0,0-.2,3.6c0,.565.013,1.132.06,1.7-.128-.283-.252-.567-.382-.85q-.716-1.567-1.485-3.113c-1.027-2.071-2.118-4.118-3.258-6.131q-1.643-2.9-3.428-5.707c-.068-.181-.138-.361-.2-.541-.268-.731-.512-1.47-.737-2.216-.462-1.532-.832-3.092-1.15-4.66-.29-1.468-.518-2.95-.706-4.436q-.286-2.293-.406-4.6-.121-2.266-.126-4.534c0-1.433.058-2.867.151-4.3,0,.021,0,.043,0,.065.1-1.492.253-2.981.487-4.458a.216.216,0,0,0-.167-.253.2.2,0,0,0-.039,0,.215.215,0,0,0-.214.17c-.268,1.693-.45,3.394-.586,5.1-.071.925-.118,1.853-.154,2.78-.043.98-.077,1.964-.087,2.944-.015,2.022.065,4.041.191,6.057q.092,1.507.247,3.014c.1.98.243,1.96.395,2.937.161,1.046.375,2.085.614,3.118-.541-.8-1.084-1.6-1.639-2.393-2.666-3.81-5.543-7.478-8.557-11.02q-1.244-1.462-2.533-2.885c-.465-.953-.923-1.914-1.36-2.881q-.726-1.627-1.353-3.3a44.564,44.564,0,0,1-1.948-6.757.04.04,0,0,0,0,.009c0-.009,0-.018-.006-.028a.04.04,0,0,1,0-.009.006.006,0,0,0,0,0c-.256-1.276-.466-2.562-.6-3.859a30.417,30.417,0,0,1-.152-4,.194.194,0,0,0-.2-.181h-.015a.2.2,0,0,0-.182.209,40.983,40.983,0,0,0,.21,5.364,42.886,42.886,0,0,0,.949,5.521,49.357,49.357,0,0,0,1.606,5.447c.246.684.518,1.361.8,2.032-1.515-1.6-3.081-3.161-4.667-4.694-3.3-3.194-6.772-6.214-10.194-9.281-2.328-2.087-4.641-4.189-6.905-6.342a.5.5,0,0,0-.028-.074q-.09-.172-.177-.346a11.757,11.757,0,0,1-.522-1.248,11.125,11.125,0,0,1-.364-1.334l.009.055a12.335,12.335,0,0,1-.206-3.323.192.192,0,0,0-.065-.136.21.21,0,0,0-.134-.05h-.011a.2.2,0,0,0-.133.065.211.211,0,0,0-.049.148,12.615,12.615,0,0,0,.724,5.33q-1.123-1.083-2.227-2.187a82.127,82.127,0,0,1-7.293-8.292.177.177,0,0,0-.143-.065.2.2,0,0,0-.15.33,103.6,103.6,0,0,0,8.682,9.977l-.015-.008a23.462,23.462,0,0,0-2.395-1.061,20.655,20.655,0,0,0-2.559-.776,17.09,17.09,0,0,0-2.536-.41h-.02a.2.2,0,0,0-.19.182.2.2,0,0,0,.182.21c.5.048,1,.121,1.489.216a17.183,17.183,0,0,1,2.273.649,24.639,24.639,0,0,1,2.333,1.005c-.021-.013-.046-.025-.071-.037.592.29,1.172.6,1.748.912l1.4.767c1.179,1.177,2.367,2.345,3.575,3.493,1.667,1.588,3.354,3.16,5.031,4.741s3.329,3.156,4.972,4.759c1.627,1.591,3.242,3.2,4.806,4.849q1.212,1.278,2.392,2.591c-.568-.347-1.143-.683-1.731-1-.907-.484-1.835-.922-2.768-1.344a55.2,55.2,0,0,0-5.779-2.219c-1.967-.635-3.974-1.153-5.989-1.6a87.515,87.515,0,0,0-8.933-1.446l-.021,0a.2.2,0,0,0-.006.4c1.947.226,3.884.537,5.807.921l-.009,0a59.568,59.568,0,0,1,14.2,4.642,43.219,43.219,0,0,1,5.244,3.095c.832.567,1.641,1.169,2.435,1.785.406.315.8.649,1.192.976,1.015,1.207,2.022,2.42,3,3.657,2.315,2.924,4.5,5.949,6.587,9.038-.021-.032-.042-.063-.062-.1,1.067,1.584,2.094,3.194,3.1,4.82-.413-.3-.83-.583-1.256-.862a51.707,51.707,0,0,0-4.956-2.824,66.95,66.95,0,0,0-11.18-4.466,67.625,67.625,0,0,0-9.555-2.17,47.718,47.718,0,0,0-6.9-.543q-1.04,0-2.082.059a.2.2,0,0,0-.21.181.2.2,0,0,0,.185.21,43.416,43.416,0,0,1,10.912.94c-.022-.006-.043-.009-.065-.015a66.285,66.285,0,0,1,15.734,5.387,53.732,53.732,0,0,1,6.1,3.471q1.379.911,2.7,1.9c.843.625,1.678,1.268,2.481,1.946l.048.043c.72,1.238,1.428,2.483,2.111,3.74q1.624,2.988,3.107,6.051.749,1.554,1.467,3.122.342.754.675,1.507c.11.256.225.515.333.774a7.834,7.834,0,0,0,.419.928,1.171,1.171,0,0,0,.4.456,1.168,1.168,0,0,0,1.612-.333,1.123,1.123,0,0,0,.17-.86c-.01-.036-.026-.068-.037-.1.01,0,.019,0,.029,0a.73.73,0,0,0,.5-.246.775.775,0,0,0,.188-.546c0-.324.009-.644.009-.967s-.009-.648-.016-.971c-.012-.7-.028-1.4-.028-2.093-.006-1.358.039-2.715.122-4.071a63.387,63.387,0,0,1,1.633-10.207c.395-1.667.841-3.32,1.323-4.963.468-1.591.952-3.175,1.485-4.744A.337.337,0,0,0,154.142,404.95Z" transform="translate(-89.535 -361.594)" fill="#208b7e"/>
        </g>
      </g>
      <path id="Trazado_1038680" data-name="Trazado 1038680" d="M334.405,103.363a8.374,8.374,0,0,0-3.493.867,14.421,14.421,0,0,0-3.537,2.423,21.824,21.824,0,0,0-3.025,3.373,23.548,23.548,0,0,0-2.3,3.808,12.305,12.305,0,0,0-1.348,4.691.54.54,0,0,0,.157.4.634.634,0,0,0,.449.2.583.583,0,0,0,.531-.346A13.729,13.729,0,0,0,323,120.213a9.948,9.948,0,0,0,2.2,1.813,6.737,6.737,0,0,0,1.192.556,5.689,5.689,0,0,0,1.36.3,4.545,4.545,0,0,0,.507.028,5.893,5.893,0,0,0,2.262-.488,12.481,12.481,0,0,0,3.673-2.7,29.734,29.734,0,0,0,3.031-3.45,19.466,19.466,0,0,0,2.454-4.1,7.876,7.876,0,0,0,.762-4.051,4.7,4.7,0,0,0-.621-1.852,5.618,5.618,0,0,0-1.431-1.516,7.653,7.653,0,0,0-.867-.58,7.077,7.077,0,0,0-.972-.442,6.163,6.163,0,0,0-1.858-.364c-.1,0-.2-.006-.293-.006" transform="translate(-62.116 -13.137)" fill="#db633c"/>
      <path id="Trazado_1038681" data-name="Trazado 1038681" d="M389.6,53.274A83.685,83.685,0,0,0,346.841,65.05l6.2,7.924,2.734,3.486,21.774,27.754L398.956,131.5a.2.2,0,0,1,.054.128.165.165,0,0,1-.024.092.2.2,0,0,1-.16.092l-14.882-4.567-10.277-3.16-17.292-5.315-17.292-5.314-13.389-4.115-13.387-4.115A83.327,83.327,0,1,0,389.6,53.274" transform="translate(-71.465 -4.416)" fill="#206969"/>
      <path id="Trazado_1038682" data-name="Trazado 1038682" d="M323.109,50.94h0l0,0a82.764,82.764,0,0,0-33.514,38.311c-.188.435-.373.87-.552,1.307l.18.076,18.242,5.6q17.333,5.326,34.665,10.656l16.379,5.034,16.38,5.034L366.558,106.3l-8.35-10.64L347.261,81.709l-10.9-13.892-6.6-8.418-6.634-8.455-.017,0" transform="translate(-65.852 -2.082)" fill="#fba92d"/>
      <g id="Grupo_1178959" data-name="Grupo 1178959" transform="translate(76.826 41.07)">
        <path id="Trazado_1038683" data-name="Trazado 1038683" d="M180.2,41.07c-.87,0-1.735.018-2.6.052a73.672,73.672,0,0,0-8.046.777,61.866,61.866,0,0,0-6.729,1.369A57.027,57.027,0,0,0,151.8,47.411a40.441,40.441,0,0,0-9.655,6.681,31.508,31.508,0,0,0-3.028,3.306,34.478,34.478,0,0,0-2.756,4.067,64.5,64.5,0,0,0-4.492,9.461c-1.25,3.189-2.339,6.5-3.392,9.7l-.107.326-.183.559c-.466,1.423-.93,2.844-1.429,4.255-.545,1.545-1.155,3.119-1.866,4.813a78.533,78.533,0,0,1-4.014,8.1,67.05,67.05,0,0,1-5.015,7.523c-1.281,1.652-2.694,3.3-4.2,4.9-1.427,1.517-2.855,3.04-4.26,4.578a102.285,102.285,0,0,0-7.747,9.415,57.8,57.8,0,0,0-3.28,5.127,48.411,48.411,0,0,0-2.636,5.448,45.62,45.62,0,0,0-2.972,11.358,43.051,43.051,0,0,0-.166,10.257,37.64,37.64,0,0,0,2.21,9.268,36.735,36.735,0,0,0,4.376,8.182,39.652,39.652,0,0,0,6.326,6.958,46.429,46.429,0,0,0,9.341,6.268,55.474,55.474,0,0,0,11.94,4.445.608.608,0,0,0,.737-.418l.016-.078a40.751,40.751,0,0,0,5.165.3,107.3,107.3,0,0,0,10.858-.742l1.607-.163c2.615-.265,4.756-.517,6.739-.792,2.239-.306,4.527-.675,6.8-1.1a118.918,118.918,0,0,0,27.466-8.36c9.454-4.288,17.068-9.723,22.631-16.154a47.719,47.719,0,0,0,4.1-5.494,50.873,50.873,0,0,0,4.011-7.766,59.027,59.027,0,0,0,4.066-17.067,77.014,77.014,0,0,0,.305-8.875c-.029-1.552-.1-3.067-.2-4.5-.1-1.391-.282-2.883-.552-4.56-.949-5.839-2.816-11.321-4.979-17.371l-.435-1.216c-.927-2.591-1.885-5.27-2.743-7.933a.637.637,0,0,0-.4-.412c-.149-.512-.3-1.033-.436-1.557a.61.61,0,0,0,.185-.607c-.116-.5-.214-1.023-.29-1.562a25.711,25.711,0,0,1,.129-6.613l.017-.11c.245-1.755.58-3.5.9-5.181.408-2.12.83-4.311,1.069-6.5a23.916,23.916,0,0,0,.009-5.719,16.472,16.472,0,0,0-.611-2.81,14.963,14.963,0,0,0-1.163-2.714A13.585,13.585,0,0,0,208.183,54a10.322,10.322,0,0,0-1.971-1.74,11.589,11.589,0,0,0-3.721-1.613c-.111-.257-.238-.517-.37-.769a12.547,12.547,0,0,0-2.089-2.829,16.763,16.763,0,0,0-6.115-3.84,31.14,31.14,0,0,0-7.829-1.813,49.716,49.716,0,0,0-5.891-.327" transform="translate(-90.365 -41.07)" fill="#021621"/>
        <path id="Trazado_1038684" data-name="Trazado 1038684" d="M236.813,88.409a3.969,3.969,0,0,0-1.412.256,4.211,4.211,0,0,0-1.062.6.352.352,0,0,0-.283.238,4.985,4.985,0,0,0-.482.485.45.45,0,0,0,.195.752,18.939,18.939,0,0,0,.081,7.269,17.612,17.612,0,0,0,1.4,4.227,11.923,11.923,0,0,0,1.067,1.783,8.176,8.176,0,0,0,1.465,1.614l-.132.092c-.241.182-.485.36-.729.538s-.488.356-.729.538a1.032,1.032,0,0,0-.434.565.972.972,0,0,0,.1.731.935.935,0,0,0,.814.461,1.012,1.012,0,0,0,.479-.122,11.445,11.445,0,0,0,4.51-4.41,12.677,12.677,0,0,0,1.459-6.342,15.306,15.306,0,0,0-.407-3.318,12.4,12.4,0,0,0-.438-1.446,10.975,10.975,0,0,0-.654-1.472,6.444,6.444,0,0,0-1.833-2.037,5.179,5.179,0,0,0-2.362-.957,4.546,4.546,0,0,0-.608-.043" transform="translate(-120.541 -51.054)" fill="#cb5c37"/>
        <path id="Trazado_1038685" data-name="Trazado 1038685" d="M238.674,90.763a6.31,6.31,0,0,0-1.659.5,4.833,4.833,0,0,0-1.489,1.109,5.326,5.326,0,0,0-.536.737,4.623,4.623,0,0,0-.435.9,5.2,5.2,0,0,0-.237.881,4.967,4.967,0,0,0-.062,1,.458.458,0,0,0,.376.407.471.471,0,0,0,.332-.074.444.444,0,0,0,.192-.3,6.212,6.212,0,0,1,.253-1.293,6.665,6.665,0,0,1,.605-1.283,6.388,6.388,0,0,1,1.022-1.218,4.821,4.821,0,0,1,.808-.563,3.267,3.267,0,0,1,.721-.255c-.024,0-.047.009-.068.013.074-.015.148-.028.225-.04A.264.264,0,0,0,238.96,91a.273.273,0,0,0-.255-.243l-.032,0m-3.281,3.924-.024.071c.007-.024.016-.047.024-.071" transform="translate(-120.711 -51.55)" fill="#b54626"/>
        <path id="Trazado_1038686" data-name="Trazado 1038686" d="M209.49,58.114a.552.552,0,0,0-.322.1l-.859.613c-2.6,1.858-5.3,3.781-8.022,5.561-1.585,1.035-3.157,2-4.675,2.864-1.218.693-2.534,1.385-4.142,2.179-1.264.622-2.551,1.231-3.839,1.84-2.464,1.166-5.012,2.371-7.45,3.693a50.167,50.167,0,0,0-5.311,3.289c-.85.613-1.659,1.255-2.4,1.909a16.7,16.7,0,0,0-2.172,2.187,9.248,9.248,0,0,0-1.4,2.546,11.447,11.447,0,0,0-.616,2.887,27,27,0,0,0,.354,6.118,12.024,12.024,0,0,0-3.568-.571c-.246,0-.493.009-.743.028a7.9,7.9,0,0,0-2.65.669,6.486,6.486,0,0,0-1.9,1.3,6.681,6.681,0,0,0-1.812,3.8,10.518,10.518,0,0,0,.395,4.519,12.222,12.222,0,0,0,6.127,7.365,12.478,12.478,0,0,0,2.366.913,12.229,12.229,0,0,0,2.615.413c.215.013.432.019.647.019a12.044,12.044,0,0,0,3.144-.425,50.632,50.632,0,0,1,3.033,5.288,37.563,37.563,0,0,1,3.131,9.033,27.017,27.017,0,0,1,.443,6.968v.054h-.006v.009l.006-.007v.039h.009a24,24,0,0,1-1.214,5.577l.044-.084a19.636,19.636,0,0,1-2.06,4.089l-.043.068a16.723,16.723,0,0,1-1.39,1.728.608.608,0,0,0-.04.75.511.511,0,0,0,.1.377,30.534,30.534,0,0,0,5.78,5.152,37.6,37.6,0,0,0,7.174,3.89,34.7,34.7,0,0,0,7.785,2.2,27.442,27.442,0,0,0,4.182.334,22.4,22.4,0,0,0,3.427-.256,16.849,16.849,0,0,0,6.72-2.5,14.943,14.943,0,0,0,4.922-5.5,18.917,18.917,0,0,0,1.539-3.987,22.362,22.362,0,0,0,.49-2.294,14.221,14.221,0,0,0,.223-3.325.6.6,0,0,0-.6-.569.621.621,0,0,0-.481.253,10.973,10.973,0,0,1-2.453-.7,11.719,11.719,0,0,1-2.286-1.356,14.7,14.7,0,0,1-2.467-2.508,21.147,21.147,0,0,1-2.585-4.533l.024.095a27.96,27.96,0,0,1-1.7-5.97,34.242,34.242,0,0,0,4.788-1.687,23.985,23.985,0,0,0,8.822-6.254,20.1,20.1,0,0,0,2.979-4.681,22.811,22.811,0,0,0,1.659-5.239,30.481,30.481,0,0,0-.089-11.189,36.888,36.888,0,0,0-1.437-5.414c-.291-.835-.612-1.657-.931-2.479l-.259-.666c-.438-1.124-.875-2.25-1.3-3.381a71.325,71.325,0,0,1-2.25-6.86c-.35-1.323-.631-2.686-.9-4-.164-.79-.327-1.581-.506-2.367a38.536,38.536,0,0,0-1.782-6,22.107,22.107,0,0,0-1.347-2.809,16.967,16.967,0,0,0-1.792-2.535l-.083-.093a.528.528,0,0,0-.407-.172.79.79,0,0,0-.09.006.637.637,0,0,0-.536-.315" transform="translate(-104.599 -44.665)" fill="#db633c"/>
        <path id="Trazado_1038687" data-name="Trazado 1038687" d="M211.921,58.2l-.859.613-.148.1c-2.4,1.717-5.132,3.662-7.87,5.456-1.615,1.051-3.187,2.013-4.675,2.864-1.237.7-2.553,1.39-4.143,2.176-1.264.623-2.55,1.233-3.838,1.843-2.327,1.1-4.963,2.343-7.45,3.693a49.067,49.067,0,0,0-5.314,3.288c-.823.589-1.631,1.233-2.408,1.908a17.3,17.3,0,0,0-2.173,2.186,9.253,9.253,0,0,0-1.4,2.552,11.5,11.5,0,0,0-.623,2.894c-.039.45-.058.9-.059,1.349q.342.043.684.082a0,0,0,0,0,0,0h0a45.3,45.3,0,0,0,5.334.283,38.558,38.558,0,0,0,5.139-.391c-.009,0-.021,0-.034.006a34.5,34.5,0,0,0,4.325-.919,36.789,36.789,0,0,0,4.312-1.513l-.046.018c.705-.3,1.405-.619,2.093-.964.546-.271,1.082-.555,1.618-.845q1.577-.855,3.11-1.794a63.552,63.552,0,0,0,6.149-4.285c-.012.013-.028.022-.039.034a46.628,46.628,0,0,0,8.63-8.757.008.008,0,0,1,0,0,31.814,31.814,0,0,0,2.158-3.348,28.053,28.053,0,0,0,1.646-3.474v0c.027-.069.053-.14.08-.21a20.472,20.472,0,0,0-.939-1.84,17.074,17.074,0,0,0-1.794-2.542l-.083-.093a.558.558,0,0,0-.42-.178.791.791,0,0,0-.089.006.626.626,0,0,0-.537-.315.563.563,0,0,0-.33.108m-40.327,31a.161.161,0,0,1,.04,0,.161.161,0,0,0-.04,0" transform="translate(-107.362 -44.659)" fill="#cb5c37"/>
        <path id="Trazado_1038688" data-name="Trazado 1038688" d="M194.271,140.629a20.959,20.959,0,0,0,1.929,1.486c-.015-.009-.028-.019-.043-.028a22.325,22.325,0,0,0,2.6,1.507,24.342,24.342,0,0,0,2.695,1.113.515.515,0,0,0-.05-.018,23.875,23.875,0,0,0,3.153.841,24.653,24.653,0,0,0,3.119.395l-.052-.006a22.762,22.762,0,0,0,2.9-.009,21.943,21.943,0,0,0,2.834-.383l-.039.007.038-.008a29.327,29.327,0,0,1-1.027-4.193c.228-.059.456-.121.687-.189q-.721.148-1.446.253a32.405,32.405,0,0,1-6.67.243,45.54,45.54,0,0,1-12.166-2.514,17.728,17.728,0,0,0,1.538,1.5" transform="translate(-111.954 -61.75)" fill="#c94e2b"/>
        <path id="Trazado_1038689" data-name="Trazado 1038689" d="M168.817,108.247a.674.674,0,0,0-.216.247.692.692,0,0,0-.065.33,12.311,12.311,0,0,0,.885,5.5,9.094,9.094,0,0,0,1.455,2.4,7.322,7.322,0,0,0,2.1,1.693.308.308,0,1,0,.275-.552c-.169-.092-.331-.189-.489-.29a6.018,6.018,0,0,1-.979-.861,8.054,8.054,0,0,1-1.065-1.595c.013.023.025.045.036.067a10.1,10.1,0,0,1-.815-2.359,11.907,11.907,0,0,1-.239-3.014c0,.035-.006.07-.009.1a9.461,9.461,0,0,1,.126-1.018.652.652,0,0,0-.506-.758.666.666,0,0,0-.125-.012.645.645,0,0,0-.365.114m3.9,9.306c.013.007.025.016.038.024l-.038-.024m.038.024.027.019-.027-.019" transform="translate(-106.846 -55.213)" fill="#c94e2b"/>
        <path id="Trazado_1038690" data-name="Trazado 1038690" d="M164.269,106.757a6.966,6.966,0,0,0-1.732.389,7.146,7.146,0,0,0-1.674.859.231.231,0,0,0-.056.315.233.233,0,0,0,.315.055c.125-.086.254-.163.387-.238a5.689,5.689,0,0,1,1.055-.393,5.528,5.528,0,0,1,1.248-.125,7.093,7.093,0,0,1,1.547.256,8.227,8.227,0,0,1,.937.358c.336.151.651.345.981.508a.625.625,0,0,0,.662-1.048,4.753,4.753,0,0,0-1.742-.792,5.462,5.462,0,0,0-1.384-.167c-.183,0-.365.008-.545.021m-2.728,1.364-.019.011a.079.079,0,0,1,.019-.011" transform="translate(-105.213 -54.919)" fill="#c94e2b"/>
        <path id="Trazado_1038691" data-name="Trazado 1038691" d="M208.46,54.284a18.346,18.346,0,0,0-2.442.176,21.935,21.935,0,0,0-3.364.755,45.2,45.2,0,0,0-6.61,2.679c-1.042.506-2.075,1.03-3.1,1.557l-.284.144c-.9.46-1.8.92-2.694,1.4a74.049,74.049,0,0,0-11.332,7.374,52.5,52.5,0,0,0-4.989,4.538,31.676,31.676,0,0,0-4.155,5.139,16.741,16.741,0,0,0-1.375,2.68,13.024,13.024,0,0,0-.762,2.786,12.642,12.642,0,0,0,.605,5.992c.226.673.508,1.4.863,2.221a10.808,10.808,0,0,0,1.126,2.03,4.656,4.656,0,0,0,.679.757,3.625,3.625,0,0,0,.982.627,2.483,2.483,0,0,0,.972.186,3.256,3.256,0,0,0,2.3-1.017,4.917,4.917,0,0,0,.812-1.111,10.186,10.186,0,0,0,1.018-3.036,19.4,19.4,0,0,0,.335-3.065c.013-.364.016-.728.006-1.092a35.008,35.008,0,0,0,6.748-1.129,51.324,51.324,0,0,0,5.6-1.806,46.8,46.8,0,0,0,9.915-5.293,49.389,49.389,0,0,0,14.662-16.608c.64-1.156,1.249-2.358,1.862-3.675a.575.575,0,0,0-.028-.454.609.609,0,0,0-.206-.238.626.626,0,0,0-.249-.395,10.628,10.628,0,0,0-2.868-1.5,11.983,11.983,0,0,0-3.146-.589c-.294-.018-.589-.028-.885-.028" transform="translate(-106.573 -43.857)" fill="#021621"/>
        <path id="Trazado_1038692" data-name="Trazado 1038692" d="M344.46,113.807a16.525,16.525,0,0,0-1.967.133c-.787.091-1.622.229-2.553.422a34.452,34.452,0,0,0-3.7.993.494.494,0,0,0-.164-.028.415.415,0,0,0-.163.032c-.312.115-.623.228-.935.341-.975.354-1.983.72-2.943,1.163a11.963,11.963,0,0,0-1.937,1.1,8.2,8.2,0,0,0-.84.689,5.6,5.6,0,0,0-.722.851,4.015,4.015,0,0,0-.151,4.241,3.354,3.354,0,0,0,1.615,1.39,5.775,5.775,0,0,0,2.2.413l.124,0c.114,0,.226,0,.339-.008a.6.6,0,0,0,.526.319.544.544,0,0,0,.159-.023c.58-.175,1.156-.4,1.712-.627l.1-.039c.967-.385,1.941-.8,2.981-1.27a57.2,57.2,0,0,0,6.656-3.443,19.59,19.59,0,0,0,2.655-1.912,4.663,4.663,0,0,0,1.42-1.9,1.713,1.713,0,0,0,.024-.988,1.753,1.753,0,0,0-.588-.864,3.953,3.953,0,0,0-1.207-.633,7.641,7.641,0,0,0-2.314-.355c-.108,0-.215-.006-.324-.006" transform="translate(-140.451 -56.41)" fill="#db633c"/>
        <path id="Trazado_1038693" data-name="Trazado 1038693" d="M342.3,113.644a15.582,15.582,0,0,0-2.731.57,12.208,12.208,0,0,0-1.292.478c-.182.083-.357.172-.533.268a6.215,6.215,0,0,0-.611.389.514.514,0,0,0,.577.841c.8-.369,1.6-.733,2.438-1.028a20.407,20.407,0,0,1,2.456-.667,21.86,21.86,0,0,1,2.69-.383h-.009a13.085,13.085,0,0,1,2.3.034.2.2,0,0,0,.21-.185.2.2,0,0,0-.185-.21c-.392-.046-.787-.092-1.181-.133-.45-.046-.9-.068-1.356-.086-.225-.009-.451-.013-.677-.013a18.253,18.253,0,0,0-2.1.125m3.064.462-.04,0c.014,0,.027,0,.04,0m-5.3,1.083-.042.014.042-.014" transform="translate(-142.373 -56.349)" fill="#c94e2b"/>
        <path id="Trazado_1038694" data-name="Trazado 1038694" d="M283.012,120.628c-.32,0-.641.013-.96.04a.586.586,0,0,0-.481.353.9.9,0,0,0-.126.222.644.644,0,0,0-.06.14q-.786,1.76-1.579,3.517-1.6,3.568-3.22,7.088c-2.11,4.594-4.328,9.34-6.59,14.105-1.762,3.714-3.624,7.585-5.536,11.507q-1.392,2.867-2.8,5.724l-1.378,2.783-.331.675c-.277.563-.553,1.127-.84,1.686l-.191-.189-.2-.186c-1.757-1.6-3.392-3.017-5-4.338a72.123,72.123,0,0,0-10.777-7.457,47.689,47.689,0,0,0-12.952-4.978,59.332,59.332,0,0,0-12.7-1.144c-.472,0-.94,0-1.412.009-1.743.02-3.486.068-5.228.116l-.466.013a1.53,1.53,0,0,0-.938.974,12.818,12.818,0,0,1,.163,1.491,10.719,10.719,0,0,1-.213,2.5,8.934,8.934,0,0,1-.748,2.03,11.725,11.725,0,0,1-1.574,2.156,15.761,15.761,0,0,1-2.911,2.453,18.08,18.08,0,0,1-3.975,1.87,23.18,23.18,0,0,1-5.861,1.029l-.086.014v-.008q-.5.018-1.009.018a30.226,30.226,0,0,1-6.513-.731,31.233,31.233,0,0,1-7.392-2.7l.012.008a25.2,25.2,0,0,1-5.068-3.5,20.178,20.178,0,0,1-1.8-1.888.582.582,0,0,0-.454-.211.623.623,0,0,0-.127.013.617.617,0,0,0-.245.059c-2.259,1.077-4.6,2.078-6.86,3.046-1.224.523-2.446,1.046-3.663,1.584a63.383,63.383,0,0,0-9.7,5.139,33.324,33.324,0,0,0-4.252,3.388,30.148,30.148,0,0,0-3.768,4.326,32.372,32.372,0,0,0-3.135,5.491,31.618,31.618,0,0,0-2.156,6.551,27.764,27.764,0,0,0-.49,3.3,22.489,22.489,0,0,0-.018,3.4.349.349,0,0,0,.022.1c.006.279.015.562.036.843a13.557,13.557,0,0,0,.447,2.6,12.751,12.751,0,0,0,.817,2.16,13.04,13.04,0,0,0,1.277,2.09,15.456,15.456,0,0,0,3.423,3.324,22.094,22.094,0,0,0,4.366,2.421,29.951,29.951,0,0,0,4.945,1.607c.868.21,1.735.368,2.7.539,1.255.226,2.509.428,3.766.62,4.589.7,9.356,1.244,14.575,1.646,6.774.522,14.157.775,22.574.775,2.339,0,4.759-.018,7.4-.057,7.253-.106,14.626-.351,21.756-.588q3.715-.123,7.432-.242a136.4,136.4,0,0,0,20.61-1.825,54.253,54.253,0,0,0,10.115-2.823,39.608,39.608,0,0,0,4.658-2.183,32.213,32.213,0,0,0,4.184-2.778,27.141,27.141,0,0,0,3.688-3.5c.509-.586,1.019-1.227,1.513-1.908.626-.857,1.177-1.76,1.634-2.531a49.632,49.632,0,0,0,2.845-5.691c.8-1.846,1.547-3.871,2.294-6.191,1.405-4.357,2.435-8.778,3.338-12.907.342-1.572.673-3.148,1-4.723l.342-1.63c.51-2.412,1.046-4.79,1.6-7.068.382-1.586.775-3.171,1.169-4.757,1.828-7.368,3.718-14.987,4.41-22.687a.554.554,0,0,0-.225-.476,1,1,0,0,0-.077-.077,24.394,24.394,0,0,0-2.908-2.134,27.226,27.226,0,0,0-3.614-1.915,20.711,20.711,0,0,0-3.725-1.215,12.716,12.716,0,0,0-2.773-.314" transform="translate(-100.272 -57.849)" fill="#fba92d"/>
        <path id="Trazado_1038695" data-name="Trazado 1038695" d="M246.959,185.548a.314.314,0,0,0,.013.437,37.451,37.451,0,0,1,2.739,3.062l-.008-.009.009.011.018.022-.009-.012a77.492,77.492,0,0,1,10.152,17.588l-.025-.057c.288.661.572,1.325.86,1.986l0-.009c.037.083.073.167.11.25-.04-.089-.08-.182-.12-.271.712,1.634,1.384,3.283,2.065,4.929.04.1.083.194.126.29a1.175,1.175,0,0,0,2.041-.05,1.116,1.116,0,0,0,.1-.881c-.841-2.019-1.748-4.02-2.715-5.983s-2.05-3.9-3.151-5.81c-1.109-1.93-2.318-3.8-3.566-5.648-1.23-1.818-2.543-3.582-3.946-5.274a61.687,61.687,0,0,0-4.245-4.584.3.3,0,0,0-.211-.084.32.32,0,0,0-.23.1m12.8,20.843.077.178c-.025-.059-.051-.118-.077-.178m.941,2.176c-.037-.087-.075-.173-.112-.258.036.085.074.171.112.258M249.72,189.059l-.009-.01v0l.009.012" transform="translate(-123.373 -71.52)" fill="#e38907"/>
        <path id="Trazado_1038696" data-name="Trazado 1038696" d="M235.464,157.152c-.977.053-1.951.152-2.925.244q-.758.07-1.51.157c-.466.054-.931.129-1.4.21l-.44.133a.456.456,0,0,0-.152.316.431.431,0,0,0,.416.438c.713-.065,1.424-.084,2.139-.114s1.415-.052,2.121-.077c1.39-.053,2.78-.065,4.17-.043a60.81,60.81,0,0,1,8.4.681c-.006,0-.015,0-.024-.006a50.95,50.95,0,0,1,6.387,1.434,48.772,48.772,0,0,1,6,2.238l-.01-.006a64.546,64.546,0,0,1,14.224,8.939l-.01-.006a84.869,84.869,0,0,1,9.947,9.577.251.251,0,1,0,.367-.342,96.686,96.686,0,0,0-9.448-9.487,67.842,67.842,0,0,0-11.047-7.87,48.079,48.079,0,0,0-6.026-2.866c-1.076-.42-2.17-.784-3.273-1.122-1.153-.358-2.315-.672-3.489-.956a57.6,57.6,0,0,0-7.179-1.245,46.009,46.009,0,0,0-5.055-.281q-1.091,0-2.186.055m10.669,1.921a.866.866,0,0,1,.1.016c-.031-.006-.062-.009-.1-.016" transform="translate(-119.612 -65.54)" fill="#e38907"/>
        <path id="Trazado_1038697" data-name="Trazado 1038697" d="M218.093,158.383a.476.476,0,0,0-.043.226,12.57,12.57,0,0,1,.071,1.4,10.767,10.767,0,0,1-.087,1.371,11.12,11.12,0,0,1-.687,2.513c-.009.018-.015.036-.024.058a12.026,12.026,0,0,1-1.378,2.333,14.2,14.2,0,0,1-2.395,2.374,17.151,17.151,0,0,1-3.447,2.007s.006,0,.009-.006a21.184,21.184,0,0,1-5.305,1.4,26.324,26.324,0,0,1-6.858.006l.157.019a26.827,26.827,0,0,1-6.8-1.853c.047.021.1.04.142.062a28.317,28.317,0,0,1-6.143-3.575,29.639,29.639,0,0,1-3.736-3.471.592.592,0,0,0-.835.839,29.043,29.043,0,0,0,10.005,7.182,27.254,27.254,0,0,0,5.845,1.77,26.56,26.56,0,0,0,6.152.4,27.59,27.59,0,0,0,3.148-.354,22.251,22.251,0,0,0,2.9-.678,17.71,17.71,0,0,0,4.914-2.4,14.382,14.382,0,0,0,3.761-3.826,11.742,11.742,0,0,0,1.187-2.385,11.285,11.285,0,0,0,.656-3.9c0-.425-.025-.86-.071-1.285a.644.644,0,0,0-.173-.419.613.613,0,0,0-.1-.078l-.871.271m-8.043,12.3a.786.786,0,0,1-.08.034c.025-.013.053-.021.08-.034" transform="translate(-109.388 -65.754)" fill="#e38907"/>
        <path id="Trazado_1038698" data-name="Trazado 1038698" d="M227.165,165.454c0-.006.006-.013.009-.019s-.006.013-.009.019" transform="translate(-119.216 -67.298)" fill="#e38907"/>
        <path id="Trazado_1038699" data-name="Trazado 1038699" d="M205.466,118.655l0,0,0,0s-.028.093-.028.093a9.784,9.784,0,0,0,.22,4.146,5.966,5.966,0,0,0,.892,1.858,4.369,4.369,0,0,0,2.7,1.747,3.579,3.579,0,0,0,.789.084c.162,0,.32-.009.48-.025a4.669,4.669,0,0,0,2.18-.889,6.756,6.756,0,0,0,1.662-1.76,8.519,8.519,0,0,0,1.1-2.4,6.43,6.43,0,0,0,.161-.694.5.5,0,0,0-.013-.215,36.583,36.583,0,0,1-5.107-.491,20.731,20.731,0,0,1-5.024-1.456l-.006,0" transform="translate(-114.606 -57.433)" fill="#021621"/>
        <path id="Trazado_1038700" data-name="Trazado 1038700" d="M212.956,91.643a.278.278,0,0,0-.194.089.221.221,0,0,0-.061.169c.113,1.324.26,2.52.453,3.654a18.512,18.512,0,0,0,1.013,3.762,9.993,9.993,0,0,0,.789,1.58,4.153,4.153,0,0,0,.492.653,4.749,4.749,0,0,0,.6.528,12.8,12.8,0,0,0,1.35.854,12.463,12.463,0,0,1,1.311.822,3.7,3.7,0,0,1,.522.5,2.569,2.569,0,0,1,.247.415,2.3,2.3,0,0,1,.1.369,2.512,2.512,0,0,1,0,.415,2.706,2.706,0,0,1-.145.52,3.446,3.446,0,0,1-.4.666,5.618,5.618,0,0,1-.81.8,7.488,7.488,0,0,1-1.467.874c-.174.069-.353.128-.531.179a.674.674,0,0,0,.178,1.323.614.614,0,0,0,.181-.028,5.293,5.293,0,0,0,1.36-.646,6.623,6.623,0,0,0,1.342-1.139,4.265,4.265,0,0,0,1.233-3.021,2.578,2.578,0,0,0-.475-1.344,3.974,3.974,0,0,0-1.122-1.015,12.553,12.553,0,0,0-1.18-.664,10.271,10.271,0,0,1-1.435-.841,3.215,3.215,0,0,1-.559-.565,9.257,9.257,0,0,1-1.064-1.884,20.435,20.435,0,0,1-1.291-5.108c-.069-.519-.131-1.093-.177-1.666a.264.264,0,0,0-.254-.256" transform="translate(-116.165 -51.736)" fill="#c94e2b"/>
        <path id="Trazado_1038701" data-name="Trazado 1038701" d="M205.809,122.451c-.129,0-.26,0-.388.009a9.019,9.019,0,0,0,.256,1.237,6,6,0,0,0,.891,1.857,4.5,4.5,0,0,0,1.579,1.356,4.372,4.372,0,0,0,1.124.391,3.572,3.572,0,0,0,.788.084c.163,0,.322-.009.481-.025a4.6,4.6,0,0,0,2.07-.814l-.036-.062a10.41,10.41,0,0,0-.608-.9,8.342,8.342,0,0,0-.7-.8,9.168,9.168,0,0,0-.8-.714,8.056,8.056,0,0,0-.855-.581,8.731,8.731,0,0,0-.957-.478l.028.015a7.555,7.555,0,0,0-.921-.317,8.356,8.356,0,0,0-.98-.2l.043.008a7.54,7.54,0,0,0-.973-.069h-.045Zm2.874.578a.069.069,0,0,0,.01,0c-.006,0-.008,0-.01,0" transform="translate(-114.63 -58.233)" fill="#f68677"/>
        <path id="Trazado_1038702" data-name="Trazado 1038702" d="M195.213,102.352a1.13,1.13,0,0,0-.163.013c-.461.084-.831.509-1.044,1.194a5.334,5.334,0,0,0-.082,2.429c.307,1.721,1.232,3.02,2.15,3.02a1.129,1.129,0,0,0,.163-.013c.462-.084.833-.509,1.046-1.194a5.3,5.3,0,0,0,.082-2.429c-.309-1.722-1.235-3.02-2.153-3.02" transform="translate(-112.185 -53.994)" fill="#021621"/>
        <path id="Trazado_1038703" data-name="Trazado 1038703" d="M225.56,95.281a1.046,1.046,0,0,0-.157.013c-.449.083-.808.492-1.013,1.155a5.109,5.109,0,0,0-.079,2.352c.3,1.666,1.2,2.922,2.084,2.922a1.043,1.043,0,0,0,.157-.013c.447-.083.806-.493,1.012-1.156a5.086,5.086,0,0,0,.079-2.35c-.3-1.667-1.2-2.924-2.082-2.924" transform="translate(-118.593 -52.503)" fill="#021621"/>
        <path id="Trazado_1038704" data-name="Trazado 1038704" d="M220.141,77.08c-1.683,0-2.858.458-2.995,1.167-.19,1.02,1.772,2.248,4.376,2.737a11.377,11.377,0,0,0,2.073.2c1.682,0,2.857-.458,2.993-1.166a.967.967,0,0,0-.2-.734c-.569-.835-2.247-1.64-4.175-2a11.21,11.21,0,0,0-2.074-.2" transform="translate(-117.101 -48.664)" fill="#021621"/>
      </g>
      <g id="Grupo_1178966" data-name="Grupo 1178966" transform="translate(92.199 155.002)">
        <g id="Grupo_1178961" data-name="Grupo 1178961">
          <g id="Grupo_1178960" data-name="Grupo 1178960" transform="translate(99.966 165.772)">
            <path id="Trazado_1038705" data-name="Trazado 1038705" d="M335.707,430.1c-34.638.281-33.111-34.569-33.111-34.569H245.963l-4.992,12.246,9.016,22.325Z" transform="translate(-237.467 -395.529)" fill="#8c969b"/>
            <path id="Trazado_1038706" data-name="Trazado 1038706" d="M245.026,395.53s-5.342,26.26,11.062,35.7v8.839s-22.257-2.027-19.284-44.538h8.222Z" transform="translate(-236.531 -395.529)" fill="#808a8e"/>
            <rect id="Rectángulo_415503" data-name="Rectángulo 415503" width="85.72" height="9.966" transform="translate(12.519 34.571)" fill="#808a8e"/>
          </g>
          <path id="Trazado_1038707" data-name="Trazado 1038707" d="M388.758,356.3H115.777a5.93,5.93,0,0,1-5.93-5.93V191.382a5.93,5.93,0,0,1,5.93-5.93H388.758a5.93,5.93,0,0,1,5.93,5.93V350.368A5.931,5.931,0,0,1,388.758,356.3Z" transform="translate(-109.847 -185.452)" fill="#96a0a5"/>
          <path id="Trazado_1038708" data-name="Trazado 1038708" d="M394.688,326.289V191.382a5.93,5.93,0,0,0-5.93-5.93H115.777a5.93,5.93,0,0,0-5.93,5.93V326.289Z" transform="translate(-109.847 -185.452)" fill="#0f2737"/>
          <rect id="Rectángulo_415504" data-name="Rectángulo 415504" width="262.758" height="124.557" transform="translate(10.846 8.503)" fill="#fff"/>
        </g>
        <g id="Grupo_1178962" data-name="Grupo 1178962" transform="translate(21.695 26.165)">
          <rect id="Rectángulo_415505" data-name="Rectángulo 415505" width="15.881" height="55.619" transform="translate(6.116 13.954)" fill="#2fc3b0"/>
          <rect id="Rectángulo_415506" data-name="Rectángulo 415506" width="15.881" height="69.574" transform="translate(29.789)" fill="#206969"/>
          <rect id="Rectángulo_415507" data-name="Rectángulo 415507" width="15.881" height="45.905" transform="translate(53.462 23.669)" fill="#fba92d"/>
          <line id="Línea_1063" data-name="Línea 1063" x2="75.837" transform="translate(0 69)" fill="none" stroke="#b86f05" stroke-linecap="round" stroke-miterlimit="10" stroke-width="5"/>
        </g>
        <g id="Grupo_1178963" data-name="Grupo 1178963" transform="translate(21.695 104.634)">
          <line id="Línea_1064" data-name="Línea 1064" x2="75.837" fill="none" stroke="#206969" stroke-linecap="round" stroke-miterlimit="10" stroke-width="2"/>
          <line id="Línea_1065" data-name="Línea 1065" x2="75.837" transform="translate(0 7.891)" fill="none" stroke="#206969" stroke-linecap="round" stroke-miterlimit="10" stroke-width="2"/>
          <line id="Línea_1066" data-name="Línea 1066" x2="75.837" transform="translate(0 15.782)" fill="none" stroke="#206969" stroke-linecap="round" stroke-miterlimit="10" stroke-width="2"/>
        </g>
        <g id="Grupo_1178964" data-name="Grupo 1178964" transform="translate(152.099 77.893)">
          <line id="Línea_1067" data-name="Línea 1067" x2="58.635" fill="none" stroke="#206969" stroke-linecap="round" stroke-miterlimit="10" stroke-width="2"/>
          <line id="Línea_1068" data-name="Línea 1068" x2="58.635" transform="translate(0 7.891)" fill="none" stroke="#206969" stroke-linecap="round" stroke-miterlimit="10" stroke-width="2"/>
          <line id="Línea_1069" data-name="Línea 1069" x2="58.635" transform="translate(0 15.782)" fill="none" stroke="#206969" stroke-linecap="round" stroke-miterlimit="10" stroke-width="2"/>
          <line id="Línea_1070" data-name="Línea 1070" x2="25.033" transform="translate(33.602 23.673)" fill="none" stroke="#206969" stroke-linecap="round" stroke-miterlimit="10" stroke-width="2"/>
        </g>
        <g id="Grupo_1178965" data-name="Grupo 1178965" transform="translate(182.508 118.035)">
          <path id="Trazado_1038709" data-name="Trazado 1038709" d="M380.461,338.1a3.066,3.066,0,1,0-3.066,3.066A3.065,3.065,0,0,0,380.461,338.1Z" transform="translate(-374.33 -335.033)" fill="#fba92d"/>
          <path id="Trazado_1038710" data-name="Trazado 1038710" d="M394.461,338.1a3.066,3.066,0,1,0-3.066,3.066A3.065,3.065,0,0,0,394.461,338.1Z" transform="translate(-377.283 -335.033)" fill="#fba92d"/>
          <path id="Trazado_1038711" data-name="Trazado 1038711" d="M408.461,338.1a3.066,3.066,0,1,0-3.066,3.066A3.065,3.065,0,0,0,408.461,338.1Z" transform="translate(-380.235 -335.033)" fill="#fba92d"/>
        </g>
      </g>
      <g id="Grupo_1178968" data-name="Grupo 1178968" transform="translate(231.562 144.788)">
        <path id="Trazado_1038712" data-name="Trazado 1038712" d="M413.372,176.415H375.045a2.315,2.315,0,0,0-2.207,2.355v53.845a2.316,2.316,0,0,0,2.207,2.356h38.327a2.316,2.316,0,0,0,2.206-2.356V178.77a2.315,2.315,0,0,0-2.206-2.355" transform="translate(-344.206 -167.702)" fill="#2fc3b0"/>
        <g id="Grupo_1178967" data-name="Grupo 1178967" transform="translate(0)">
          <path id="Trazado_1038713" data-name="Trazado 1038713" d="M367.437,165.374H347.4c-3.665,2.247-7.27,4.587-10.847,6.973v49.608a3.929,3.929,0,0,0,3.878,3.878h40.044a3.929,3.929,0,0,0,3.878-3.878v-52.7a3.929,3.929,0,0,0-3.878-3.878Z" transform="translate(-336.554 -165.374)" fill="#cfe7e0"/>
          <path id="Trazado_1038714" data-name="Trazado 1038714" d="M336.97,172.127c.788.349,1.581.685,2.389.986a22.232,22.232,0,0,0,3.234.98l-.052-.009a9.32,9.32,0,0,0,2.056.215h0a.025.025,0,0,0-.013,0,.23.23,0,0,1,.047,0,3.124,3.124,0,0,0,.413-.052c.1-.022.2-.047.3-.077a2.955,2.955,0,0,0,.537-.249l.015-.01-.007.006.009-.006a3.264,3.264,0,0,0,.522-.441l-.037.037a4,4,0,0,0,.533-.776.055.055,0,0,0-.006.021.158.158,0,0,1,.015-.034.048.048,0,0,1,.009-.015l0,0,0,0a.007.007,0,0,1,0,0,6.743,6.743,0,0,0,.5-1.524l-.009.052a11.456,11.456,0,0,0,.21-1.772c.028-.61.015-1.221-.016-1.831v0a15.7,15.7,0,0,0-.256-2.185c-3.164,1.943-6.479,4.071-10.391,6.677m9.956.585,0,.006h0a.125.125,0,0,0-.009.013.029.029,0,0,1,.009-.013s0,0,0-.006m-2.3,1.588h0Z" transform="translate(-336.642 -165.39)" fill="#e4fff7"/>
          <path id="Trazado_1038715" data-name="Trazado 1038715" d="M348.259,176.184l0,0,.012-.009-.008,0" transform="translate(-339.022 -167.653)" fill="#e4fff7"/>
        </g>
      </g>
      <g id="Grupo_1178970" data-name="Grupo 1178970" transform="translate(147.882 180.456)">
        <g id="Grupo_1178969" data-name="Grupo 1178969" transform="translate(0 8.334)">
          <path id="Trazado_1038716" data-name="Trazado 1038716" d="M306.544,328.214a6.52,6.52,0,0,0-5.623,3.231,6.245,6.245,0,0,0-.657,5.031l8.568,21.1,4.053,9.974,8.089,19.9.657,1.557a6.526,6.526,0,0,0,11.268,0,6.242,6.242,0,0,0,.657-5.031l-10.283-25.313-10.286-25.316c-.013-.031-.024-.062-.04-.093l-.049-.125-.053-.127-.657-1.556a6.466,6.466,0,0,0-2.34-2.34,6.533,6.533,0,0,0-3.3-.892" transform="translate(-247.382 -250.06)" fill="#b86f05"/>
          <path id="Trazado_1038717" data-name="Trazado 1038717" d="M311.116,321.325a.568.568,0,0,0-.3.081.6.6,0,0,0-.253.3c-.184-.011-.372-.014-.563-.014a20.027,20.027,0,0,0-4.506.555,27.888,27.888,0,0,0-5.38,1.878,26.857,26.857,0,0,0-4.841,2.864,22.452,22.452,0,0,0-2.045,1.727,16.2,16.2,0,0,0-1.424,1.576.522.522,0,0,0-.322-.1.6.6,0,0,0-.158.02.608.608,0,0,0-.418.737,6.088,6.088,0,0,0,1.663,2.806,6.946,6.946,0,0,0,2.814,1.546,10.792,10.792,0,0,0,3.056.4c.135,0,.27,0,.4-.006a17.247,17.247,0,0,0,3.781-.555,20.236,20.236,0,0,0,3.7-1.36,17.382,17.382,0,0,0,3.235-2.01,11.174,11.174,0,0,0,2.375-2.508,6.744,6.744,0,0,0,1.145-2.957,5.458,5.458,0,0,0-.068-1.685,6.408,6.408,0,0,0-.537-1.509,11.307,11.307,0,0,0-.842-1.487.632.632,0,0,0-.524-.294" transform="translate(-245.465 -248.607)" fill="#021621"/>
          <path id="Trazado_1038718" data-name="Trazado 1038718" d="M243.932,258.982a35.943,35.943,0,1,0,47.26-18.714,35.961,35.961,0,0,0-47.26,18.714" transform="translate(-234.938 -230.888)" fill="#cfe7e0"/>
          <path id="Trazado_1038719" data-name="Trazado 1038719" d="M275.125,229.172c-1.248,0-2.533.061-3.82.179l-.2.018-.121.014a43.276,43.276,0,0,0-5.318.88,41.653,41.653,0,0,0-9.154,3.287c-.306.155-.611.309-.912.466-1,.522-2,1.108-2.991,1.742-.451.283-.891.579-1.326.878-.933.645-1.848,1.335-2.719,2.053a41.1,41.1,0,0,0-7.754,8.4c-.111.155-.219.312-.324.469a41.473,41.473,0,0,0-5.068,10.337l-.029.091c-.1.312-.2.622-.3.934-.349,1.147-.652,2.337-.9,3.538-.013.056-.025.112-.035.17a41.948,41.948,0,0,0-.755,5.7l-.012.231c-.009.133-.015.265-.021.4-.016.31-.025.575-.032.84a42.021,42.021,0,0,0,5.981,22.688,41.2,41.2,0,0,0,10.109,11.41A42.015,42.015,0,0,0,263,310.918a41.1,41.1,0,0,0,12.054,1.789c1.222,0,2.459-.054,3.676-.161a42.006,42.006,0,0,0,14.94-4.208,41.561,41.561,0,0,0,19.907-21.181,41.741,41.741,0,0,0-19.892-53.61,42.6,42.6,0,0,0-7.356-2.834,41.99,41.99,0,0,0-7.818-1.4c-1.108-.095-2.247-.142-3.385-.142m-10.358,10.419.167-.054.085-.028c.065-.022.133-.043.2-.062l.278-.09a35.376,35.376,0,0,1,5.42-1.2,34.822,34.822,0,0,1,4.444-.287h0a34.084,34.084,0,0,1,4.433.29,34.851,34.851,0,0,1,8.5,2.321l.076.025,0,.007a33.51,33.51,0,0,1,20.113,26.325s.008.046.013.046.012.031.013.031h0a35.162,35.162,0,0,1-.022,8.917,34.623,34.623,0,0,1-2.367,8.58l.077-.136a35.385,35.385,0,0,1-4.39,7.51,33.406,33.406,0,0,1-13.477,10.36l.148-.043a35.607,35.607,0,0,1-8.709,2.385,34.9,34.9,0,0,1-4.477.29,34.479,34.479,0,0,1-4.459-.29l.155.035A35.4,35.4,0,0,1,262.2,302.1l.078.049a35.422,35.422,0,0,1-7.4-4.333,33.369,33.369,0,0,1-10.426-13.6l.024.1a35.248,35.248,0,0,1-2.32-8.573,34.593,34.593,0,0,1-.065-8.367c.013-.137.03-.271.047-.407l0-.021c0,.011,0,.027,0,.027a34.46,34.46,0,0,1,2.37-8.69,35.23,35.23,0,0,1,1.769-3.559l.052-.106.006,0a35.353,35.353,0,0,1,2.407-3.635l.048-.063.047-.063.141-.178.056-.085.006,0a34.589,34.589,0,0,1,5.821-5.757c.932-.709,1.9-1.376,2.887-1.982l.126-.077.1-.062.081-.049.074-.045.073-.045.118-.068.117-.067.068-.041.114-.074,0,.007c.1-.056.148-.084.2-.114l.089-.05.075-.041.076-.042.089-.049c.05-.028.1-.056.148-.08.031-.019.062-.037.092-.052l.088-.047.1-.065,0,.007.176-.092c.043-.022.086-.043.126-.069L260,241.6c.047-.028.1-.053.145-.077a.844.844,0,0,0,.083-.043c.059-.028.114-.055.173-.086.123-.062.191-.1.259-.126.576-.283,1.137-.537,1.7-.776.468-.2.94-.38,1.417-.555l.136-.048.111-.039c.123-.046.185-.068.243-.086l.1-.044,0,.007.151-.049.133-.047.109-.044Z" transform="translate(-233.325 -229.172)" fill="#206969"/>
          <path id="Trazado_1038720" data-name="Trazado 1038720" d="M270.571,306.051h0a2.741,2.741,0,0,0-1.78.705,3.61,3.61,0,0,0-1.125,2.057,3.793,3.793,0,0,0,0,1.115,4.927,4.927,0,0,0,.371,1.2,6.669,6.669,0,0,0,1.512,2.037,7.385,7.385,0,0,0,1.9,1.29,5.509,5.509,0,0,0,.657.253q.245.1.5.185a4.6,4.6,0,0,0,1.4.238,2.75,2.75,0,0,0,1.7-.532,2.544,2.544,0,0,0,.869-1.413,3.838,3.838,0,0,0,.118-.846,4.528,4.528,0,0,0-.075-1.056,5.4,5.4,0,0,0-.811-1.822,9.015,9.015,0,0,0-1.441-1.672,7.694,7.694,0,0,0-1.811-1.259,5.157,5.157,0,0,0-.957-.352,3.786,3.786,0,0,0-1.02-.124" transform="translate(-240.559 -245.386)" fill="#fefefe"/>
          <path id="Trazado_1038721" data-name="Trazado 1038721" d="M264.331,254.211a3.848,3.848,0,0,0-1.233.223,7.113,7.113,0,0,0-2.123,1.2,17.281,17.281,0,0,0-2.322,2.2,26.021,26.021,0,0,0-3.743,5.532,36,36,0,0,0-3.275,10.143,31.839,31.839,0,0,0-.311,10.351,15.887,15.887,0,0,0,2.137,6.054c.129.215.265.425.41.632.123.2.256.395.4.586a11.192,11.192,0,0,0,.774.91c.215.241.441.472.672.7l.068.069c.188.181.351.332.514.483a.507.507,0,0,0,.17.1,6.291,6.291,0,0,0,.908.625,5.24,5.24,0,0,0,.935.414,5.068,5.068,0,0,0,1.1.237,3.767,3.767,0,0,0,.534.034,5.755,5.755,0,0,0,1.707-.277,6.755,6.755,0,0,0,1.127-.46,5.7,5.7,0,0,0,.987-.651,5.026,5.026,0,0,0,1.285-1.6,7.72,7.72,0,0,0,.8-3.156,18.133,18.133,0,0,0-.216-3.522c-.162-1.124-.39-2.236-.65-3.468l-.086-.4-.028-.129c-.178-.831-.334-1.581-.438-2.339l-.013-.1a22.7,22.7,0,0,1,.065-5.765,58.741,58.741,0,0,1,1.3-6.172,54.907,54.907,0,0,0,1.409-6.92,9.971,9.971,0,0,0-.04-2.689,4.1,4.1,0,0,0-.726-1.8,2.92,2.92,0,0,0-.655-.63,2.354,2.354,0,0,0-.791-.346,2.514,2.514,0,0,0-.643-.077" transform="translate(-237.06 -234.453)" fill="#fefefe"/>
        </g>
        <path id="Trazado_1038722" data-name="Trazado 1038722" d="M446.894,224.4a16.232,16.232,0,0,0-3.74.428,15.426,15.426,0,0,0-4.3,1.74,13.323,13.323,0,0,0-3.251,2.652,13.123,13.123,0,0,0-1.218,1.61,13.339,13.339,0,0,0-.925,1.755,15.15,15.15,0,0,0-1.042,7.717,21.3,21.3,0,0,0,2.489,7.841,22.118,22.118,0,0,0,5.349,6.558,17.556,17.556,0,0,0,5.622,3.161.533.533,0,0,0,.175.028.652.652,0,0,0,.14-.015h.013a.475.475,0,0,0,.148-.019,24.144,24.144,0,0,0,5.837-2.669,32.244,32.244,0,0,0,5.146-4.036,40.121,40.121,0,0,0,4.279-4.825,17.126,17.126,0,0,0,1.517-2.314,13.158,13.158,0,0,0,.966-2.291,11.189,11.189,0,0,0,.437-2.249,10.244,10.244,0,0,0-.039-2.184,11.03,11.03,0,0,0-1.311-3.994,16.33,16.33,0,0,0-6.374-6.2,20.453,20.453,0,0,0-9.034-2.668c-.293-.015-.589-.024-.885-.024" transform="translate(-275.293 -219.832)" fill="#fba92d"/>
        <path id="Trazado_1038723" data-name="Trazado 1038723" d="M447.67,234.568a5.1,5.1,0,0,0-.527.034,4.123,4.123,0,0,0-.678.142c-.2.062-.391.129-.583.209l.047-.018a6.066,6.066,0,0,0-.7.367c-.2.123-.385.256-.57.391a11.157,11.157,0,0,0-1.936,1.96,10.552,10.552,0,0,0-.833,1.252,12.552,12.552,0,0,0-.638,1.289l.019-.047a13.586,13.586,0,0,0-.617,1.8,16.474,16.474,0,0,0-.376,1.9v-.007a20.541,20.541,0,0,0,.043,5.318c0-.009,0-.021,0-.034a28.419,28.419,0,0,0,1.976,7.137l-.019-.047q.308.727.65,1.439a17.414,17.414,0,0,0,4.6,2.367.635.635,0,0,0,.182.028.868.868,0,0,0,.145-.012.558.558,0,0,0,.151-.019,24.224,24.224,0,0,0,5.85-2.675,32.153,32.153,0,0,0,5.15-4.039q.489-.463.968-.956a53.69,53.69,0,0,0-2.312-6.944l.019.047a34.189,34.189,0,0,0-1.748-3.575,28.577,28.577,0,0,0-2.112-3.2,17.773,17.773,0,0,0-1.255-1.483,12.77,12.77,0,0,0-1.378-1.259l0,0,0,0h0l-.01-.008.006.006a.153.153,0,0,1-.025-.018l0,0-.011-.009a0,0,0,0,0,0,0h0l0,0,0,0h0c-.248-.184-.5-.361-.765-.521s-.518-.284-.789-.407a.079.079,0,0,1-.021-.008,5.4,5.4,0,0,0-.735-.254,6.037,6.037,0,0,0-.623-.123h.016l-.022,0,.006,0c-.009,0-.015,0-.025,0h0a4.581,4.581,0,0,0-.476-.031h-.045" transform="translate(-276.938 -221.976)" fill="#e38907"/>
        <path id="Trazado_1038724" data-name="Trazado 1038724" d="M452.1,235.087l.02.008-.034-.015.014.007" transform="translate(-279.46 -222.083)" fill="#e38907"/>
        <path id="Trazado_1038725" data-name="Trazado 1038725" d="M452.124,235.1" transform="translate(-279.469 -222.088)" fill="#e38907"/>
        <path id="Trazado_1038726" data-name="Trazado 1038726" d="M454.12,236.292l-.013-.009.013.009" transform="translate(-279.888 -222.337)" fill="#e38907"/>
        <path id="Trazado_1038727" data-name="Trazado 1038727" d="M441.278,269.61a.618.618,0,0,0-.556.356,5.876,5.876,0,0,1-.311.588,20.356,20.356,0,0,1-2.323,2.9c-.589.645-1.19,1.281-1.79,1.917-.47.5-.941,1-1.406,1.5a42.024,42.024,0,0,0-3.028,3.585,18.107,18.107,0,0,0-1.184,1.835,8.672,8.672,0,0,0-.736,1.709,5.572,5.572,0,0,0-.254,1.606,3.97,3.97,0,0,0,.282,1.479,5.1,5.1,0,0,0,1.522,1.939,7.857,7.857,0,0,0,1.122.78,7.58,7.58,0,0,0,1.2.58.685.685,0,0,0,.24.045.592.592,0,0,0,.55-.354.633.633,0,0,0,0-.488,20.039,20.039,0,0,0,5.012-8.447,56.349,56.349,0,0,0,2.112-9.822.6.6,0,0,0-.122-.453,4.678,4.678,0,0,0,.216-.417.574.574,0,0,0,.013-.447.585.585,0,0,0-.556-.391" transform="translate(-274.738 -229.366)" fill="#f6cfbe"/>
        <path id="Trazado_1038728" data-name="Trazado 1038728" d="M452.869,240.724l-.037,0a.661.661,0,0,0-.428.216,29.015,29.015,0,0,0-4.057,4.956,34.286,34.286,0,0,0-2.791,5.349,83.175,83.175,0,0,0-3.13,9.551q-.289,1.016-.579,2.028-.2.7-.41,1.4l.046-.1c-.32,1.018-.641,2.038-.977,3.052-.313.945-.677,1.944-1.112,3.055-.494,1.259-1.016,2.505-1.538,3.753-.339.809-.678,1.618-1.008,2.43-1.528,3.756-3.172,8.148-3.345,12.758a20.012,20.012,0,0,0,.139,3.3,18.972,18.972,0,0,0,.743,3.321,19.444,19.444,0,0,0,2.323,4.777,23.772,23.772,0,0,0,3.4,4.024,28.311,28.311,0,0,0,4.219,3.315,33.44,33.44,0,0,0,9.184,4.112c.947.264,1.9.483,2.827.651,0,.359,0,.726-.012,1.092l.018-.079,0-.08a39,39,0,0,1-1.581,9.615h0a43.712,43.712,0,0,1-2.915,7.317.547.547,0,0,0-.021.434.617.617,0,0,0,.321.36.39.39,0,0,0,.119.037.558.558,0,0,0,.316.361,40.122,40.122,0,0,0,5.24,1.806,59.559,59.559,0,0,0,5.941,1.307,72.251,72.251,0,0,0,12.226,1.052,41.653,41.653,0,0,0,5.361-.294,12.729,12.729,0,0,0,2.952-.724A8.485,8.485,0,0,0,487,333.22a.663.663,0,0,0,.24-.39.6.6,0,0,0-.5-.687.564.564,0,0,0-.092-.007.705.705,0,0,0-.146.016,39.912,39.912,0,0,1-1.227-3.954,37.234,37.234,0,0,1-1.042-9.6l-.018.079,0,.08a43.23,43.23,0,0,1,1.452-9.772.431.431,0,0,0,.193-.161l.47-.691c2.456-3.6,4.994-7.321,7.133-11.2a55.626,55.626,0,0,0,3.025-6.409,58.183,58.183,0,0,0,1.9-5.744,41.929,41.929,0,0,0,1.59-11.016,27.572,27.572,0,0,0-1.849-10.2,24.468,24.468,0,0,0-2.449-4.647,26.3,26.3,0,0,0-3.577-4.23,39.6,39.6,0,0,0-9.317-6.351,77.77,77.77,0,0,0-10.824-4.668,52.659,52.659,0,0,0-11.646-2.737,30.805,30.805,0,0,0-3.259-.182,22.632,22.632,0,0,0-3.673.286.486.486,0,0,0-.135-.168.61.61,0,0,0-.378-.134" transform="translate(-275.539 -223.274)" fill="#f6cfbe"/>
        <path id="Trazado_1038729" data-name="Trazado 1038729" d="M456.878,240.7a.677.677,0,0,0-.438.222,29.031,29.031,0,0,0-3.773,4.525,29.64,29.64,0,0,0,2.34,3.132,30.973,30.973,0,0,0,2.725,2.793l-.037-.036a31.867,31.867,0,0,0,3.564,2.782,36.536,36.536,0,0,0,3.93,2.3c-.018-.006-.034-.016-.049-.022a44.343,44.343,0,0,0,11.1,3.758l-.049-.009a57.708,57.708,0,0,0,14.675.974,61.718,61.718,0,0,0,9.464-1.3q-.285-.466-.592-.924a25.849,25.849,0,0,0-3.579-4.238,39.5,39.5,0,0,0-9.321-6.349,77.071,77.071,0,0,0-10.826-4.667,52.864,52.864,0,0,0-11.649-2.747c-1.2-.12-2.269-.181-3.261-.181a23.386,23.386,0,0,0-3.675.286.367.367,0,0,0-.123-.16.629.629,0,0,0-.388-.142Z" transform="translate(-279.584 -223.269)" fill="#f0bea9"/>
        <path id="Trazado_1038730" data-name="Trazado 1038730" d="M473.851,331.563a20.912,20.912,0,0,1-2.657.438,28.287,28.287,0,0,1-5.336.043c-.157-.012-.311-.028-.466-.043l-.206-.009c-.48-.025-.96-.059-1.438-.114-.463-.028-.926-.068-1.387-.122l-.014.51-.013.533.05-.073.009-.087q-.078,1.813-.335,3.662c.256,0,.508,0,.764-.009h-.052a23.516,23.516,0,0,0,6.116-1,17.964,17.964,0,0,0,4.054-1.8.04.04,0,0,0,.012-.009s0-.006.006-.006h0a13.352,13.352,0,0,0,1.279-.9,11.77,11.77,0,0,0,1.088-.993c-.006.009-.015.016-.021.024.2-.215.391-.434.576-.663a20.993,20.993,0,0,1-2.028.608" transform="translate(-281.564 -242.303)" fill="#da8c67"/>
        <path id="Trazado_1038731" data-name="Trazado 1038731" d="M475.822,334.189l.01-.006-.01.006" transform="translate(-284.467 -242.984)" fill="#da8c67"/>
        <path id="Trazado_1038732" data-name="Trazado 1038732" d="M466.662,218.61c-.145,0-.29,0-.435.006a10.576,10.576,0,0,0-3.3.614,7.325,7.325,0,0,0-2.688,1.685,6.212,6.212,0,0,0-1.568,2.793,7.732,7.732,0,0,0-.238,1.867,9.331,9.331,0,0,0,.047,1.015c.015.173.034.346.058.518h-.021a10.572,10.572,0,0,0-4.136.821,11.9,11.9,0,0,0-3.77,2.628.514.514,0,0,0-.144.392.634.634,0,0,0,.208.455.6.6,0,0,0,.244.125,31.227,31.227,0,0,0,2.809,4.815,34.623,34.623,0,0,0,3.861,4.52,40.457,40.457,0,0,0,9.668,7.029,42.325,42.325,0,0,0,12.36,4.289,46.576,46.576,0,0,0-4.245,10.689,15.775,15.775,0,0,0-.234,5.906,12.216,12.216,0,0,0,.848,2.878,13.015,13.015,0,0,0,1.66,2.76c.055.071.111.142.17.21-.05.81-.111,1.607-.171,2.4l-.013.169a.664.664,0,0,0,.069.408.418.418,0,0,0-.139.182,41.129,41.129,0,0,0-2.645,8.984,30.638,30.638,0,0,0-.436,4.772,21.626,21.626,0,0,0,.42,4.555,18.345,18.345,0,0,0,.6,2.217,15.707,15.707,0,0,0,.9,2.078,13.538,13.538,0,0,0,2.72,3.6,14.991,14.991,0,0,0,4.135,2.733,17.987,17.987,0,0,0,2.585.94,11.73,11.73,0,0,0,2.261.389q.46.034.918.034a14.6,14.6,0,0,0,3.755-.518,20.191,20.191,0,0,0,4.53-1.9,31.408,31.408,0,0,0,4.331-2.947,49.992,49.992,0,0,0,4.113-3.71,77.527,77.527,0,0,0,7.023-8.181c.9-1.191,1.82-2.47,2.74-3.8,1.092-1.582,1.9-2.817,2.63-4a50,50,0,0,0,5.4-11.894,29.026,29.026,0,0,0,1.082-12.706A21.534,21.534,0,0,0,522.7,252.3a27.128,27.128,0,0,0-3.687-5.5,38.542,38.542,0,0,0-4.468-4.507,44.465,44.465,0,0,0-5.038-3.7,64.619,64.619,0,0,0-11.225-5.543c-4-1.565-8.13-2.872-12.021-4.078-.87-.268-1.737-.545-2.6-.822l-1.368-.435A40.45,40.45,0,0,0,476,221.854a20.214,20.214,0,0,0-2.594-1.585,16.071,16.071,0,0,0-2.649-1.061,14.212,14.212,0,0,0-4.1-.6" transform="translate(-279.12 -218.61)" fill="#fba92d"/>
        <path id="Trazado_1038733" data-name="Trazado 1038733" d="M450.711,234.76a.2.2,0,0,0-.043.275,45.2,45.2,0,0,0,7.209,9.62,43.574,43.574,0,0,0,9.771,7.432,37.779,37.779,0,0,0,4.17,2.016,32.841,32.841,0,0,0,4.4,1.443c.737.188,1.486.342,2.235.474.866.152,1.738.256,2.611.358.965.114,1.929.2,2.9.238q.786.028,1.572.009a12.436,12.436,0,0,0,1.513-.136.71.71,0,0,0,.619-.774.694.694,0,0,0-.259-.468.758.758,0,0,0-.514-.151c-.666.009-1.33.017-1.992.01l.047,0-.106,0h-.035a52.631,52.631,0,0,1-5.67-.438,32.491,32.491,0,0,1-4.552-.93,37.469,37.469,0,0,1-4.452-1.58,36.882,36.882,0,0,1-4.36-2.232l.008,0a43.022,43.022,0,0,1-8.887-7.173l.015.02a43.729,43.729,0,0,1-3.2-3.768,36.728,36.728,0,0,1-2.728-4.2.171.171,0,0,0-.154-.081.224.224,0,0,0-.124.038m34.137,20.345h0" transform="translate(-279.155 -222.008)" fill="#e38907"/>
        <path id="Trazado_1038734" data-name="Trazado 1038734" d="M473.381,247.925a.235.235,0,0,0-.006.333c.607.493,1.236.962,1.889,1.394a23.481,23.481,0,0,0,2.037,1.184,24.032,24.032,0,0,0,4.411,1.732,36.446,36.446,0,0,0,4.593.986c.78.123,1.566.222,2.352.324.829.108,1.661.219,2.5.25a.827.827,0,1,0,.055-1.652c-.438-.016-.872-.016-1.307-.013-.182,0-.364,0-.543,0-.657,0-1.313-.018-1.973-.055a37.223,37.223,0,0,1-3.779-.4l.025,0-.084-.014-.046-.007.02,0a28.862,28.862,0,0,1-3.052-.685,23.566,23.566,0,0,1-3.033-1.1c.024.009.049.021.077.031a18.082,18.082,0,0,1-3.85-2.34.176.176,0,0,0-.11-.036.266.266,0,0,0-.177.069m10.172,4.067.059.009c-.028-.006-.057-.009-.085-.013l.026,0" transform="translate(-283.937 -224.778)" fill="#e38907"/>
        <path id="Trazado_1038735" data-name="Trazado 1038735" d="M487.879,266.839a42.94,42.94,0,0,0-2.016,4.935,20.019,20.019,0,0,0-.616,2.54,15.567,15.567,0,0,0-.256,2.731A.6.6,0,0,0,486,277.5a.564.564,0,0,0,.191-.425,15.5,15.5,0,0,1,.129-3.7,25.436,25.436,0,0,1,1.943-6.168l-.009.019c.017-.037.035-.075.052-.115a.259.259,0,0,0-.077-.348.262.262,0,0,0-.141-.039.226.226,0,0,0-.21.115m.386.368.012-.025Z" transform="translate(-286.401 -228.757)" fill="#e38907"/>
        <path id="Trazado_1038736" data-name="Trazado 1038736" d="M489.245,284.163a10.742,10.742,0,0,0-2.126.222,11.02,11.02,0,0,0-2.859,1.021,10.14,10.14,0,0,0-4.366,4.356,20.479,20.479,0,0,0-2.935,7.409,32.013,32.013,0,0,0-.518,8.482.582.582,0,0,0,.251.385.6.6,0,0,0,.333.1.545.545,0,0,0,.095-.008.528.528,0,0,0,.177.046,28.089,28.089,0,0,0,3.246.224l.236,0a16.5,16.5,0,0,0,2.664-.262,17.471,17.471,0,0,0,5.069-1.779,17.06,17.06,0,0,0,4.3-3.245,14.978,14.978,0,0,0,2.988-4.5,13.276,13.276,0,0,0,.793-2.621,12.349,12.349,0,0,0,.237-2.529,7.86,7.86,0,0,0-.988-3.851,6.628,6.628,0,0,0-2.474-2.432,8.23,8.23,0,0,0-3.395-.99c-.241-.018-.484-.028-.728-.028" transform="translate(-284.581 -232.435)" fill="#f6cfbe"/>
        <path id="Trazado_1038737" data-name="Trazado 1038737" d="M485.344,291.027a.57.57,0,0,0-.382.814c.088.192.17.387.245.581a10.848,10.848,0,0,1,.575,2.577,10.711,10.711,0,0,1-.125,2.629,11.306,11.306,0,0,1-.868,2.7c.006-.013.013-.027.02-.039a10.084,10.084,0,0,1-1.333,2.086,9.77,9.77,0,0,1-.71.738.2.2,0,0,0-.015.277.2.2,0,0,0,.28.016,11.319,11.319,0,0,0,1.995-2.453,11.14,11.14,0,0,0,1.242-3.046,12.209,12.209,0,0,0,.342-3.175,11.063,11.063,0,0,0-.157-1.606,10.687,10.687,0,0,0-.432-1.665.615.615,0,0,0-.243-.351.584.584,0,0,0-.314-.094.572.572,0,0,0-.121.013m.32,6.566c0,.007,0,.016,0,.024l0-.024m-2.2,4.788-.012.014Z" transform="translate(-285.919 -233.88)" fill="#da8c67"/>
        <path id="Trazado_1038738" data-name="Trazado 1038738" d="M490.788,288.258a8.742,8.742,0,0,0-2.786.589,7.166,7.166,0,0,0-1.242.653,3.369,3.369,0,0,0-.968.91.436.436,0,0,0,.019.521.428.428,0,0,0,.508.12c.26-.144.508-.308.761-.467a10.355,10.355,0,0,1,2.329-1.049,10.148,10.148,0,0,1,2.336-.38h.014l.054,0-.037,0a8.457,8.457,0,0,1,1.909.187,6.294,6.294,0,0,1,1.332.485l-.01,0a5.271,5.271,0,0,1,.6.372.337.337,0,1,0,.388-.552,7.243,7.243,0,0,0-2.408-1.1,9.423,9.423,0,0,0-1.368-.247,8.1,8.1,0,0,0-.9-.045q-.266,0-.534.011m-3.594,2.254-.1.065.1-.065m4.563-1.357h0" transform="translate(-286.553 -233.296)" fill="#da8c67"/>
        <path id="Trazado_1038739" data-name="Trazado 1038739" d="M322.7,345.671a4.429,4.429,0,0,0-.445.024,2.941,2.941,0,0,0-2.043,1.237,5.04,5.04,0,0,0-.818,2.365,9.9,9.9,0,0,0,.062,2.631,9.072,9.072,0,0,0,.244,1.135q.088.315.2.619a47.035,47.035,0,0,0-4.948-.531c-.629-.033-1.255-.049-1.884-.049q-.916,0-1.832.047a8.225,8.225,0,0,0-2.423.5,5.963,5.963,0,0,0-1.811,1.075,6.039,6.039,0,0,0-.676.713,5.357,5.357,0,0,0-.547.87,4.908,4.908,0,0,0-.515,1.787,5.574,5.574,0,0,0,.151,1.9,6.693,6.693,0,0,0,1.367,2.621,7.294,7.294,0,0,0,1.108,1.07,4.26,4.26,0,0,0-.2,1.279,4.541,4.541,0,0,0,.664,2.359,6.42,6.42,0,0,0,2.614,2.383,3.457,3.457,0,0,0,.06.54,3.377,3.377,0,0,0,.677,1.439,4.469,4.469,0,0,0,1.214,1.031,8.366,8.366,0,0,0,1.632.747,17.555,17.555,0,0,0,3.861.77,35.377,35.377,0,0,0,3.716.173c.175,0,.351,0,.527,0a.672.672,0,0,0,.081.013c.83.047,1.57.07,2.263.07.759,0,1.456-.028,2.131-.083a15.192,15.192,0,0,0,2.292-.364,9.689,9.689,0,0,0,2.162-.771,7.266,7.266,0,0,0,.935-.571,6.3,6.3,0,0,0,.867-.772A5.254,5.254,0,0,0,334.514,370a4.6,4.6,0,0,0,.247-1.167,6.109,6.109,0,0,0-.071-1.367,12.34,12.34,0,0,0-.83-2.74c-.331-.817-.723-1.624-1.1-2.406l-.114-.232c-.181-.376-.364-.753-.536-1.135-.153-.333-.291-.672-.43-1.013l-.184-.445c-.865-2.092-1.859-4.345-3.129-7.089l-.353-.765c-.239-.518-.477-1.037-.723-1.552a17.589,17.589,0,0,0-1.215-2.178,6.125,6.125,0,0,0-1.642-1.707,3.315,3.315,0,0,0-1.044-.457,2.931,2.931,0,0,0-.7-.08" transform="translate(-248.49 -245.407)" fill="#f6cfbe"/>
        <path id="Trazado_1038740" data-name="Trazado 1038740" d="M308.955,368.4a.2.2,0,0,0,.145.241,9.3,9.3,0,0,0,3.9.333.326.326,0,0,0,.2-.09.29.29,0,0,0,.08-.209.284.284,0,0,0-.09-.2.277.277,0,0,0-.209-.081c-.447.053-.891.1-1.341.129a8.39,8.39,0,0,1-1.291-.027l.014,0-.019,0-.039,0h.022c-.188-.024-.37-.053-.556-.087s-.391-.1-.582-.155a.155.155,0,0,0-.047-.006.206.206,0,0,0-.191.151m1.393.1h0l-.022,0,.017,0" transform="translate(-249.274 -250.169)" fill="#da8c67"/>
        <path id="Trazado_1038741" data-name="Trazado 1038741" d="M312.648,375.722a.223.223,0,0,0,.16.262,7.638,7.638,0,0,0,3.227.333.4.4,0,0,0,.252-.111.375.375,0,0,0,.1-.268.369.369,0,0,0-.111-.249.35.35,0,0,0-.265-.1c-.386.062-.771.12-1.159.157a6.064,6.064,0,0,1-1.109,0c-.14-.018-.277-.04-.417-.07s-.28-.071-.422-.114a.169.169,0,0,0-.051-.008.224.224,0,0,0-.207.165" transform="translate(-250.053 -251.71)" fill="#da8c67"/>
        <path id="Trazado_1038742" data-name="Trazado 1038742" d="M446.43,344.986a37.954,37.954,0,0,0-6.382.545,44.188,44.188,0,0,0-9.962,3.027,69.309,69.309,0,0,0-9.3,4.979c-3.229,2.019-6.318,4.237-8.915,6.141-4.636,3.4-9.255,6.973-13.72,10.433q-2.793,2.164-5.595,4.319c-5.4,4.14-11.849,8.967-18.786,13.371-5.029-3.709-10.462-7.107-15.582-10.228q-2.058-1.255-4.123-2.5c-4.95-2.989-10.069-6.081-14.933-9.389a.493.493,0,0,0-.284-.084c-.1,0-.137-.006-.176-.006a.452.452,0,0,0-.113.013,20.421,20.421,0,0,0-6.931,3.351,33.484,33.484,0,0,0-5.735,5.18.585.585,0,0,0-.1.441.669.669,0,0,0,.107.256.585.585,0,0,0,.065.153,163.889,163.889,0,0,0,9.854,14.445,109.61,109.61,0,0,0,11.993,13.394,71.1,71.1,0,0,0,14.033,10.42,32.927,32.927,0,0,0,7.245,2.954,33.546,33.546,0,0,0,7.433,1.113c.471.019.944.028,1.414.028a46.354,46.354,0,0,0,13.7-2.281,76.832,76.832,0,0,0,12.077-5.031,98.712,98.712,0,0,1-1.651,11.923c-.452,2.286-1.005,4.791-1.692,7.653a.6.6,0,0,0,.375.762.6.6,0,0,0,.182.028.635.635,0,0,0,.458-.188q6.314-.047,12.639-.047c10.125,0,20.142.086,28.6.169l7.766.079c11.109.113,22.6.23,33.9.248l3.214,0q3.7,0,7.4-.018,2.6-.014,5.2-.034l1.353-.013,1.353-.013.848-.009c.51,0,1.018-.009,1.526-.024a.592.592,0,0,0,.583.5.628.628,0,0,0,.458-.219.587.587,0,0,0,.137-.433,126.779,126.779,0,0,0-1.806-12.7c-.38-1.919-.822-3.809-1.319-5.9-.471-1.978-.93-3.815-1.4-5.613a137.459,137.459,0,0,0-7.351-21.455,93.527,93.527,0,0,0-11.206-18.845,62.106,62.106,0,0,0-14.116-13.633,44.263,44.263,0,0,0-8.586-4.551,39.9,39.9,0,0,0-9.7-2.45,36.373,36.373,0,0,0-4.446-.271" transform="translate(-252.825 -245.262)" fill="#2fc3b0"/>
        <path id="Trazado_1038743" data-name="Trazado 1038743" d="M517.862,364.193a75.726,75.726,0,0,1,7.395,13.726q.8,1.914,1.507,3.859c.509,1.4.983,2.815,1.437,4.235q1.48,4.647,2.647,9.383t2.044,9.55q.434,2.4.8,4.808c.234,1.572.46,3.148.638,4.726.376,3.294.582,6.606.653,9.919.068,3.1.032,6.209-.065,9.314q2.468-.013,4.933-.032l1.353-.013,1.353-.013.847-.009.305-.006c.406,0,.813-.006,1.221-.019a.584.584,0,0,0,.582.5.654.654,0,0,0,.472-.222.61.61,0,0,0,.141-.447,127.843,127.843,0,0,0-1.806-12.7c-.361-1.806-.758-3.536-1.323-5.91-.462-1.936-.922-3.773-1.4-5.616a137.7,137.7,0,0,0-7.351-21.453,93.6,93.6,0,0,0-11.208-18.849,67.744,67.744,0,0,0-8.8-9.491q1.926,2.288,3.621,4.757" transform="translate(-292.57 -248.31)" fill="#2bb4a2"/>
        <path id="Trazado_1038744" data-name="Trazado 1038744" d="M466.434,399.92l.047-.028c-3.024,1.877-5.946,3.908-8.948,5.82-1.486.946-2.987,1.865-4.528,2.718-.786.435-1.581.851-2.377,1.264q-1.22.628-2.45,1.245c-4.537,2.275-9.146,4.4-13.788,6.458q-3.491,1.539-7,3.039c-1.053.453-2.1.916-3.156,1.374-.212,2.626-.553,5.375-1.049,8.327l.684-.305a182.039,182.039,0,0,0,21.7-11.118l-.016.012a92.43,92.43,0,0,0,8.921-6.236c1.418-1.128,2.8-2.3,4.13-3.526q1.961-1.807,3.782-3.755l-.037.037a62.882,62.882,0,0,0,4.728-5.722c-.215.13-.43.262-.646.4M445.6,418.7a.123.123,0,0,1-.028.016.123.123,0,0,0,.028-.016" transform="translate(-273.367 -256.765)" fill="#2bb4a2"/>
        <path id="Trazado_1038745" data-name="Trazado 1038745" d="M325.362,382.45a.752.752,0,0,0-.29.49.794.794,0,0,0,.145.567c1.054,1.683,2.164,3.338,3.261,4.993s2.225,3.323,3.362,4.969,2.284,3.27,3.456,4.882c1.033,1.424,2.084,2.833,3.175,4.211a72.283,72.283,0,0,0,13.861,13.615,52.894,52.894,0,0,0,8.307,4.982,42.853,42.853,0,0,0,9.932,3.381,39.787,39.787,0,0,0,11.18.561,56.189,56.189,0,0,0,10.955-2.152,103.409,103.409,0,0,0,10.724-3.871c3.138-1.3,6.248-2.676,9.343-4.072,1.522-.684,3.039-1.387,4.552-2.1,1.539-.722,3.08-1.443,4.605-2.2q4.615-2.279,9.136-4.75c3.169-1.742,6.273-3.594,9.272-5.614a77.882,77.882,0,0,0,8.468-6.5.261.261,0,0,0,.046-.361.254.254,0,0,0-.357-.049,65.518,65.518,0,0,1-6.048,4.78c-2.233,1.569-4.558,3-6.923,4.357l.055-.035q-4.443,2.543-9.078,4.719-2.321,1.1-4.676,2.127c-1.553.684-3.11,1.365-4.675,2.031-3.04,1.289-6.094,2.537-9.136,3.822-1.61.681-3.209,1.378-4.821,2.049-1.763.734-3.541,1.437-5.336,2.1-2.421.889-4.874,1.684-7.365,2.349l.035-.009a57.793,57.793,0,0,1-6.344,1.3,43.927,43.927,0,0,1-6.6.456,39.98,39.98,0,0,1-4.728-.354,37.133,37.133,0,0,1-5.028-1.057l.047.014-.058-.017-.157-.044.107.029a46.187,46.187,0,0,1-10.508-4.631,60.357,60.357,0,0,1-11.638-9.311c.053.049.1.1.154.154q-2.464-2.511-4.7-5.228c-1.64-1.979-3.168-4.044-4.682-6.119q-2.539-3.486-4.993-7.031-1.23-1.766-2.445-3.551c-.851-1.245-1.68-2.5-2.54-3.742a.717.717,0,0,0-.595-.294.761.761,0,0,0-.459.148m65.076,39.3-.141.037c.047-.013.095-.025.141-.037m-22.618.316.012,0-.062-.018.05.015" transform="translate(-252.673 -253.132)" fill="#208b7e"/>
        <path id="Trazado_1038746" data-name="Trazado 1038746" d="M452.322,277.087a1.236,1.236,0,0,1,.162.017c.458.1.819.529,1.016,1.218a5.344,5.344,0,0,1,.025,2.43c-.347,1.714-1.3,2.99-2.221,2.969a1.267,1.267,0,0,1-.163-.017c-.46-.1-.821-.528-1.019-1.218a5.293,5.293,0,0,1-.025-2.43c.352-1.714,1.308-2.99,2.225-2.969" transform="translate(-279.015 -230.943)" fill="#021621"/>
        <path id="Trazado_1038747" data-name="Trazado 1038747" d="M461.239,260.612c1.268,1.384,1.63,2.832.92,3.689-1.025,1.226-3.911.9-6.434-.728a9.243,9.243,0,0,1-1.794-1.494c-1.268-1.384-1.629-2.831-.919-3.687a1.967,1.967,0,0,1,.99-.608c1.385-.409,3.572.127,5.442,1.333a9.191,9.191,0,0,1,1.794,1.494" transform="translate(-279.581 -226.844)" fill="#fba92d"/>
        <path id="Trazado_1038748" data-name="Trazado 1038748" d="M435.526,301.366a4.778,4.778,0,0,0,6.267-2.47" transform="translate(-275.969 -235.542)" fill="none" stroke="#021621" stroke-linecap="round" stroke-miterlimit="10" stroke-width="1"/>
      </g>
      <path id="Trazado_1038749" data-name="Trazado 1038749" d="M400.956,447.43H46.661c-2.164,0-3.972,2.065-3.972,4.537S44.5,456.5,46.661,456.5h354.3c2.164,0,3.972-2.065,3.972-4.537s-1.808-4.537-3.972-4.537" transform="translate(-3.484 -85.701)" fill="#206969"/>
    </g>
  </g>
</svg>
