<svg xmlns="http://www.w3.org/2000/svg" xmlns:xlink="http://www.w3.org/1999/xlink" width="113" height="113" viewBox="0 0 113 113">
  <defs>
    <filter id="Trazado_982547" x="0" y="0" width="113" height="113" filterUnits="userSpaceOnUse">
      <feOffset dy="3" input="SourceAlpha"/>
      <feGaussianBlur stdDeviation="3" result="blur"/>
      <feFlood flood-opacity="0.161"/>
      <feComposite operator="in" in2="blur"/>
      <feComposite in="SourceGraphic"/>
    </filter>
  </defs>
  <g id="Grupo_1174254" data-name="Grupo 1174254" transform="translate(-586 -1879)">
    <g id="Grupo_1173586" data-name="Grupo 1173586" transform="translate(0 -319.679)">
      <g id="Grupo_1168707" data-name="Grupo 1168707" transform="translate(315 -836.474)">
        <g id="Grupo_1162113" data-name="Grupo 1162113" transform="translate(280 3041.154)">
          <g id="Grupo_1152576" data-name="Grupo 1152576" transform="translate(0)">
            <g id="Grupo_1148633" data-name="Grupo 1148633">
              <g id="Grupo_1148525" data-name="Grupo 1148525">
                <g transform="matrix(1, 0, 0, 1, -9, -6)" filter="url(#Trazado_982547)">
                  <g id="Trazado_982547-2" data-name="Trazado 982547" transform="translate(9 6)" fill="#e8edf7">
                    <path d="M 47.5 93.5 C 41.28937149047852 93.5 35.26533508300781 92.28397369384766 29.59518623352051 89.88570404052734 C 24.11771965026855 87.56893157958984 19.19813346862793 84.25196075439453 14.97309303283691 80.02691650390625 C 10.74804019927979 75.80186462402344 7.431066513061523 70.88229370117188 5.114293098449707 65.40481567382812 C 2.716026782989502 59.73468017578125 1.5 53.71062850952148 1.5 47.5 C 1.5 41.28937149047852 2.716026782989502 35.26533508300781 5.114293098449707 29.59518623352051 C 7.431066513061523 24.11771965026855 10.74804019927979 19.19813346862793 14.97309303283691 14.97309303283691 C 19.19813346862793 10.74804019927979 24.11771965026855 7.431066513061523 29.59518623352051 5.114293098449707 C 35.26533508300781 2.716026782989502 41.28937149047852 1.5 47.5 1.5 C 53.71062850952148 1.5 59.73468017578125 2.716026782989502 65.40481567382812 5.114293098449707 C 70.88229370117188 7.431066513061523 75.80186462402344 10.74804019927979 80.02691650390625 14.97309303283691 C 84.25196075439453 19.19813346862793 87.56893157958984 24.11771965026855 89.88570404052734 29.59518623352051 C 92.28397369384766 35.26533508300781 93.5 41.28937149047852 93.5 47.5 C 93.5 53.71062850952148 92.28397369384766 59.73468017578125 89.88570404052734 65.40481567382812 C 87.56893157958984 70.88229370117188 84.25196075439453 75.80186462402344 80.02691650390625 80.02691650390625 C 75.80186462402344 84.25196075439453 70.88229370117188 87.56893157958984 65.40481567382812 89.88570404052734 C 59.73468017578125 92.28397369384766 53.71062850952148 93.5 47.5 93.5 Z" stroke="none"/>
                    <path d="M 47.5 3 C 41.49121475219727 3 35.66376876831055 4.176155090332031 30.17950439453125 6.495796203613281 C 24.88084411621094 8.736953735351562 20.12152099609375 11.94598388671875 16.03375244140625 16.03375244140625 C 11.94598388671875 20.12152099609375 8.736953735351562 24.88084411621094 6.495796203613281 30.17950439453125 C 4.176155090332031 35.66376876831055 3 41.49121475219727 3 47.5 C 3 53.50878524780273 4.176155090332031 59.33623123168945 6.495796203613281 64.82049560546875 C 8.736953735351562 70.11915588378906 11.94598388671875 74.87847900390625 16.03375244140625 78.96624755859375 C 20.12152099609375 83.05401611328125 24.88084411621094 86.26304626464844 30.17950439453125 88.50419616699219 C 35.66376876831055 90.82384490966797 41.49121475219727 92 47.5 92 C 53.50878524780273 92 59.33623123168945 90.82384490966797 64.82049560546875 88.50419616699219 C 70.11915588378906 86.26304626464844 74.87847900390625 83.05401611328125 78.96624755859375 78.96624755859375 C 83.05401611328125 74.87847900390625 86.26304626464844 70.11915588378906 88.50419616699219 64.82049560546875 C 90.82384490966797 59.33623123168945 92 53.50878524780273 92 47.5 C 92 41.49121475219727 90.82384490966797 35.66376876831055 88.50419616699219 30.17950439453125 C 86.26304626464844 24.88084411621094 83.05401611328125 20.12152099609375 78.96624755859375 16.03375244140625 C 74.87847900390625 11.94598388671875 70.11915588378906 8.736953735351562 64.82049560546875 6.495796203613281 C 59.33623123168945 4.176155090332031 53.50878524780273 3 47.5 3 M 47.5 0 C 73.7335205078125 0 95 21.2664794921875 95 47.5 C 95 73.7335205078125 73.7335205078125 95 47.5 95 C 21.2664794921875 95 0 73.7335205078125 0 47.5 C 0 21.2664794921875 21.2664794921875 0 47.5 0 Z" stroke="none" fill="#2e5bb6"/>
                  </g>
                </g>
              </g>
            </g>
          </g>
        </g>
      </g>
    </g>
    <g id="company" transform="translate(596.001 1886)">
      <g id="Grupo_1174252" data-name="Grupo 1174252" transform="translate(19.042 21.071)">
        <path id="Trazado_1027659" data-name="Trazado 1027659" d="M358.2,60.057V56H346.028v4.057H344V97.583h16.227V60.057Z" transform="translate(-305.46 -56)" fill="#80daff"/>
        <path id="Trazado_1027660" data-name="Trazado 1027660" d="M62.477,384a29.419,29.419,0,0,0,49.068,0Z" transform="translate(-59.627 -342.417)" fill="#fbd373"/>
        <path id="Trazado_1027661" data-name="Trazado 1027661" d="M134.2,244.284H120v-14.2L127.1,224l7.1,6.085Z" transform="translate(-109.858 -202.702)" fill="#80daff"/>
        <path id="Trazado_1027662" data-name="Trazado 1027662" d="M246.2,174.426H232V152.114L240.114,144H246.2Z" transform="translate(-207.659 -132.844)" fill="#f47b79"/>
        <path id="Trazado_1027663" data-name="Trazado 1027663" d="M112,432h36.512v2.028H112Z" transform="translate(-102.872 -384.332)"/>
        <path id="Trazado_1027664" data-name="Trazado 1027664" d="M50.142,307.156H40v-8.114L45.071,296l5.071,3.043Z" transform="translate(-40 -265.574)" fill="#f47b79"/>
      </g>
      <path id="Trazado_1027665" data-name="Trazado 1027665" d="M24,48.341l15.213-14.2L45.3,39.213l9.128-10.142-3.043-2.028L61.526,24,60.512,34.142l-3.043-2.028L45.3,45.3l-6.085-5.071L24,54.426Z" transform="translate(-6.987 -6.986)" fill="#fbd373"/>
      <g id="Grupo_1174253" data-name="Grupo 1174253" transform="translate(15.999 15.999)">
        <path id="Trazado_1027666" data-name="Trazado 1027666" d="M74.824,61.639V50.483H72.8V61.639H66.71V57.583H64.682v4.057H58.6v-35.5H72.8V48.455h2.028V25.128a1.014,1.014,0,0,0-1.014-1.014H72.8V21.071a1.014,1.014,0,0,0-1.014-1.014H66.71V16H64.682v4.057H59.611A1.014,1.014,0,0,0,58.6,21.071v3.043H57.583a1.014,1.014,0,0,0-1.014,1.014v6.085H51.5a1.014,1.014,0,0,0-.717.3l-8.114,8.114a1.014,1.014,0,0,0-.3.717V46.25L36.944,41.6a1.014,1.014,0,0,0-1.32,0l-7.1,6.085a1.014,1.014,0,0,0-.354.77v4.294l-3.535-2.121a1.014,1.014,0,0,0-1.044,0L18.521,53.67a1.014,1.014,0,0,0-.492.87v7.1H16v2.028h5.353a30.432,30.432,0,0,0,50.146,0h5.353V61.639Zm-14.2-39.554H70.767v2.028H60.625ZM44.4,40.761l7.52-7.52h4.651v28.4H51.5V57.583H49.469v4.057H44.4Zm-14.2,8.16,6.085-5.216,6.085,5.216V61.639H37.3V57.583H35.27v4.057H30.2ZM20.057,55.114l4.057-2.434,4.057,2.434v6.525H25.128V57.583H23.1v4.057H20.057Zm3.8,8.554h9.12a37.314,37.314,0,0,0,7.333,10.495A28.344,28.344,0,0,1,23.859,63.668ZM43.921,74.714a34.633,34.633,0,0,1-8.686-11.047H57.618a34.633,34.633,0,0,1-8.686,11.047q-1.243.109-2.506.11t-2.506-.11Zm8.619-.552a37.314,37.314,0,0,0,7.333-10.495h9.12A28.344,28.344,0,0,1,52.54,74.162Z" transform="translate(-16 -16)"/>
        <path id="Trazado_1027667" data-name="Trazado 1027667" d="M144,288h2.028v5.071H144Z" transform="translate(-127.773 -253.517)"/>
        <path id="Trazado_1027668" data-name="Trazado 1027668" d="M192,288h2.028v5.071H192Z" transform="translate(-169.687 -253.517)"/>
        <path id="Trazado_1027669" data-name="Trazado 1027669" d="M256,288h2.028v5.071H256Z" transform="translate(-225.574 -253.517)"/>
        <path id="Trazado_1027670" data-name="Trazado 1027670" d="M304,288h2.028v5.071H304Z" transform="translate(-267.488 -253.517)"/>
        <path id="Trazado_1027671" data-name="Trazado 1027671" d="M256,232h2.028v5.071H256Z" transform="translate(-225.574 -204.616)"/>
        <path id="Trazado_1027672" data-name="Trazado 1027672" d="M304,232h2.028v5.071H304Z" transform="translate(-267.488 -204.616)"/>
        <path id="Trazado_1027673" data-name="Trazado 1027673" d="M368,232h2.028v5.071H368Z" transform="translate(-323.375 -204.616)"/>
        <path id="Trazado_1027674" data-name="Trazado 1027674" d="M400,232h2.028v5.071H400Z" transform="translate(-351.318 -204.616)"/>
        <path id="Trazado_1027675" data-name="Trazado 1027675" d="M368,176h2.028v5.071H368Z" transform="translate(-323.375 -155.716)"/>
        <path id="Trazado_1027676" data-name="Trazado 1027676" d="M400,176h2.028v5.071H400Z" transform="translate(-351.318 -155.716)"/>
        <path id="Trazado_1027677" data-name="Trazado 1027677" d="M368,120h2.028v5.071H368Z" transform="translate(-323.375 -106.815)"/>
        <path id="Trazado_1027678" data-name="Trazado 1027678" d="M400,120h2.028v5.071H400Z" transform="translate(-351.318 -106.815)"/>
        <path id="Trazado_1027679" data-name="Trazado 1027679" d="M432,232h2.028v5.071H432Z" transform="translate(-379.261 -204.616)"/>
        <path id="Trazado_1027680" data-name="Trazado 1027680" d="M368,288h2.028v5.071H368Z" transform="translate(-323.375 -253.517)"/>
        <path id="Trazado_1027681" data-name="Trazado 1027681" d="M400,288h2.028v5.071H400Z" transform="translate(-351.318 -253.517)"/>
        <path id="Trazado_1027682" data-name="Trazado 1027682" d="M432,288h2.028v5.071H432Z" transform="translate(-379.261 -253.517)"/>
        <path id="Trazado_1027683" data-name="Trazado 1027683" d="M432,176h2.028v5.071H432Z" transform="translate(-379.261 -155.716)"/>
        <path id="Trazado_1027684" data-name="Trazado 1027684" d="M432,120h2.028v5.071H432Z" transform="translate(-379.261 -106.815)"/>
        <path id="Trazado_1027685" data-name="Trazado 1027685" d="M304,176h2.028v5.071H304Z" transform="translate(-267.488 -155.716)"/>
        <path id="Trazado_1027686" data-name="Trazado 1027686" d="M16.609,48.37a1.014,1.014,0,0,0,1.1-.189L32.265,34.593l5.4,4.5A1.014,1.014,0,0,0,39.057,39L50.64,26.452,52.962,28a1.014,1.014,0,0,0,1.572-.743l1.014-10.142a1.014,1.014,0,0,0-1.3-1.072L44.106,19.085a1.014,1.014,0,0,0-.271,1.815L45.9,22.278l-7.69,8.545-5.335-4.446a1.014,1.014,0,0,0-1.341.038L26.1,31.485l1.384,1.483,4.779-4.461,5.4,4.5a1.014,1.014,0,0,0,1.4-.1l9.128-10.142A1.014,1.014,0,0,0,48,21.241l-1.249-.833,6.626-1.988-.7,6.955-1.639-1.093a1.014,1.014,0,0,0-1.308.156L38.22,36.916l-5.345-4.454a1.014,1.014,0,0,0-1.341.038L18.028,45.106V41.8l7.791-7.272L24.435,33.04l-8.114,7.573a1.014,1.014,0,0,0-.322.741V47.44a1.014,1.014,0,0,0,.61.93Z" transform="translate(-15.999 -15.999)"/>
      </g>
    </g>
  </g>
</svg>
