<svg xmlns="http://www.w3.org/2000/svg" xmlns:xlink="http://www.w3.org/1999/xlink" width="113" height="113" viewBox="0 0 113 113">
  <defs>
    <filter id="Trazado_982547" x="0" y="0" width="113" height="113" filterUnits="userSpaceOnUse">
      <feOffset dy="3" input="SourceAlpha"/>
      <feGaussianBlur stdDeviation="3" result="blur"/>
      <feFlood flood-opacity="0.161"/>
      <feComposite operator="in" in2="blur"/>
      <feComposite in="SourceGraphic"/>
    </filter>
  </defs>
  <g id="Grupo_1174256" data-name="Grupo 1174256" transform="translate(-902 -1879)">
    <g id="Grupo_1173587" data-name="Grupo 1173587" transform="translate(0.5 -319.679)">
      <g id="Grupo_1168709" data-name="Grupo 1168709" transform="translate(630.5 -836.474)">
        <g id="Grupo_1162113" data-name="Grupo 1162113" transform="translate(280 3041.154)">
          <g id="Grupo_1152576" data-name="Grupo 1152576" transform="translate(0)">
            <g id="Grupo_1148633" data-name="Grupo 1148633">
              <g id="Grupo_1148525" data-name="Grupo 1148525">
                <g transform="matrix(1, 0, 0, 1, -9, -6)" filter="url(#Trazado_982547)">
                  <g id="Trazado_982547-2" data-name="Trazado 982547" transform="translate(9 6)" fill="#e8edf7">
                    <path d="M 47.5 93.5 C 41.28937149047852 93.5 35.26533508300781 92.28397369384766 29.59518623352051 89.88570404052734 C 24.11771965026855 87.56893157958984 19.19813346862793 84.25196075439453 14.97309303283691 80.02691650390625 C 10.74804019927979 75.80186462402344 7.431066513061523 70.88229370117188 5.114293098449707 65.40481567382812 C 2.716026782989502 59.73468017578125 1.5 53.71062850952148 1.5 47.5 C 1.5 41.28937149047852 2.716026782989502 35.26533508300781 5.114293098449707 29.59518623352051 C 7.431066513061523 24.11771965026855 10.74804019927979 19.19813346862793 14.97309303283691 14.97309303283691 C 19.19813346862793 10.74804019927979 24.11771965026855 7.431066513061523 29.59518623352051 5.114293098449707 C 35.26533508300781 2.716026782989502 41.28937149047852 1.5 47.5 1.5 C 53.71062850952148 1.5 59.73468017578125 2.716026782989502 65.40481567382812 5.114293098449707 C 70.88229370117188 7.431066513061523 75.80186462402344 10.74804019927979 80.02691650390625 14.97309303283691 C 84.25196075439453 19.19813346862793 87.56893157958984 24.11771965026855 89.88570404052734 29.59518623352051 C 92.28397369384766 35.26533508300781 93.5 41.28937149047852 93.5 47.5 C 93.5 53.71062850952148 92.28397369384766 59.73468017578125 89.88570404052734 65.40481567382812 C 87.56893157958984 70.88229370117188 84.25196075439453 75.80186462402344 80.02691650390625 80.02691650390625 C 75.80186462402344 84.25196075439453 70.88229370117188 87.56893157958984 65.40481567382812 89.88570404052734 C 59.73468017578125 92.28397369384766 53.71062850952148 93.5 47.5 93.5 Z" stroke="none"/>
                    <path d="M 47.5 3 C 41.49121475219727 3 35.66376876831055 4.176155090332031 30.17950439453125 6.495796203613281 C 24.88084411621094 8.736953735351562 20.12152099609375 11.94598388671875 16.03375244140625 16.03375244140625 C 11.94598388671875 20.12152099609375 8.736953735351562 24.88084411621094 6.495796203613281 30.17950439453125 C 4.176155090332031 35.66376876831055 3 41.49121475219727 3 47.5 C 3 53.50878524780273 4.176155090332031 59.33623123168945 6.495796203613281 64.82049560546875 C 8.736953735351562 70.11915588378906 11.94598388671875 74.87847900390625 16.03375244140625 78.96624755859375 C 20.12152099609375 83.05401611328125 24.88084411621094 86.26304626464844 30.17950439453125 88.50419616699219 C 35.66376876831055 90.82384490966797 41.49121475219727 92 47.5 92 C 53.50878524780273 92 59.33623123168945 90.82384490966797 64.82049560546875 88.50419616699219 C 70.11915588378906 86.26304626464844 74.87847900390625 83.05401611328125 78.96624755859375 78.96624755859375 C 83.05401611328125 74.87847900390625 86.26304626464844 70.11915588378906 88.50419616699219 64.82049560546875 C 90.82384490966797 59.33623123168945 92 53.50878524780273 92 47.5 C 92 41.49121475219727 90.82384490966797 35.66376876831055 88.50419616699219 30.17950439453125 C 86.26304626464844 24.88084411621094 83.05401611328125 20.12152099609375 78.96624755859375 16.03375244140625 C 74.87847900390625 11.94598388671875 70.11915588378906 8.736953735351562 64.82049560546875 6.495796203613281 C 59.33623123168945 4.176155090332031 53.50878524780273 3 47.5 3 M 47.5 0 C 73.7335205078125 0 95 21.2664794921875 95 47.5 C 95 73.7335205078125 73.7335205078125 95 47.5 95 C 21.2664794921875 95 0 73.7335205078125 0 47.5 C 0 21.2664794921875 21.2664794921875 0 47.5 0 Z" stroke="none" fill="#2e5bb6"/>
                  </g>
                </g>
              </g>
            </g>
          </g>
        </g>
      </g>
    </g>
    <g id="accounting" transform="translate(928 1903)">
      <path id="Trazado_1027687" data-name="Trazado 1027687" d="M43.6,58a1.845,1.845,0,0,1,1.84,1.84,1.853,1.853,0,0,1-1.84,1.84H17.84A1.845,1.845,0,0,1,16,59.84,1.853,1.853,0,0,1,17.84,58H43.6Z" transform="translate(-0.96 -4.559)" fill="#969faa"/>
      <path id="Trazado_1027688" data-name="Trazado 1027688" d="M37.64,52l2.76,5.52H22L24.76,52Z" transform="translate(-1.44 -4.079)" fill="#aab2bd"/>
      <path id="Trazado_1027689" data-name="Trazado 1027689" d="M41.8,48.961H8.68A3.679,3.679,0,0,1,5,45.28V17.68A3.679,3.679,0,0,1,8.68,14H14.2v3.68H9.6a.923.923,0,0,0-.92.92V40.68a.923.923,0,0,0,.92.92H50.081a.923.923,0,0,0,.92-.92V18.6a.923.923,0,0,0-.92-.92h-4.6V14H51a3.679,3.679,0,0,1,3.68,3.68v27.6A3.679,3.679,0,0,1,51,48.961h-3.68a1.853,1.853,0,0,0,1.84-1.84,1.845,1.845,0,0,0-1.84-1.84H41.8a1.853,1.853,0,0,0-1.84,1.84A1.845,1.845,0,0,0,41.8,48.961Z" transform="translate(-0.08 -1.04)" fill="#ccd1d9"/>
      <path id="Trazado_1027690" data-name="Trazado 1027690" d="M50.36,48a1.845,1.845,0,0,1,1.84,1.84,1.853,1.853,0,0,1-1.84,1.84H44.84A1.845,1.845,0,0,1,43,49.84,1.853,1.853,0,0,1,44.84,48Z" transform="translate(-3.119 -3.759)" fill="#ff826e"/>
      <path id="Trazado_1027691" data-name="Trazado 1027691" d="M14.52,18V41.92H9.92A.923.923,0,0,1,9,41V18.92A.923.923,0,0,1,9.92,18Z" transform="translate(-0.4 -1.36)" fill="#69d6f4"/>
      <path id="Trazado_1027692" data-name="Trazado 1027692" d="M54.52,18.92V41a.923.923,0,0,1-.92.92H49V18h4.6A.923.923,0,0,1,54.52,18.92Z" transform="translate(-3.599 -1.36)" fill="#69d6f4"/>
      <path id="Trazado_1027693" data-name="Trazado 1027693" d="M14.36,5.68V9.36H7V5.68a3.68,3.68,0,0,1,7.36,0Z" transform="translate(-0.24 -0.08)" fill="#ffeaa7"/>
      <path id="Trazado_1027694" data-name="Trazado 1027694" d="M42.28,2H11a3.679,3.679,0,0,1,3.68,3.68V40.641h31.28V5.68A3.679,3.679,0,0,0,42.28,2Z" transform="translate(-0.56 -0.08)" fill="#e6e9ed"/>
      <g id="Grupo_1174255" data-name="Grupo 1174255" transform="translate(23.32 5.6)">
        <path id="Trazado_1027695" data-name="Trazado 1027695" d="M41,6h3.68V18.88H41Z" transform="translate(-26.28 -6)" fill="#b4dd7f"/>
        <path id="Trazado_1027696" data-name="Trazado 1027696" d="M33,10h3.68v9.2H33Z" transform="translate(-25.64 -6.32)" fill="#b4dd7f"/>
        <path id="Trazado_1027697" data-name="Trazado 1027697" d="M25,14h3.68v5.52H25Z" transform="translate(-25 -6.64)" fill="#b4dd7f"/>
      </g>
      <path id="Trazado_1027698" data-name="Trazado 1027698" d="M38.2,24A9.2,9.2,0,1,1,29,33.2,9.2,9.2,0,0,1,38.2,24Z" transform="translate(-2 -1.84)" fill="#fcd770"/>
      <path id="Trazado_1027699" data-name="Trazado 1027699" d="M50.921,12.04h-4.6V5.6a4.605,4.605,0,0,0-4.6-4.6H10.44a4.605,4.605,0,0,0-4.6,4.6v4.6H13.2v1.84H8.6A4.605,4.605,0,0,0,4,16.64v27.6a4.605,4.605,0,0,0,4.6,4.6H21.832l-1.84,3.68H16.88a2.76,2.76,0,1,0,0,5.52h25.76a2.76,2.76,0,1,0,0-5.52H39.529l-1.84-3.68H50.921a4.605,4.605,0,0,0,4.6-4.6V16.64A4.605,4.605,0,0,0,50.921,12.04Zm-6.44,25.121v2.479H42A10.2,10.2,0,0,0,44.481,37.161ZM36.2,39.641a8.28,8.28,0,1,1,8.28-8.28A8.29,8.29,0,0,1,36.2,39.641Zm10.12-22.08H50v22.08h-3.68ZM44.481,5.6V25.56A10.112,10.112,0,1,0,30.4,39.641H15.04V5.6A4.552,4.552,0,0,0,14.1,2.84H41.721A2.763,2.763,0,0,1,44.481,5.6ZM13.2,39.641H9.52V17.56H13.2ZM7.68,8.36V5.6a2.76,2.76,0,0,1,5.52,0V8.36ZM43.561,55.281a.922.922,0,0,1-.92.92H16.88a.92.92,0,0,1,0-1.84h25.76A.922.922,0,0,1,43.561,55.281Zm-6.089-2.76H22.049l1.84-3.68H35.632ZM41.721,47a.92.92,0,0,1,0-1.84h5.52a.92.92,0,1,1,0,1.84Zm11.96-2.76A2.763,2.763,0,0,1,50.921,47H49.831a2.729,2.729,0,0,0,.169-.92,2.763,2.763,0,0,0-2.76-2.76h-5.52a2.763,2.763,0,0,0-2.76,2.76,2.729,2.729,0,0,0,.169.92H8.6a2.763,2.763,0,0,1-2.76-2.76V16.64A2.763,2.763,0,0,1,8.6,13.88h4.6v1.84H9.52a1.842,1.842,0,0,0-1.84,1.84v22.08a1.842,1.842,0,0,0,1.84,1.84H50a1.842,1.842,0,0,0,1.84-1.84V17.56A1.842,1.842,0,0,0,50,15.72h-3.68V13.88h4.6a2.763,2.763,0,0,1,2.76,2.76Z"/>
      <path id="Trazado_1027700" data-name="Trazado 1027700" d="M10,47h1.84v1.84H10Z" transform="translate(-0.48 -3.679)"/>
      <path id="Trazado_1027701" data-name="Trazado 1027701" d="M14,47h1.84v1.84H14Z" transform="translate(-0.8 -3.679)"/>
      <path id="Trazado_1027702" data-name="Trazado 1027702" d="M18,47h1.84v1.84H18Z" transform="translate(-1.12 -3.679)"/>
      <path id="Trazado_1027703" data-name="Trazado 1027703" d="M38.76,30.68a.922.922,0,0,1,.92.92h1.84a2.756,2.756,0,0,0-1.84-2.591V27H37.84v1.84H36V31.6a2.763,2.763,0,0,0,2.76,2.76.922.922,0,0,1,.92.92v.92h-.92a.922.922,0,0,1-.92-.92H36a2.756,2.756,0,0,0,1.84,2.591V39.88h1.84V38.04h1.84V35.28a2.763,2.763,0,0,0-2.76-2.76.922.922,0,0,1-.92-.92v-.92Z" transform="translate(-2.56 -2.08)"/>
      <circle id="Elipse_12199" data-name="Elipse 12199" cx="1" cy="1" r="1" transform="translate(29.521 30.041)"/>
      <circle id="Elipse_12200" data-name="Elipse 12200" cx="1" cy="1" r="1" transform="translate(40.521 30.041)"/>
      <path id="Trazado_1027704" data-name="Trazado 1027704" d="M44.24,5H38.72V17.88H36.88V8.68H31.36v9.2H29.52V12.36H24v7.36H44.24ZM27.68,17.88H25.84V14.2h1.84Zm5.52-7.36h1.84v7.36H33.2Zm9.2,7.36H40.56V6.84H42.4Z" transform="translate(-1.6 -0.32)"/>
      <path id="Trazado_1027705" data-name="Trazado 1027705" d="M18,39h7.36v1.84H18Z" transform="translate(-1.12 -3.039)"/>
      <path id="Trazado_1027706" data-name="Trazado 1027706" d="M18,35h7.36v1.84H18Z" transform="translate(-1.12 -2.72)"/>
      <path id="Trazado_1027707" data-name="Trazado 1027707" d="M18,31h7.36v1.84H18Z" transform="translate(-1.12 -2.4)"/>
      <path id="Trazado_1027708" data-name="Trazado 1027708" d="M18,27h7.36v1.84H18Z" transform="translate(-1.12 -2.08)"/>
      <path id="Trazado_1027709" data-name="Trazado 1027709" d="M18,23h7.36v1.84H18Z" transform="translate(-1.12 -1.76)"/>
      <path id="Trazado_1027710" data-name="Trazado 1027710" d="M18,5h1.84V6.84H18Z" transform="translate(-1.12 -0.32)"/>
      <path id="Trazado_1027711" data-name="Trazado 1027711" d="M18,9h1.84v1.84H18Z" transform="translate(-1.12 -0.64)"/>
      <path id="Trazado_1027712" data-name="Trazado 1027712" d="M18,13h1.84v1.84H18Z" transform="translate(-1.12 -0.96)"/>
    </g>
  </g>
</svg>
